<?xml version="1.0" encoding="utf-8"?>
<!-- Generator: Adobe Illustrator 21.0.0, SVG Export Plug-In . SVG Version: 6.00 Build 0)  -->
<svg version="1.1" id="Layer_1" xmlns="http://www.w3.org/2000/svg" xmlns:xlink="http://www.w3.org/1999/xlink" x="0px" y="0px"
	 viewBox="0 0 252.8 169.2" style="enable-background:new 0 0 252.8 169.2;" xml:space="preserve">
<style type="text/css">
	.st0{fill:none;stroke:#FFFFFF;stroke-width:0.75;stroke-miterlimit:22.9256;}
</style>
<g>
	<path class="st0" d="M13.1,3h227c4.5,0,8.2,3.7,8.2,8.2V158c0,4.5-3.7,8.2-8.2,8.2h-227c-4.5,0-8.2-3.7-8.2-8.2V11.2
		C5.1,6.7,8.7,3,13.1,3z"/>
	<g>
		<line class="st0" x1="4.5" y1="125.5" x2="12.7" y2="125.5"/>
		<line class="st0" x1="14.7" y1="125.5" x2="22.8" y2="125.5"/>
		<line class="st0" x1="24.9" y1="125.5" x2="33" y2="125.5"/>
		<line class="st0" x1="35" y1="125.5" x2="43.2" y2="125.5"/>
	</g>
	<g>
		<line class="st0" x1="4.5" y1="84.6" x2="12.7" y2="84.6"/>
		<line class="st0" x1="14.7" y1="84.6" x2="22.8" y2="84.6"/>
		<line class="st0" x1="24.9" y1="84.6" x2="33" y2="84.6"/>
		<line class="st0" x1="35" y1="84.6" x2="43.2" y2="84.6"/>
	</g>
	<g>
		<line class="st0" x1="5.1" y1="43.9" x2="13.1" y2="43.9"/>
		<line class="st0" x1="15.1" y1="43.9" x2="23.3" y2="43.9"/>
		<line class="st0" x1="25.3" y1="43.9" x2="33.6" y2="43.9"/>
		<line class="st0" x1="35.6" y1="43.9" x2="43.6" y2="43.9"/>
	</g>
	<g>
		<g>
			<g>
				<line class="st0" x1="209.6" y1="125.5" x2="217.8" y2="125.5"/>
				<line class="st0" x1="219.8" y1="125.5" x2="227.8" y2="125.5"/>
				<line class="st0" x1="230" y1="125.5" x2="238.1" y2="125.5"/>
				<line class="st0" x1="240.1" y1="125.5" x2="248.3" y2="125.5"/>
			</g>
			<g>
				<line class="st0" x1="209.6" y1="84.6" x2="217.8" y2="84.6"/>
				<line class="st0" x1="219.8" y1="84.6" x2="227.8" y2="84.6"/>
				<line class="st0" x1="230" y1="84.6" x2="238.1" y2="84.6"/>
				<line class="st0" x1="240.1" y1="84.6" x2="248.3" y2="84.6"/>
			</g>
			<g>
				<line class="st0" x1="209.6" y1="43.9" x2="217.8" y2="43.9"/>
				<line class="st0" x1="219.8" y1="43.9" x2="227.8" y2="43.9"/>
				<line class="st0" x1="230" y1="43.9" x2="238.1" y2="43.9"/>
				<line class="st0" x1="240.1" y1="43.9" x2="248.3" y2="43.9"/>
			</g>
		</g>
		<g>
			<g>
				<line class="st0" x1="209.6" y1="125.5" x2="217.8" y2="125.5"/>
				<line class="st0" x1="219.8" y1="125.5" x2="227.8" y2="125.5"/>
				<line class="st0" x1="230" y1="125.5" x2="238.1" y2="125.5"/>
				<line class="st0" x1="240.1" y1="125.5" x2="248.3" y2="125.5"/>
			</g>
			<g>
				<line class="st0" x1="209.6" y1="84.6" x2="217.8" y2="84.6"/>
				<line class="st0" x1="219.8" y1="84.6" x2="227.8" y2="84.6"/>
				<line class="st0" x1="230" y1="84.6" x2="238.1" y2="84.6"/>
				<line class="st0" x1="240.1" y1="84.6" x2="248.3" y2="84.6"/>
			</g>
			<g>
				<line class="st0" x1="209.6" y1="43.9" x2="217.8" y2="43.9"/>
				<line class="st0" x1="219.8" y1="43.9" x2="227.8" y2="43.9"/>
				<line class="st0" x1="230" y1="43.9" x2="238.1" y2="43.9"/>
				<line class="st0" x1="240.1" y1="43.9" x2="248.3" y2="43.9"/>
			</g>
		</g>
	</g>
	<g>
		<g>
			<line class="st0" x1="125.7" y1="41.7" x2="125.7" y2="33.7"/>
			<line class="st0" x1="125.7" y1="31.6" x2="125.7" y2="23.4"/>
			<line class="st0" x1="125.7" y1="21.4" x2="125.7" y2="13.2"/>
			<line class="st0" x1="125.7" y1="11.2" x2="125.7" y2="3"/>
		</g>
		<g>
			<line class="st0" x1="74.7" y1="41.7" x2="74.7" y2="33.7"/>
			<line class="st0" x1="74.7" y1="31.6" x2="74.7" y2="23.4"/>
			<line class="st0" x1="74.7" y1="21.4" x2="74.7" y2="13.2"/>
			<line class="st0" x1="74.7" y1="11.2" x2="74.7" y2="3"/>
		</g>
		<g>
			<line class="st0" x1="176.5" y1="41.7" x2="176.5" y2="33.7"/>
			<line class="st0" x1="176.5" y1="31.6" x2="176.5" y2="23.4"/>
			<line class="st0" x1="176.5" y1="21.4" x2="176.5" y2="13.2"/>
			<line class="st0" x1="176.5" y1="11.2" x2="176.5" y2="3"/>
		</g>
	</g>
	<g>
		<g>
			<line class="st0" x1="125.7" y1="166.2" x2="125.7" y2="158"/>
			<line class="st0" x1="125.7" y1="156" x2="125.7" y2="147.8"/>
			<line class="st0" x1="125.7" y1="145.8" x2="125.7" y2="137.7"/>
			<line class="st0" x1="125.7" y1="135.5" x2="125.7" y2="127.5"/>
		</g>
		<g>
			<line class="st0" x1="74.7" y1="166.2" x2="74.7" y2="158"/>
			<line class="st0" x1="74.7" y1="156" x2="74.7" y2="147.8"/>
			<line class="st0" x1="74.7" y1="145.8" x2="74.7" y2="137.7"/>
			<line class="st0" x1="74.7" y1="135.5" x2="74.7" y2="127.5"/>
		</g>
		<g>
			<line class="st0" x1="176.5" y1="166.2" x2="176.5" y2="158"/>
			<line class="st0" x1="176.5" y1="156" x2="176.5" y2="147.8"/>
			<line class="st0" x1="176.5" y1="145.8" x2="176.5" y2="137.7"/>
			<line class="st0" x1="176.5" y1="135.5" x2="176.5" y2="127.5"/>
		</g>
	</g>
</g>
</svg>
