<?xml version="1.0" encoding="utf-8"?>
<!-- Generator: Adobe Illustrator 21.0.0, SVG Export Plug-In . SVG Version: 6.00 Build 0)  -->
<svg version="1.1" id="Layer_1" xmlns="http://www.w3.org/2000/svg" xmlns:xlink="http://www.w3.org/1999/xlink" x="0px" y="0px"
	 viewBox="0 0 120 120" style="enable-background:new 0 0 120 120;" xml:space="preserve">
<style type="text/css">
	.st0{display:none;fill:#FF0000;}
	.st1{display:none;fill:#FFFFFF;}
	.st2{fill:#FFFFFF;}
	.st3{opacity:0.8;}
	.st4{fill:none;stroke:#FFFFFF;stroke-width:0.75;stroke-miterlimit:10;}
	.st5{fill-rule:evenodd;clip-rule:evenodd;fill:#57BE95;}
	.st6{fill:#7A2879;}
	.st7{fill-rule:evenodd;clip-rule:evenodd;fill:#7A2879;}
</style>
<rect x="-76" y="-42" class="st0" width="566" height="197"/>
<rect x="24" class="st1" width="70" height="93"/>
<g>
	<g id="remo">
		<g>
			<path class="st2" d="M21.5,111.2c-1.2,0.4-2,0.4-2.5,0.3c0.7,3.8,3.8,7,7.6,6.3c0.2,1.3-3,4.2-6.1,0.2c-2.3-3-2.4-6.8-2.4-6.9
				c-0.3-0.4-0.2-0.9-0.1-1.2c2.4,0.2,11.1-3.5,9.5-6.9c-0.7-1.6-4.4-1.8-7.7-0.8c-2.5,0.7-4.7,2.3-5.9,3.2
				c-2.9,2.1-3.4,4.7-2.8,5.3c1,0.9,2.9-0.8,2.9-0.8s0.7,0.5,0.2,1.1c-0.8,1.2-3.1,1.3-4.5-0.3c-2.3-2.6,0.4-6.7,4.9-8.9
				c4.6-2.2,12.2-2.8,13.8,0.9C29.8,105.9,25.1,110.1,21.5,111.2z M14.2,116.7c-1-4.8,3.5-12.5,4.4-13.2c0,0,1.6-1,1.4-0.6
				c-1.6,3.7-3,7.9-3.1,12.8c-0.1,2.4,0.5,2.5,0.5,2.5C16.3,118.7,14.6,118.7,14.2,116.7z"/>
		</g>
		<g>
			<path class="st2" d="M65,110.2c-0.1,0.3-1.4,1.9-2.8,1.4c0.1-1.7-1-5-3.2-4.9c-1.1,0.1-1.7,0.9-1.2,2.2c-2.2-0.1-3.3,1-3.8,2.2
				c-1.1,1.7-2.3,2.9-3.4,3.7c-0.7,0.5,0-1.5,0.9-4c0.8-1.6-0.6-3-0.9-3.3c0,0-0.1-0.1-0.1-0.1c-0.6-0.4-1.1-1.6-3.2,1.3
				c-1.9,2.6-3,4.7-2.9,4.6c0.2-0.8,2.4-3.8-1.5-5c-1.3-0.4-3.8,4.9-4.9,6.4c0-0.8,0.8-2,1.4-3.6c0.5-1-0.5-1.7-1.2-2
				c-0.5-0.1-0.8,0-1,0.3c-0.1,0.4-0.3,0.7-0.4,1.1c-1,1.8-3.4,4.7-5.8,4.7c-1.5,0.1-1.7-1.9-1.2-3.5c0.7-2.2,1.7-3.1,2.5-3.2
				c0.9-0.1-0.2,3.7-1.1,4.3c-0.3,0.2-0.8,0.4-1.1,0.2c-0.5,0.6,0.5,1.3,1.7,0.8c2-0.8,3.2-4.5,1.5-5.9c-0.3-0.2-0.6-0.4-1.1-0.4
				c-2.2-0.1-4.8,1.6-5.1,5.1c-0.2,2.4,1.4,3.4,3.6,3.5c1.9,0.1,4-1.3,5.4-3c-0.1,1,0,1.9,0.6,2.4c0.2,0.1,0.3,0.3,0.5,0.4
				c0,0,0,0,0,0l0.1,0v0c1,0.2,1.5-0.8,1.5-0.8c1.2-1.7,3.6-6,4.1-5.6c0.4,0.3-0.7,2.4-1.1,5c-0.3,2,1.9,1.8,1.9,1.8
				s1.5-2.5,3.8-5.8c1.3-1.8,1.7-2.3,1.9-2.3c-0.7,2.1-3.4,7.4,0.2,7.8c1.5,0.2,2.9-1.2,4.1-2.7c0.3,2.4,2.6,2.9,4.2,2.9
				c1.8,0,3.9-2.1,4.2-3.8c1.6,0.4,3.3-0.7,3.3-1.9C65.3,110.3,65,110,65,110.2z M57.6,115.1c-1,0.2-1.4-1.1-1.4-2
				c0-1.4,0.6-3,1.8-3.4c0.1,0.5,0.7,1.6,1.9,2.1C59.6,113.1,59.1,114.8,57.6,115.1z M60.1,110.9c-1.1-0.6-1.5-1.5-1.5-2.8
				c0-0.4,0.1-0.6,0.5-0.6c1,0,1.1,1.9,1.1,2.7C60.1,110.5,60.1,110.7,60.1,110.9z"/>
		</g>
	</g>
	<g>
		<path class="st2" d="M88.3,106.4h1.4c0.3,0,0.5,0.2,0.5,0.5l0.4,9.3h-1.2l-0.4-8.7h-0.3l-2.2,7.2c-0.1,0.3-0.3,0.4-0.5,0.4h-1.1
			c-0.3,0-0.5-0.1-0.6-0.4l-2.2-7.2h-0.3l-0.3,8.7h-1.2l0.4-9.3c0-0.3,0.2-0.5,0.5-0.5h1.4c0.3,0,0.4,0.1,0.5,0.4l1.8,6
			c0.1,0.2,0.1,0.4,0.2,0.8c0.1,0.3,0.1,0.5,0.1,0.6h0.3c0-0.1,0.1-0.3,0.2-0.6c0.1-0.3,0.1-0.6,0.2-0.7l1.8-5.9
			C87.8,106.5,88,106.4,88.3,106.4z"/>
		<path class="st2" d="M98.1,113.1h-4l-1,3.1h-1.3l3.1-9.4c0.1-0.2,0.2-0.3,0.5-0.3h1.3c0.3,0,0.4,0.1,0.5,0.3l3.1,9.4h-1.3
			L98.1,113.1z M97.8,112l-1.2-3.9c-0.1-0.2-0.2-0.5-0.2-0.8h-0.4l-0.2,0.8l-1.2,3.9H97.8z"/>
		<path class="st2" d="M103,116.2h-1.2v-9.8h1.2V116.2z"/>
		<path class="st2" d="M106.6,106.4v7.8c0,0.6,0.3,0.9,0.9,0.9h3.5l0.1,1c-0.8,0.1-2.1,0.1-3.8,0.1c-1.3,0-2-0.6-2-1.8v-8H106.6z"/>
	</g>
	<g>
		<rect x="72.6" y="100" class="st2" width="0.4" height="20"/>
	</g>
</g>
<g>
	<path class="st5" d="M31,70.9c-0.1,0.2-0.2,0.4-0.2,0.6v14.2h6.3V71.6c0-0.2-0.1-0.5-0.2-0.6c-0.1-0.2-0.3-0.3-0.5-0.3h-4.8
		C31.3,70.7,31.1,70.8,31,70.9 M77.6,73.9c-0.2,0.4-0.3,0.9-0.4,1.4h3.1c-0.1-0.7-0.3-1.3-0.5-1.6c-0.3-0.4-0.6-0.6-1-0.6
		C78.3,73,77.9,73.3,77.6,73.9z M97.2,69.1l0,0.9h3.4c0.2,0,0.4,0.1,0.6,0.3c0.2,0.2,0.3,0.4,0.3,0.7v3.2c0,0.3-0.1,0.5-0.3,0.7
		c-0.2,0.2-0.4,0.3-0.6,0.3h-3.4v6.4c0,0.4,0.1,0.7,0.2,0.9c0.1,0.2,0.3,0.3,0.5,0.3c0.5,0,1-0.1,1.4-0.2c0.4-0.1,0.7-0.3,0.9-0.4
		c0.1-0.1,0.3-0.1,0.4-0.1c0.2,0,0.3,0.1,0.4,0.2c0.3,0.2,0.4,0.4,0.4,0.8v2.9H91c-0.4-0.8-0.6-1.8-0.6-3v-7.7h-2.4
		c-0.2,0-0.4-0.1-0.6-0.3c-0.2-0.2-0.3-0.4-0.3-0.7v-3.2c0-0.3,0.1-0.5,0.3-0.7c0.2-0.2,0.4-0.3,0.6-0.3h2.4v-0.9H97.2z M82.9,69.1
		c0.7,0.4,1.3,0.9,1.9,1.6c1.4,1.6,2.2,3.8,2.2,6.4v1.3c0,0.2-0.1,0.5-0.3,0.6c-0.2,0.2-0.4,0.3-0.6,0.3h-8.6
		c0.2,0.3,0.3,0.6,0.5,0.8c0.6,0.6,1.6,0.9,3.1,0.9c0.7,0,1.4-0.1,2.1-0.3c0.4-0.1,0.6-0.2,0.8-0.2c0.2-0.1,0.3-0.1,0.4-0.2
		c0.1-0.1,0.2-0.1,0.3-0.1c0.1,0,0.2,0,0.3,0.1c0.2,0.1,0.4,0.3,0.5,0.5l1.1,2.8l-0.4,1.1c-0.4,0.2-0.8,0.5-1.3,0.6
		c-0.4,0.2-0.9,0.3-1.4,0.4h-6.9c-1.4-0.4-2.7-1.1-3.7-2c-1.8-1.7-2.6-3.9-2.6-6.9c0-2.5,0.8-4.6,2.4-6.3c0.6-0.6,1.2-1.1,1.9-1.5
		H82.9z M60.4,69.1v4.7l4.8-4.7h7.8c0,0.1,0,0.2,0,0.4c0,0.2-0.1,0.4-0.3,0.5l-6.8,6.5l6.9,8.2c0.3,0.3,0.3,0.7,0.2,1
		c0,0.1,0,0.1-0.1,0.1h-7l-5.5-6.2v5.6c0,0.2-0.1,0.4-0.2,0.5h-6.7c-0.1-0.2-0.2-0.3-0.2-0.5V69.1H60.4z M50.7,69.1
		c0.4,0.1,0.7,0.3,1,0.4c0.1,0,0.2,0.1,0.3,0.3c0.1,0.2,0.2,0.3,0.2,0.4l0.4,4c0,0.4-0.1,0.7-0.4,0.9c-0.1,0.1-0.3,0.1-0.4,0.1
		c-0.2,0-0.3-0.1-0.5-0.2c-0.2-0.1-0.4-0.3-0.7-0.4c-0.3-0.1-0.7-0.3-1.1-0.5c-0.8-0.3-1.6-0.5-2.4-0.5c-1,0-1.7,0.4-2.3,1.1
		c-0.5,0.7-0.8,1.7-0.8,2.9c0,1.1,0.3,1.9,0.9,2.4c0.6,0.5,1.5,0.8,2.7,0.8c0.7,0,1.4-0.2,2.3-0.5c0.3-0.1,0.6-0.2,0.8-0.3
		c0.2-0.1,0.4-0.1,0.5-0.2h-0.1c0.1-0.1,0.2-0.1,0.3-0.1c0.1,0,0.2,0,0.3,0c0.3,0,0.5,0.1,0.7,0.3c0.2,0.2,0.2,0.4,0.2,0.7l-0.5,4
		c0,0.1-0.1,0.2-0.2,0.4c-0.1,0.2-0.2,0.2-0.3,0.3c-0.2,0.1-0.4,0.2-0.8,0.3h-8.2c-0.9-0.4-1.8-0.9-2.5-1.7
		c-1.6-1.6-2.4-3.8-2.4-6.5c0-1.5,0.2-2.7,0.6-3.9c0.4-1.1,1-2.1,1.9-2.9c0.8-0.8,1.7-1.4,2.7-1.8H50.7z M37,69.1
		c0,0.2-0.1,0.4-0.2,0.6c-0.1,0.2-0.3,0.3-0.5,0.3h-4.8c-0.2,0-0.4-0.1-0.5-0.3c-0.1-0.2-0.2-0.4-0.2-0.6H37z M25.8,69.1l0,0.9h3.4
		c0.2,0,0.4,0.1,0.6,0.3c0.2,0.2,0.3,0.4,0.3,0.6v3.2c0,0.3-0.1,0.5-0.3,0.7c-0.2,0.2-0.4,0.3-0.6,0.3h-3.4v6.4
		c0,0.4,0.1,0.7,0.2,0.9c0.1,0.2,0.3,0.3,0.5,0.3c0.5,0,1-0.1,1.4-0.2c0.4-0.1,0.7-0.3,0.9-0.4c0.1-0.1,0.3-0.1,0.4-0.1
		c0.2,0,0.3,0.1,0.4,0.2c0.3,0.2,0.4,0.4,0.4,0.8v2.9H19.6C19.2,85,19,84,19,82.8v-7.7h-2.4c-0.2,0-0.4-0.1-0.6-0.3
		c-0.2-0.2-0.3-0.4-0.3-0.7v-3.2c0-0.3,0.1-0.5,0.3-0.6c0.2-0.2,0.4-0.3,0.6-0.3H19v-0.9H25.8z"/>
	<path class="st6" d="M23.4,89.7c-0.7,0-1.1-0.2-1.1-0.5h-1.7v2.1h-1.4v-2.7h0.2c0.3,0,0.7,0.1,1.1,0.3c0.3-0.2,0.8-0.3,1.3-0.3
		c0.4,0,0.8,0,1.2,0.1c0.5,0.1,0.8,0.4,0.8,0.7v0.3H23.4z"/>
	<path class="st6" d="M27.2,88.1h-0.7l0.4-1.3h0.9L27.2,88.1z M25.8,89.2v1.6h2.1v-1.6H25.8z M27.9,91.3h-2.2c-0.2,0-0.3,0-0.5,0
		c-0.6-0.1-0.9-0.3-0.9-0.7v-1.1c0-0.5,0.5-0.8,1.4-0.8h2.2c0.2,0,0.3,0,0.4,0c0.6,0.1,1,0.3,1,0.8v1.1
		C29.3,91.1,28.9,91.3,27.9,91.3z"/>
	<path class="st6" d="M32,91.3c-0.1,0-0.3,0-0.5,0c-0.5-0.1-0.7-0.2-0.7-0.5v-1.6H30v-0.6h0.8v-1.1c0.4,0,0.7,0,0.8,0
		c0.4,0.1,0.6,0.2,0.6,0.5v0.6h1c0,0.1,0,0.1,0,0.2c-0.1,0.2-0.4,0.4-1,0.4v1.6h1C33.3,91.2,32.8,91.3,32,91.3"/>
	<path class="st6" d="M38.4,91.3h-0.2c0,0-0.1,0-0.2,0c-0.3,0-0.6-0.1-0.9-0.3c-0.3,0.2-0.8,0.3-1.3,0.3c-0.4,0-0.8,0-1.2-0.1
		c-0.5-0.1-0.8-0.4-0.8-0.7v-1.9h0.4c0.1,0,0.2,0,0.3,0c0.4,0,0.7,0.2,0.7,0.5v1.6H37v-2.2h1.4V91.3z"/>
	<path class="st6" d="M39.9,91.3c-0.2,0-0.4,0.1-0.9,0.1v-3.8h1.4v3.2C40.5,91,40.3,91.2,39.9,91.3"/>
	<path class="st6" d="M42.5,89.2v1.6h2.1v-1.6H42.5z M44.7,91.3h-2.2c-0.2,0-0.3,0-0.5,0c-0.6-0.1-0.9-0.3-0.9-0.7v-1.1
		c0-0.5,0.5-0.8,1.4-0.8h2.2c0.2,0,0.3,0,0.4,0c0.6,0.1,1,0.3,1,0.8v1.1C46,91.1,45.6,91.3,44.7,91.3z"/>
	<path class="st6" d="M50.2,89.2h-2.1v0.5h2.1c0.9,0,1.4,0.2,1.4,0.6v0.4c0,0.4-0.5,0.6-1.4,0.6h-2c-1,0-1.4-0.2-1.4-0.7v-0.2h0.5
		c0.4,0,0.6,0.1,0.8,0.2c0.1,0.1,0.1,0.1,0.1,0.1h2v-0.5h-2c-0.4,0-0.7,0-0.9-0.1c-0.4-0.1-0.6-0.3-0.6-0.5v-0.4
		c0-0.4,0.5-0.6,1.4-0.6h2c0.3,0,0.6,0,0.8,0.1c0.4,0.1,0.6,0.3,0.6,0.5v0.3C50.7,89.5,50.2,89.4,50.2,89.2"/>
	<path class="st6" d="M55.7,89.2v0.6h2.1v-0.6H55.7z M59.1,91c-0.3,0.2-0.7,0.3-1.3,0.3h-2.1c-0.3,0-0.6,0-0.9-0.1
		c-0.4-0.1-0.6-0.3-0.6-0.5v-1.4c0-0.2,0.2-0.4,0.6-0.5c0.3-0.1,0.6-0.1,0.9-0.1h2.1c0.3,0,0.5,0,0.8,0.1c0.4,0.1,0.6,0.3,0.6,0.5
		v0.5c0,0.4-0.5,0.5-1.4,0.5h-2.1v0.5h3.5C59.3,90.9,59.2,90.9,59.1,91z"/>
	<path class="st6" d="M65.5,89.2h-2.1v0.5h2.1c0.9,0,1.4,0.2,1.4,0.6v0.4c0,0.4-0.5,0.6-1.4,0.6h-2c-1,0-1.4-0.2-1.4-0.7v-0.2h0.5
		c0.4,0,0.6,0.1,0.8,0.2c0.1,0.1,0.1,0.1,0.1,0.1h2v-0.5h-2c-0.4,0-0.7,0-0.9-0.1C62.2,90.1,62,90,62,89.7v-0.4
		c0-0.4,0.5-0.6,1.4-0.6h2c0.3,0,0.6,0,0.8,0.1c0.4,0.1,0.6,0.3,0.6,0.5v0.3C66,89.5,65.6,89.4,65.5,89.2"/>
	<path class="st6" d="M68.9,89.2v1.6H71v-1.6H68.9z M71.1,91.3h-2.2c-0.2,0-0.3,0-0.5,0c-0.6-0.1-0.9-0.3-0.9-0.7v-1.1
		c0-0.5,0.5-0.8,1.4-0.8h2.2c0.2,0,0.3,0,0.4,0c0.6,0.1,1,0.3,1,0.8v1.1C72.5,91.1,72,91.3,71.1,91.3z"/>
	<path class="st6" d="M73.9,91.3c-0.2,0-0.4,0.1-0.9,0.1v-3.8h1.4v3.2C74.5,91,74.3,91.2,73.9,91.3"/>
	<path class="st6" d="M79.7,91.3h-0.2c0,0-0.1,0-0.2,0c-0.3,0-0.6-0.1-0.9-0.3c-0.3,0.2-0.8,0.3-1.3,0.3c-0.4,0-0.8,0-1.2-0.1
		c-0.5-0.1-0.8-0.4-0.8-0.7v-1.9h0.4c0.1,0,0.2,0,0.3,0c0.4,0,0.7,0.2,0.7,0.5v1.6h1.7v-2.2h1.4V91.3z"/>
	<path class="st6" d="M85.2,89.4c0,0.1-0.1,0.1-0.2,0.2c-0.3,0.2-0.7,0.2-1.3,0.2v-0.6h-2.1v1.5h2.1l0-0.1c0-0.1,0.1-0.1,0.2-0.2
		c0.2-0.2,0.7-0.3,1.2-0.3v0.4c0,0.1,0,0.2-0.1,0.2c-0.3,0.2-0.7,0.4-1.3,0.4h-0.9v0.4h0.4c0.5,0,0.7,0.1,0.7,0.3v0.6
		c0,0.2-0.2,0.3-0.7,0.3h-1.1c-0.5,0-0.7-0.1-0.7-0.3v-0.5h0.1c0.5,0,0.7,0.1,0.7,0.3v0.2h1v-0.6h-1v-0.8h-0.6c-0.2,0-0.4,0-0.5,0
		c-0.6,0-0.9-0.3-0.9-0.7v-1.3c0-0.4,0.5-0.6,1.4-0.6h2.1c0.9,0,1.4,0.2,1.4,0.5L85.2,89.4L85.2,89.4z"/>
	<path class="st6" d="M87.3,89.2v1.6h2.1v-1.6H87.3z M89.7,88.1c0,0-0.1,0-0.1,0h-0.1c-0.2,0-0.4-0.1-0.5-0.1l-1.7-0.3v0.4h-0.9
		v-0.5c0-0.4,0.3-0.5,0.8-0.5c0.1,0,0.3,0,0.6,0.1l1.7,0.3v-0.4h1v0.5C90.4,87.9,90.1,88.1,89.7,88.1z M89.4,91.3h-2.2
		c-0.2,0-0.3,0-0.5,0c-0.6-0.1-0.9-0.3-0.9-0.7v-1.1c0-0.5,0.5-0.8,1.4-0.8h2.2c0.2,0,0.3,0,0.4,0c0.6,0.1,1,0.3,1,0.8v1.1
		C90.8,91.1,90.4,91.3,89.4,91.3z"/>
	<path class="st6" d="M92.9,89.2v0.6H95v-0.6H92.9z M96.3,91c-0.3,0.2-0.7,0.3-1.3,0.3h-2.1c-0.3,0-0.6,0-0.9-0.1
		c-0.4-0.1-0.6-0.3-0.6-0.5v-1.4c0-0.2,0.2-0.4,0.6-0.5c0.3-0.1,0.6-0.1,0.9-0.1H95c0.3,0,0.5,0,0.8,0.1c0.4,0.1,0.6,0.3,0.6,0.5
		v0.5c0,0.4-0.5,0.5-1.4,0.5h-2.1v0.5h3.5C96.4,90.9,96.3,90.9,96.3,91z"/>
	<path class="st6" d="M100.5,89.2h-2.1v0.5h2.1c0.9,0,1.4,0.2,1.4,0.6v0.4c0,0.4-0.5,0.6-1.4,0.6h-2c-1,0-1.4-0.2-1.4-0.7v-0.2h0.5
		c0.4,0,0.6,0.1,0.8,0.2c0.1,0.1,0.1,0.1,0.1,0.1h2v-0.5h-2c-0.4,0-0.7,0-0.9-0.1C97.2,90.1,97,90,97,89.7v-0.4
		c0-0.4,0.5-0.6,1.4-0.6h2c0.3,0,0.6,0,0.8,0.1c0.4,0.1,0.6,0.3,0.6,0.5v0.3C101,89.5,100.6,89.4,100.5,89.2"/>
	<path class="st7" d="M106.8,81.1c0,0.5,0.5,0.8,1.5,0.8c0.8,0,1.5-0.1,2.2-0.4c0.2-0.1,0.4-0.2,0.5-0.2c0.2-0.1,0.3-0.1,0.5-0.2
		v-1.4h-0.1C108.4,79.6,106.8,80.1,106.8,81.1 M7.7,74.2c-0.2,0.4-0.3,0.9-0.4,1.4h3.1c-0.1-0.7-0.3-1.3-0.5-1.6
		c-0.3-0.4-0.6-0.6-1-0.6C8.3,73.3,7.9,73.6,7.7,74.2z M114.3,69.1c0.7,0.3,1.3,0.6,1.8,1c0.7,0.6,1.2,1.3,1.6,2.3
		c0.3,0.9,0.5,2.1,0.5,3.4V82l0.2,0.2l0.2,0.2c0.2,0,0.4,0.1,0.6,0.2c0.2,0.1,0.3,0.2,0.3,0.4c0.1,0.2,0.1,0.3,0,0.5
		c0,0.2-0.2,0.3-0.3,0.5l-2.3,2h-3.2c-0.1-0.1-0.2-0.1-0.3-0.2c-0.1-0.1-0.3-0.2-0.4-0.3c-0.1-0.1-0.2-0.2-0.3-0.3
		c-0.6,0.3-1.3,0.6-2,0.9h-7.7c-0.4-0.2-0.8-0.5-1.1-0.7c-1.1-1-1.6-2.3-1.6-4c0-1.8,0.8-3.3,2.5-4.4c0.8-0.5,1.8-1,2.8-1.3
		c0.9-0.2,1.8-0.4,2.8-0.4c0.2,0,0.4,0,0.6,0l2.5,0.1c0-0.6-0.2-1.1-0.6-1.4c-0.4-0.3-1-0.5-1.7-0.5c-0.5,0-1,0-1.5,0.1
		c-0.5,0.1-1,0.2-1.5,0.4c-0.5,0.2-0.9,0.4-1.3,0.5c-0.4,0.2-0.7,0.3-1.1,0.5c-0.1,0.1-0.3,0.1-0.4,0.1c-0.1,0-0.2,0-0.3-0.1
		c-0.3-0.1-0.4-0.3-0.5-0.5l-1.1-2.6c-0.1-0.2-0.1-0.3,0-0.5c0-0.2,0.1-0.4,0.2-0.5c0.2-0.2,0.6-0.4,1-0.7c0.5-0.3,1.1-0.5,1.9-0.8
		c0.2-0.1,0.4-0.1,0.6-0.2H114.3z M12.3,69.1c0.9,0.4,1.8,1,2.5,1.8c1.4,1.6,2.2,3.8,2.2,6.4v1.3c0,0.2-0.1,0.5-0.3,0.6
		c-0.2,0.2-0.4,0.3-0.6,0.3H7.5c0.2,0.3,0.3,0.6,0.5,0.8c0.6,0.6,1.6,0.9,3.1,0.9c0.7,0,1.4-0.1,2.1-0.3c0.4-0.1,0.6-0.2,0.8-0.2
		c0.2-0.1,0.3-0.1,0.4-0.2c0.1-0.1,0.2-0.1,0.3-0.1c0.1,0,0.2,0,0.3,0.1c0.2,0.1,0.4,0.3,0.5,0.5l1.1,2.8L16.4,85
		c-0.4,0.2-0.8,0.5-1.2,0.6c-0.1,0-0.3,0.1-0.4,0.1H5.9c-1.1-0.4-2-1-2.8-1.7c-1.8-1.7-2.7-3.9-2.7-6.9c0-2.5,0.8-4.6,2.4-6.3
		c0.8-0.8,1.6-1.4,2.5-1.8H12.3z"/>
</g>
</svg>
