<?xml version="1.0" encoding="utf-8"?>
<!-- Generator: Adobe Illustrator 21.0.0, SVG Export Plug-In . SVG Version: 6.00 Build 0)  -->
<svg version="1.1" id="Layer_1" xmlns="http://www.w3.org/2000/svg" xmlns:xlink="http://www.w3.org/1999/xlink" x="0px" y="0px"
	 viewBox="0 0 277 62" style="enable-background:new 0 0 277 62;" xml:space="preserve">
<style type="text/css">
	.st0{display:none;fill:#FF0000;}
	.st1{display:none;fill:#FFFFFF;}
	.st2{fill:#FFFFFF;}
	.st3{opacity:0.8;}
	.st4{fill:none;stroke:#FFFFFF;stroke-width:0.75;stroke-miterlimit:10;}
	.st5{fill-rule:evenodd;clip-rule:evenodd;fill:#57BE95;}
	.st6{fill:#7A2879;}
	.st7{fill-rule:evenodd;clip-rule:evenodd;fill:#7A2879;}
</style>
<rect x="-241" y="-42" class="st0" width="566" height="197"/>
<g>
	<g id="remo_1_">
		<g>
			<path class="st2" d="M27.2,33.1c-1.4,0.4-2.4,0.5-3,0.4c0.8,4.6,4.6,8.5,9.2,7.6c0.2,1.6-3.6,5.1-7.4,0.2c-2.8-3.6-3-8.2-2.9-8.4
				c-0.3-0.5-0.3-1.1-0.2-1.4c3,0.3,13.5-4.3,11.6-8.4c-0.9-1.9-5.3-2.2-9.4-1c-3,0.9-5.8,2.8-7.2,3.9c-3.5,2.6-4.1,5.8-3.4,6.4
				c1.3,1.1,3.5-0.9,3.5-0.9s0.8,0.6,0.3,1.3c-0.9,1.4-3.8,1.6-5.5-0.3c-2.8-3.2,0.5-8.2,6-10.8c5.6-2.7,14.9-3.4,16.8,1.2
				C37.3,26.7,31.5,31.8,27.2,33.1z M18.2,39.8C17,34,22.4,24.6,23.6,23.7c0,0,1.9-1.2,1.7-0.8c-1.9,4.5-3.7,9.6-3.8,15.6
				c-0.1,2.9,0.6,3,0.6,3C20.8,42.2,18.7,42.2,18.2,39.8z"/>
		</g>
		<g>
			<path class="st2" d="M80,31.9c-0.1,0.4-1.7,2.3-3.4,1.7c0.1-2.1-1.2-6.1-4-5.9c-1.3,0.1-2.1,1.1-1.5,2.6c-2.7-0.2-4,1.2-4.7,2.7
				c-1.3,2.1-2.7,3.6-4.2,4.5c-0.8,0.6,0-1.8,1.1-4.8c1-2-0.8-3.7-1.1-4c0,0-0.1-0.1-0.1-0.2c-0.7-0.5-1.4-1.9-3.9,1.6
				c-2.3,3.2-3.6,5.8-3.5,5.6c0.2-1,2.9-4.7-1.8-6.1c-1.5-0.5-4.6,5.9-6,7.8c0-0.9,1-2.4,1.7-4.4c0.6-1.3-0.6-2-1.5-2.4
				c-0.6-0.2-0.9,0-1.2,0.3c-0.2,0.4-0.3,0.9-0.5,1.3c-1.2,2.2-4.1,5.7-7.1,5.8c-1.8,0.1-2-2.3-1.4-4.3c0.8-2.7,2-3.8,3-3.9
				c1.1-0.2-0.2,4.5-1.3,5.3c-0.4,0.3-1,0.5-1.3,0.2c-0.6,0.7,0.6,1.6,2.1,1c2.4-0.9,3.9-5.5,1.8-7.2c-0.3-0.3-0.8-0.5-1.4-0.5
				c-2.6-0.2-5.9,2-6.2,6.3c-0.2,2.9,1.7,4.1,4.4,4.3c2.4,0.1,4.8-1.6,6.5-3.6c-0.2,1.2,0,2.3,0.8,3c0.2,0.2,0.4,0.3,0.6,0.4
				c0,0,0,0,0,0l0.1,0v0c1.2,0.2,1.8-1,1.8-1c1.5-2.1,4.4-7.3,4.9-6.9c0.4,0.4-0.8,3-1.3,6.1c-0.4,2.5,2.3,2.1,2.3,2.1
				s1.8-3.1,4.7-7.1c1.5-2.2,2.1-2.8,2.4-2.7c-0.8,2.5-4.1,9,0.2,9.5c1.8,0.2,3.6-1.4,5-3.3c0.4,3,3.2,3.5,5.1,3.5
				c2.2,0,4.8-2.6,5.2-4.7c1.9,0.5,4.1-0.9,4.1-2.3C80.5,32,80.1,31.6,80,31.9z M71.1,37.8c-1.2,0.2-1.7-1.3-1.7-2.4
				c0-1.7,0.8-3.7,2.2-4.1c0.1,0.6,0.9,1.9,2.3,2.5C73.5,35.4,72.8,37.5,71.1,37.8z M74.1,32.7c-1.4-0.7-1.8-1.8-1.8-3.4
				c0-0.4,0.1-0.7,0.6-0.7c1.3,0,1.3,2.3,1.3,3.3C74.1,32.2,74.1,32.5,74.1,32.7z"/>
		</g>
	</g>
	<g class="st3">
		<path class="st2" d="M56.3,40.2h1.5c0.4,0,0.5,0.2,0.5,0.6l0.4,9.8h-1.3L57,41.2h-0.3l-2.3,7.6c-0.1,0.3-0.3,0.5-0.6,0.5h-1.2
			c-0.3,0-0.5-0.2-0.6-0.5l-2.3-7.6h-0.3l-0.4,9.3h-1.3l0.4-9.8c0-0.4,0.2-0.6,0.6-0.6h1.5c0.3,0,0.5,0.2,0.6,0.5l1.9,6.3
			c0.1,0.2,0.1,0.4,0.2,0.8c0.1,0.4,0.1,0.6,0.2,0.6h0.3c0-0.1,0.1-0.3,0.2-0.7c0.1-0.3,0.2-0.6,0.2-0.8l1.9-6.3
			C55.8,40.3,56,40.2,56.3,40.2z"/>
		<path class="st2" d="M66.6,47.3h-4.3l-1,3.2H60l3.3-10c0.1-0.2,0.2-0.4,0.5-0.4h1.4c0.3,0,0.4,0.1,0.5,0.4l3.3,10h-1.4L66.6,47.3z
			 M66.3,46.1L64.9,42c-0.1-0.3-0.2-0.5-0.3-0.8h-0.4L64,42l-1.3,4.1H66.3z"/>
		<path class="st2" d="M71.8,50.5h-1.3V40.2h1.3V50.5z"/>
		<path class="st2" d="M75.7,40.2v8.3c0,0.7,0.3,1,1,1h3.7l0.1,1c-0.9,0.1-2.2,0.1-4,0.1c-1.4,0-2.1-0.6-2.1-1.9v-8.4H75.7z"/>
	</g>
</g>
<line class="st4" x1="100" y1="15" x2="100" y2="55"/>
<g>
	<path class="st5" d="M160.1,21.5c-0.2,0.2-0.3,0.5-0.3,0.8v18.8h8.3V22.3c0-0.3-0.1-0.6-0.3-0.8c-0.2-0.2-0.4-0.4-0.7-0.4h-6.4
		C160.5,21.1,160.3,21.2,160.1,21.5 M221.6,25.3c-0.3,0.5-0.5,1.1-0.6,1.9h4.1c-0.1-0.9-0.3-1.7-0.7-2.2c-0.3-0.5-0.8-0.8-1.3-0.8
		C222.5,24.2,222,24.6,221.6,25.3z M247.3,19l0,1.2h4.4c0.3,0,0.6,0.1,0.8,0.3c0.2,0.2,0.3,0.5,0.3,0.9v4.3c0,0.3-0.1,0.6-0.3,0.9
		c-0.2,0.2-0.5,0.4-0.8,0.4h-4.4v8.4c0,0.5,0.1,0.9,0.3,1.1c0.2,0.3,0.4,0.4,0.7,0.4c0.7,0,1.3-0.1,1.8-0.3c0.5-0.2,0.9-0.3,1.2-0.5
		c0.2-0.1,0.3-0.1,0.5-0.1c0.2,0,0.4,0.1,0.6,0.2c0.3,0.2,0.5,0.6,0.5,1v3.8h-13.8c-0.5-1-0.8-2.4-0.8-4V26.9h-3.2
		c-0.3,0-0.6-0.1-0.8-0.4c-0.2-0.2-0.4-0.5-0.4-0.9v-4.3c0-0.3,0.1-0.6,0.4-0.9c0.2-0.2,0.5-0.3,0.8-0.3h3.2V19H247.3z M228.5,19
		c0.9,0.5,1.8,1.2,2.5,2c1.9,2.1,2.9,5,2.9,8.5v1.8c0,0.3-0.1,0.6-0.3,0.8c-0.2,0.2-0.5,0.4-0.8,0.4h-11.3c0.2,0.5,0.4,0.8,0.7,1
		c0.8,0.8,2.2,1.2,4.1,1.2c1,0,1.9-0.1,2.7-0.4c0.5-0.1,0.8-0.2,1.1-0.3c0.3-0.1,0.4-0.1,0.6-0.2c0.1-0.1,0.3-0.1,0.4-0.1
		c0.1,0,0.3,0,0.5,0.1c0.3,0.1,0.5,0.3,0.7,0.6l1.5,3.7l-0.5,1.4c-0.5,0.3-1,0.6-1.6,0.8c-0.6,0.2-1.2,0.4-1.9,0.6h-9.1
		c-1.9-0.5-3.5-1.4-4.8-2.7c-2.3-2.2-3.5-5.2-3.5-9.1c0-3.3,1-6.1,3.1-8.3c0.8-0.8,1.6-1.5,2.6-2H228.5z M199,19v6.3l6.3-6.3h10.3
		c0,0.1,0,0.3,0,0.5c0,0.3-0.2,0.5-0.4,0.7l-9,8.6l9.1,10.9c0.4,0.4,0.5,0.9,0.3,1.3c0,0.1-0.1,0.1-0.1,0.2h-9.3l-7.2-8.1v7.4
		c0,0.3-0.1,0.5-0.2,0.7H190c-0.2-0.2-0.3-0.4-0.3-0.7V19H199z M186.2,19c0.5,0.2,0.9,0.3,1.3,0.5c0.1,0.1,0.3,0.2,0.4,0.4
		c0.2,0.2,0.2,0.4,0.2,0.6l0.5,5.3c0.1,0.5-0.1,0.9-0.5,1.2c-0.2,0.1-0.4,0.2-0.6,0.2c-0.2,0-0.5-0.1-0.7-0.2
		c-0.2-0.2-0.5-0.3-0.9-0.5c-0.4-0.2-0.9-0.4-1.5-0.6c-1.1-0.4-2.1-0.6-3.1-0.6c-1.3,0-2.3,0.5-3,1.4c-0.7,0.9-1.1,2.2-1.1,3.9
		c0,1.5,0.4,2.5,1.2,3.2c0.8,0.7,2,1,3.6,1c0.9,0,1.9-0.2,3-0.6c0.4-0.2,0.8-0.3,1.1-0.4c0.3-0.1,0.5-0.2,0.7-0.2h-0.1
		c0.1-0.1,0.3-0.1,0.4-0.2c0.1,0,0.3-0.1,0.4-0.1c0.4,0,0.7,0.1,0.9,0.4c0.2,0.3,0.3,0.6,0.3,1l-0.7,5.3c0,0.1-0.1,0.3-0.2,0.5
		c-0.1,0.2-0.3,0.3-0.4,0.4c-0.2,0.1-0.6,0.3-1.1,0.4h-10.8c-1.2-0.5-2.3-1.2-3.3-2.2c-2.1-2.1-3.2-5-3.2-8.5c0-1.9,0.3-3.6,0.8-5.1
		c0.5-1.5,1.4-2.8,2.4-3.9c1-1,2.2-1.8,3.6-2.4H186.2z M168.1,19c0,0.3-0.1,0.5-0.3,0.8c-0.2,0.2-0.4,0.4-0.7,0.4h-6.4
		c-0.3,0-0.5-0.1-0.7-0.4c-0.2-0.2-0.3-0.5-0.3-0.8H168.1z M153.3,19l0,1.2h4.4c0.3,0,0.6,0.1,0.8,0.3c0.2,0.2,0.3,0.5,0.3,0.9v4.3
		c0,0.3-0.1,0.6-0.3,0.9c-0.2,0.2-0.5,0.4-0.8,0.4h-4.4v8.4c0,0.5,0.1,0.9,0.3,1.1c0.2,0.3,0.4,0.4,0.7,0.4c0.7,0,1.3-0.1,1.8-0.3
		c0.5-0.2,0.9-0.3,1.2-0.5c0.2-0.1,0.3-0.1,0.5-0.1c0.2,0,0.4,0.1,0.6,0.2c0.3,0.2,0.5,0.6,0.5,1v3.8h-13.8c-0.5-1-0.8-2.4-0.8-4
		V26.9h-3.2c-0.3,0-0.6-0.1-0.8-0.4c-0.2-0.2-0.4-0.5-0.4-0.9v-4.3c0-0.3,0.1-0.6,0.4-0.9c0.2-0.2,0.5-0.3,0.8-0.3h3.2V19H153.3z"/>
	<path class="st6" d="M150.2,46.2c-1,0-1.5-0.2-1.5-0.7h-2.2v2.8h-1.9v-3.5h0.3c0.5,0,0.9,0.1,1.4,0.4c0.5-0.3,1-0.4,1.7-0.4
		c0.6,0,1.1,0.1,1.5,0.2c0.7,0.2,1,0.5,1,0.9v0.4H150.2z"/>
	<path class="st6" d="M155.2,44.1h-0.9l0.5-1.8h1.2L155.2,44.1z M153.4,45.5v2.1h2.8v-2.1H153.4z M156.2,48.3h-2.9
		c-0.2,0-0.4,0-0.7-0.1c-0.8-0.1-1.1-0.4-1.1-1v-1.5c0-0.7,0.6-1,1.8-1h2.9c0.2,0,0.4,0,0.6,0c0.8,0.1,1.3,0.4,1.3,1v1.5
		C158,48,157.4,48.3,156.2,48.3z"/>
	<path class="st6" d="M161.5,48.3c-0.2,0-0.4,0-0.6,0c-0.6-0.1-0.9-0.3-0.9-0.7v-2.1h-1.1v-0.7h1.1v-1.4c0.6,0,0.9,0,1.1,0.1
		c0.5,0.1,0.8,0.3,0.8,0.6v0.8h1.4c0,0.1,0,0.2-0.1,0.3c-0.1,0.3-0.6,0.5-1.3,0.5v2.1h1.4C163.2,48.1,162.6,48.3,161.5,48.3"/>
	<path class="st6" d="M170,48.3h-0.3c-0.1,0-0.1,0-0.2,0c-0.4,0-0.8-0.1-1.2-0.3c-0.4,0.3-1,0.4-1.7,0.4c-0.6,0-1.1-0.1-1.5-0.2
		c-0.7-0.2-1.1-0.5-1.1-0.9v-2.5h0.6c0.1,0,0.3,0,0.5,0c0.6,0.1,0.9,0.3,0.9,0.7v2.1h2.2v-2.9h1.9V48.3z"/>
	<path class="st6" d="M171.9,48.3c-0.2,0-0.6,0.1-1.1,0.1v-5h1.9v4.2C172.7,47.9,172.4,48.1,171.9,48.3"/>
	<path class="st6" d="M175.4,45.5v2.1h2.8v-2.1H175.4z M178.2,48.3h-2.9c-0.2,0-0.4,0-0.7-0.1c-0.8-0.1-1.1-0.4-1.1-1v-1.5
		c0-0.7,0.6-1,1.8-1h2.9c0.2,0,0.4,0,0.6,0c0.8,0.1,1.3,0.4,1.3,1v1.5C180,48,179.4,48.3,178.2,48.3z"/>
	<path class="st6" d="M185.4,45.5h-2.7v0.7h2.7c1.2,0,1.8,0.3,1.8,0.8v0.5c0,0.6-0.6,0.8-1.9,0.8h-2.7c-1.3,0-1.9-0.3-1.9-0.9v-0.2
		h0.7c0.5,0,0.8,0.1,1,0.2c0.1,0.1,0.1,0.2,0.1,0.2h2.6v-0.7h-2.6c-0.6,0-0.9,0-1.2-0.1c-0.5-0.1-0.7-0.3-0.7-0.7v-0.6
		c0-0.6,0.6-0.9,1.9-0.9h2.7c0.4,0,0.8,0,1.1,0.1c0.5,0.1,0.8,0.4,0.8,0.7v0.4C186.1,45.9,185.5,45.8,185.4,45.5"/>
	<path class="st6" d="M192.7,45.5v0.7h2.8v-0.7H192.7z M197.2,47.9c-0.4,0.3-1,0.4-1.7,0.4h-2.8c-0.4,0-0.8-0.1-1.1-0.2
		c-0.5-0.2-0.7-0.4-0.7-0.7v-1.9c0-0.3,0.3-0.5,0.8-0.7c0.4-0.1,0.7-0.1,1.1-0.1h2.8c0.3,0,0.7,0,1.1,0.1c0.5,0.1,0.8,0.3,0.8,0.6
		v0.7c0,0.5-0.6,0.7-1.9,0.7h-2.8v0.7h4.7C197.4,47.7,197.3,47.8,197.2,47.9z"/>
	<path class="st6" d="M205.6,45.5h-2.7v0.7h2.7c1.2,0,1.8,0.3,1.8,0.8v0.5c0,0.6-0.6,0.8-1.9,0.8h-2.7c-1.3,0-1.9-0.3-1.9-0.9v-0.2
		h0.7c0.5,0,0.8,0.1,1,0.2c0.1,0.1,0.1,0.2,0.1,0.2h2.6v-0.7h-2.6c-0.5,0-0.9,0-1.2-0.1c-0.5-0.1-0.7-0.3-0.7-0.7v-0.6
		c0-0.6,0.6-0.9,1.9-0.9h2.7c0.4,0,0.8,0,1.1,0.1c0.5,0.1,0.8,0.4,0.8,0.7v0.4C206.3,45.9,205.7,45.8,205.6,45.5"/>
	<path class="st6" d="M210.2,45.5v2.1h2.8v-2.1H210.2z M213,48.3h-2.9c-0.2,0-0.4,0-0.7-0.1c-0.8-0.1-1.1-0.4-1.1-1v-1.5
		c0-0.7,0.6-1,1.8-1h2.9c0.2,0,0.4,0,0.6,0c0.8,0.1,1.3,0.4,1.3,1v1.5C214.8,48,214.2,48.3,213,48.3z"/>
	<path class="st6" d="M216.8,48.3c-0.2,0-0.6,0.1-1.1,0.1v-5h1.9v4.2C217.5,47.9,217.3,48.1,216.8,48.3"/>
	<path class="st6" d="M224.3,48.3H224c-0.1,0-0.1,0-0.2,0c-0.4,0-0.8-0.1-1.2-0.3c-0.4,0.3-1,0.4-1.7,0.4c-0.6,0-1.1-0.1-1.5-0.2
		c-0.7-0.2-1.1-0.5-1.1-0.9v-2.5h0.6c0.1,0,0.3,0,0.5,0c0.6,0.1,0.9,0.3,0.9,0.7v2.1h2.2v-2.9h1.9V48.3z"/>
	<path class="st6" d="M231.6,45.8c0,0.1-0.1,0.1-0.2,0.2c-0.3,0.2-0.9,0.3-1.6,0.3v-0.7H227v2h2.7l0-0.1c0-0.1,0.1-0.1,0.2-0.2
		c0.3-0.2,0.9-0.3,1.6-0.3v0.6c0,0.1,0,0.2-0.1,0.3c-0.3,0.3-0.9,0.5-1.7,0.5h-1.2v0.5h0.5c0.6,0,0.9,0.1,0.9,0.4v0.8
		c0,0.3-0.3,0.4-0.9,0.4h-1.5c-0.6,0-0.9-0.1-0.9-0.4v-0.7h0.1c0.6,0,0.9,0.1,0.9,0.4v0.3h1.3v-0.8h-1.3v-1H227c-0.2,0-0.5,0-0.7,0
		c-0.8-0.1-1.2-0.4-1.2-1v-1.7c0-0.6,0.6-0.9,1.9-0.9h2.8c1.2,0,1.8,0.2,1.9,0.7L231.6,45.8L231.6,45.8z"/>
	<path class="st6" d="M234.4,45.5v2.1h2.8v-2.1H234.4z M237.5,44.1c-0.1,0-0.1,0-0.2,0h-0.2c-0.3-0.1-0.5-0.1-0.6-0.1l-2.3-0.4v0.5
		h-1.2v-0.7c0-0.5,0.3-0.7,1-0.7c0.1,0,0.4,0,0.8,0.1l2.2,0.4v-0.5h1.3v0.6C238.4,43.8,238.1,44,237.5,44.1z M237.2,48.3h-2.9
		c-0.2,0-0.4,0-0.7-0.1c-0.8-0.1-1.1-0.4-1.1-1v-1.5c0-0.7,0.6-1,1.8-1h2.9c0.2,0,0.4,0,0.6,0c0.8,0.1,1.3,0.4,1.3,1v1.5
		C239,48,238.4,48.3,237.2,48.3z"/>
	<path class="st6" d="M241.7,45.5v0.7h2.8v-0.7H241.7z M246.1,47.9c-0.4,0.3-1,0.4-1.7,0.4h-2.8c-0.4,0-0.8-0.1-1.1-0.2
		c-0.5-0.2-0.7-0.4-0.7-0.7v-1.9c0-0.3,0.3-0.5,0.8-0.7c0.4-0.1,0.7-0.1,1.1-0.1h2.8c0.3,0,0.7,0,1.1,0.1c0.5,0.1,0.8,0.3,0.8,0.6
		v0.7c0,0.5-0.6,0.7-1.9,0.7h-2.8v0.7h4.7C246.3,47.7,246.3,47.8,246.1,47.9z"/>
	<path class="st6" d="M251.8,45.5H249v0.7h2.7c1.2,0,1.8,0.3,1.8,0.8v0.5c0,0.6-0.6,0.8-1.9,0.8H249c-1.3,0-1.9-0.3-1.9-0.9v-0.2
		h0.7c0.5,0,0.8,0.1,1,0.2c0.1,0.1,0.1,0.2,0.1,0.2h2.6v-0.7H249c-0.5,0-0.9,0-1.2-0.1c-0.5-0.1-0.7-0.3-0.7-0.7v-0.6
		c0-0.6,0.6-0.9,1.9-0.9h2.7c0.4,0,0.8,0,1.1,0.1c0.5,0.1,0.8,0.4,0.8,0.7v0.4C252.4,45.9,251.8,45.8,251.8,45.5"/>
	<path class="st7" d="M260.1,34.8c0,0.7,0.7,1,2,1c1,0,2-0.2,2.9-0.5c0.3-0.1,0.5-0.2,0.7-0.3c0.2-0.1,0.4-0.2,0.6-0.3v-1.9h-0.1
		C262.1,32.9,260.1,33.5,260.1,34.8 M129.4,25.7c-0.3,0.5-0.4,1.1-0.6,1.9h4.1c-0.1-0.9-0.3-1.7-0.7-2.2c-0.3-0.5-0.8-0.8-1.3-0.8
		C130.3,24.6,129.8,25,129.4,25.7z M269.9,19c0.9,0.3,1.7,0.8,2.3,1.3c0.9,0.8,1.6,1.8,2.1,3c0.4,1.2,0.7,2.7,0.7,4.5V36l0.3,0.2
		l0.3,0.2c0.3,0,0.5,0.1,0.7,0.2c0.2,0.1,0.3,0.3,0.4,0.5c0.1,0.2,0.1,0.4,0,0.7c-0.1,0.2-0.2,0.5-0.4,0.6l-3.1,2.6H269
		c-0.1-0.1-0.2-0.2-0.4-0.3c-0.2-0.2-0.4-0.3-0.5-0.4c-0.1-0.1-0.3-0.3-0.4-0.4c-0.8,0.4-1.7,0.8-2.7,1.1h-10.1
		c-0.5-0.3-1-0.6-1.5-1c-1.4-1.3-2.2-3.1-2.2-5.3c0-2.4,1.1-4.3,3.3-5.8c1.1-0.7,2.3-1.3,3.7-1.7c1.1-0.3,2.4-0.5,3.7-0.5
		c0.3,0,0.6,0,0.8,0l3.3,0.2c0-0.8-0.3-1.4-0.8-1.8c-0.5-0.4-1.3-0.6-2.2-0.6c-0.7,0-1.3,0.1-2,0.2c-0.6,0.1-1.3,0.3-1.9,0.6
		c-0.6,0.2-1.2,0.5-1.7,0.7c-0.5,0.2-1,0.4-1.4,0.6c-0.2,0.1-0.3,0.1-0.5,0.1c-0.1,0-0.3,0-0.4-0.1c-0.3-0.1-0.6-0.3-0.7-0.7
		l-1.5-3.5c-0.1-0.2-0.1-0.5,0-0.7c0.1-0.3,0.2-0.5,0.3-0.6c0.3-0.3,0.7-0.6,1.4-0.9c0.6-0.3,1.4-0.7,2.4-1.1
		c0.3-0.1,0.5-0.2,0.8-0.3H269.9z M135.6,19c1.2,0.6,2.3,1.4,3.3,2.4c1.9,2.1,2.9,5,2.9,8.5v1.8c0,0.3-0.1,0.6-0.3,0.8
		c-0.2,0.2-0.5,0.4-0.8,0.4h-11.3c0.2,0.5,0.4,0.8,0.7,1c0.8,0.8,2.2,1.2,4.1,1.2c1,0,1.9-0.1,2.7-0.4c0.5-0.1,0.8-0.2,1.1-0.3
		c0.3-0.1,0.4-0.1,0.6-0.2c0.1-0.1,0.3-0.1,0.4-0.1c0.1,0,0.3,0,0.5,0.1c0.3,0.1,0.5,0.3,0.7,0.6l1.5,3.7L141,40
		c-0.5,0.3-1,0.6-1.6,0.8c-0.2,0.1-0.3,0.1-0.5,0.2h-11.7c-1.4-0.5-2.6-1.3-3.7-2.3c-2.3-2.2-3.5-5.2-3.5-9.1c0-3.3,1-6.1,3.1-8.3
		c1-1,2.1-1.8,3.4-2.4H135.6z"/>
</g>
</svg>
