<?xml version="1.0" encoding="utf-8"?>
<!-- Generator: Adobe Illustrator 21.0.0, SVG Export Plug-In . SVG Version: 6.00 Build 0)  -->
<svg version="1.1" id="Layer_1" xmlns="http://www.w3.org/2000/svg" xmlns:xlink="http://www.w3.org/1999/xlink" x="0px" y="0px"
	 viewBox="0 0 133.3 300" style="enable-background:new 0 0 133.3 300;" xml:space="preserve">
<style type="text/css">
	.st0{fill:#7A2879;}
	.st1{fill-rule:evenodd;clip-rule:evenodd;fill:none;stroke:#7A2879;stroke-width:0.5102;stroke-miterlimit:22.9256;}
</style>
<g>
	<g>
		<path class="st0" d="M128.3,0.6c2.5,0,4.5,2.2,4.5,4.8v289.2c0,2.7-2,4.8-4.5,4.8H5.1c-2.5,0-4.5-2.2-4.5-4.8V5.4
			c0-2.7,2-4.8,4.5-4.8H128.3 M128.3,0H5.1C2.3,0,0,2.4,0,5.4v289.2c0,3,2.3,5.4,5.1,5.4h123.2c2.8,0,5.1-2.4,5.1-5.4V5.4
			C133.3,2.4,131.1,0,128.3,0L128.3,0z"/>
	</g>
	<g>
		<g>
			<line class="st1" x1="55.6" y1="105.6" x2="11.1" y2="105.6"/>
			<line class="st1" x1="122.2" y1="105.6" x2="77.8" y2="105.6"/>
			<line class="st1" x1="66.7" y1="116.7" x2="66.7" y2="150"/>
			<line class="st1" x1="66.7" y1="61.1" x2="66.7" y2="94.4"/>
			<g>
				<line class="st1" x1="58.8" y1="113.4" x2="27.4" y2="144.8"/>
				<line class="st1" x1="106" y1="66.3" x2="74.5" y2="97.7"/>
				<line class="st1" x1="74.5" y1="113.4" x2="106" y2="144.8"/>
				<line class="st1" x1="27.4" y1="66.3" x2="58.8" y2="97.7"/>
			</g>
		</g>
		<line class="st1" x1="66.7" y1="27.8" x2="66.7" y2="61.1"/>
		<line class="st1" x1="58.8" y1="24.5" x2="27.4" y2="56"/>
		<line class="st1" x1="74.5" y1="24.5" x2="106" y2="56"/>
		<g>
			<line class="st1" x1="55.6" y1="194.4" x2="11.1" y2="194.4"/>
			<line class="st1" x1="122.2" y1="194.4" x2="77.8" y2="194.4"/>
			<line class="st1" x1="66.7" y1="205.6" x2="66.7" y2="238.9"/>
			<line class="st1" x1="66.7" y1="150" x2="66.7" y2="183.3"/>
			<g>
				<line class="st1" x1="58.8" y1="202.3" x2="27.4" y2="233.7"/>
				<line class="st1" x1="106" y1="155.2" x2="74.5" y2="186.6"/>
				<line class="st1" x1="74.5" y1="202.3" x2="106" y2="233.7"/>
				<line class="st1" x1="27.4" y1="155.2" x2="58.8" y2="186.6"/>
			</g>
		</g>
		<line class="st1" x1="66.7" y1="238.9" x2="66.7" y2="272.2"/>
		<line class="st1" x1="106" y1="244" x2="74.5" y2="275.5"/>
		<line class="st1" x1="27.4" y1="244" x2="58.8" y2="275.5"/>
	</g>
</g>
</svg>
