<?xml version="1.0" encoding="utf-8"?>
<!-- Generator: Adobe Illustrator 21.0.0, SVG Export Plug-In . SVG Version: 6.00 Build 0)  -->
<svg version="1.1" id="Layer_1" xmlns="http://www.w3.org/2000/svg" xmlns:xlink="http://www.w3.org/1999/xlink" x="0px" y="0px"
	 viewBox="0 0 224 117" style="enable-background:new 0 0 224 117;" xml:space="preserve">
<style type="text/css">
	.st0{fill:none;stroke:#7A2879;stroke-width:0.5;stroke-miterlimit:22.9256;}
	.st1{fill:#7A2879;}
</style>
<rect x="1.7" y="4.6" class="st0" width="220.5" height="107.7"/>
<g>
	<path class="st1" d="M12,26.8v-6.4h1.9c0.5,0,0.8,0,1,0.1c0.3,0.1,0.5,0.3,0.7,0.6c0.2,0.3,0.3,0.7,0.3,1.1c0,0.6-0.1,1.1-0.4,1.4
		c-0.3,0.4-0.8,0.5-1.5,0.5h-1.3v2.6H12z M12.7,23.4H14c0.4,0,0.7-0.1,0.9-0.3s0.3-0.5,0.3-0.9c0-0.3,0-0.5-0.1-0.7
		c-0.1-0.2-0.2-0.3-0.3-0.4c-0.1-0.1-0.4-0.1-0.7-0.1h-1.3V23.4z"/>
	<path class="st1" d="M16.6,26.8v-4.7h0.6v0.7c0.1-0.3,0.3-0.5,0.4-0.7c0.1-0.1,0.3-0.2,0.4-0.2c0.2,0,0.4,0.1,0.6,0.3L18.4,23
		c-0.2-0.1-0.3-0.2-0.5-0.2c-0.1,0-0.3,0-0.4,0.1c-0.1,0.1-0.2,0.2-0.2,0.4c-0.1,0.3-0.1,0.6-0.1,1v2.4H16.6z"/>
	<path class="st1" d="M18.8,24.5c0-0.8,0.2-1.4,0.5-1.8s0.7-0.6,1.2-0.6c0.5,0,0.9,0.2,1.2,0.6c0.3,0.4,0.5,1,0.5,1.8
		c0,0.8-0.2,1.5-0.5,1.9c-0.3,0.4-0.7,0.6-1.2,0.6c-0.5,0-0.9-0.2-1.2-0.6C18.9,25.9,18.8,25.3,18.8,24.5 M19.4,24.5
		c0,0.6,0.1,1.1,0.3,1.3c0.2,0.3,0.5,0.4,0.8,0.4c0.3,0,0.5-0.1,0.8-0.4c0.2-0.3,0.3-0.7,0.3-1.3c0-0.6-0.1-1-0.3-1.3
		c-0.2-0.3-0.5-0.4-0.8-0.4c-0.3,0-0.5,0.1-0.8,0.4C19.5,23.4,19.4,23.9,19.4,24.5"/>
	<path class="st1" d="M25.3,26.8v-0.6c-0.1,0.2-0.3,0.4-0.4,0.5c-0.2,0.1-0.4,0.2-0.6,0.2c-0.4,0-0.8-0.2-1.1-0.6
		c-0.3-0.4-0.5-1-0.5-1.8c0-0.5,0.1-1,0.2-1.3c0.1-0.4,0.3-0.6,0.6-0.8c0.2-0.2,0.5-0.3,0.8-0.3c0.2,0,0.4,0.1,0.6,0.2
		c0.2,0.1,0.3,0.3,0.4,0.5v-2.3h0.6v6.4H25.3z M23.4,24.5c0,0.6,0.1,1.1,0.3,1.3c0.2,0.3,0.4,0.4,0.7,0.4c0.3,0,0.5-0.1,0.7-0.4
		c0.2-0.3,0.3-0.7,0.3-1.3c0-0.7-0.1-1.1-0.3-1.4c-0.2-0.3-0.4-0.5-0.7-0.5c-0.3,0-0.5,0.1-0.7,0.4C23.5,23.4,23.4,23.9,23.4,24.5"
		/>
	<path class="st1" d="M29.3,26.8v-0.7c-0.1,0.3-0.3,0.5-0.5,0.6c-0.2,0.1-0.4,0.2-0.7,0.2c-0.3,0-0.5-0.1-0.7-0.2
		c-0.2-0.2-0.3-0.4-0.4-0.6s-0.1-0.6-0.1-1v-2.9h0.6v2.6c0,0.5,0,0.8,0.1,1c0,0.2,0.1,0.3,0.3,0.4s0.3,0.1,0.4,0.1
		c0.3,0,0.5-0.1,0.7-0.4c0.2-0.2,0.2-0.6,0.2-1.2v-2.5h0.6v4.7H29.3z"/>
	<path class="st1" d="M32.2,26.1l0.1,0.7c-0.2,0-0.3,0.1-0.5,0.1c-0.2,0-0.4,0-0.5-0.1c-0.1-0.1-0.2-0.2-0.3-0.4
		c0-0.2-0.1-0.5-0.1-0.9v-2.7h-0.5v-0.6H31V21l0.6-0.5v1.6h0.6v0.6h-0.6v2.7c0,0.3,0,0.4,0.1,0.5c0.1,0.1,0.2,0.2,0.3,0.2
		C32,26.2,32.1,26.1,32.2,26.1"/>
	<path class="st1" d="M32.6,24.5c0-0.8,0.2-1.4,0.5-1.8s0.7-0.6,1.2-0.6c0.5,0,0.9,0.2,1.2,0.6c0.3,0.4,0.5,1,0.5,1.8
		c0,0.8-0.2,1.5-0.5,1.9c-0.3,0.4-0.7,0.6-1.2,0.6c-0.5,0-0.9-0.2-1.2-0.6C32.7,25.9,32.6,25.3,32.6,24.5 M33.2,24.5
		c0,0.6,0.1,1.1,0.3,1.3c0.2,0.3,0.5,0.4,0.8,0.4c0.3,0,0.5-0.1,0.8-0.4c0.2-0.3,0.3-0.7,0.3-1.3c0-0.6-0.1-1-0.3-1.3
		c-0.2-0.3-0.5-0.4-0.8-0.4c-0.3,0-0.5,0.1-0.8,0.4C33.3,23.4,33.2,23.9,33.2,24.5"/>
	<path class="st1" d="M36.9,22.2h0.7v0.9h-0.7V22.2z M36.9,25.9h0.7v0.9h-0.7V25.9z"/>
	<rect x="38.2" y="27.5" class="st1" width="4" height="0.4"/>
	<rect x="42.2" y="27.5" class="st1" width="4" height="0.4"/>
	<rect x="46.1" y="27.5" class="st1" width="4" height="0.4"/>
	<rect x="50" y="27.5" class="st1" width="4" height="0.4"/>
	<rect x="54" y="27.5" class="st1" width="4" height="0.4"/>
	<rect x="57.9" y="27.5" class="st1" width="4" height="0.4"/>
	<rect x="61.9" y="27.5" class="st1" width="4" height="0.4"/>
	<rect x="65.8" y="27.5" class="st1" width="4" height="0.4"/>
	<rect x="69.8" y="27.5" class="st1" width="4" height="0.4"/>
	<rect x="73.7" y="27.5" class="st1" width="4" height="0.4"/>
	<rect x="77.7" y="27.5" class="st1" width="4" height="0.4"/>
	<rect x="81.6" y="27.5" class="st1" width="4" height="0.4"/>
	<rect x="85.5" y="27.5" class="st1" width="4" height="0.4"/>
	<rect x="89.5" y="27.5" class="st1" width="4" height="0.4"/>
	<rect x="93.4" y="27.5" class="st1" width="4" height="0.4"/>
	<rect x="97.4" y="27.5" class="st1" width="4" height="0.4"/>
	<rect x="101.3" y="27.5" class="st1" width="4" height="0.4"/>
	<rect x="105.3" y="27.5" class="st1" width="4" height="0.4"/>
	<rect x="109.2" y="27.5" class="st1" width="4" height="0.4"/>
	<rect x="113.1" y="27.5" class="st1" width="4" height="0.4"/>
	<rect x="117.1" y="27.5" class="st1" width="4" height="0.4"/>
	<rect x="121" y="27.5" class="st1" width="4" height="0.4"/>
	<rect x="125" y="27.5" class="st1" width="4" height="0.4"/>
	<rect x="128.9" y="27.5" class="st1" width="4" height="0.4"/>
	<rect x="132.9" y="27.5" class="st1" width="4" height="0.4"/>
	<rect x="136.8" y="27.5" class="st1" width="4" height="0.4"/>
	<rect x="140.8" y="27.5" class="st1" width="4" height="0.4"/>
	<rect x="144.7" y="27.5" class="st1" width="4" height="0.4"/>
	<rect x="148.6" y="27.5" class="st1" width="4" height="0.4"/>
	<rect x="152.6" y="27.5" class="st1" width="4" height="0.4"/>
	<rect x="156.5" y="27.5" class="st1" width="4" height="0.4"/>
	<rect x="160.5" y="27.5" class="st1" width="4" height="0.4"/>
	<rect x="164.4" y="27.5" class="st1" width="4" height="0.4"/>
	<rect x="168.4" y="27.5" class="st1" width="4" height="0.4"/>
	<rect x="172.3" y="27.5" class="st1" width="4" height="0.4"/>
	<rect x="176.3" y="27.5" class="st1" width="4" height="0.4"/>
	<rect x="180.2" y="27.5" class="st1" width="4" height="0.4"/>
	<rect x="184.1" y="27.5" class="st1" width="4" height="0.4"/>
	<rect x="188.1" y="27.5" class="st1" width="4" height="0.4"/>
	<rect x="192" y="27.5" class="st1" width="4" height="0.4"/>
	<rect x="196" y="27.5" class="st1" width="4" height="0.4"/>
	<rect x="199.9" y="27.5" class="st1" width="4" height="0.4"/>
	<rect x="203.9" y="27.5" class="st1" width="4" height="0.4"/>
	<rect x="207.8" y="27.5" class="st1" width="4" height="0.4"/>
	<polygon class="st1" points="12.1,52 12.1,45.5 15.5,45.5 15.5,46.3 12.7,46.3 12.7,48.3 15.1,48.3 15.1,49 12.7,49 12.7,52 	"/>
	<path class="st1" d="M18.6,51.4c-0.2,0.2-0.4,0.4-0.7,0.5c-0.2,0.1-0.5,0.2-0.7,0.2c-0.4,0-0.7-0.1-0.9-0.4c-0.2-0.2-0.3-0.6-0.3-1
		c0-0.3,0.1-0.5,0.2-0.7c0.1-0.2,0.3-0.4,0.4-0.5c0.2-0.1,0.5-0.2,0.8-0.3c0.5-0.1,0.9-0.2,1.1-0.3l0-0.2c0-0.3-0.1-0.5-0.2-0.7
		c-0.2-0.2-0.4-0.3-0.7-0.3c-0.3,0-0.5,0.1-0.6,0.2c-0.1,0.1-0.2,0.4-0.3,0.7l-0.6-0.1c0.1-0.5,0.3-0.9,0.5-1.1
		c0.3-0.2,0.6-0.3,1.1-0.3c0.4,0,0.7,0.1,0.9,0.2c0.2,0.2,0.4,0.3,0.4,0.6c0.1,0.2,0.1,0.5,0.1,1V50c0,0.7,0,1.2,0,1.4
		c0,0.2,0.1,0.4,0.2,0.6h-0.6C18.7,51.8,18.7,51.6,18.6,51.4 M18.6,49.6c-0.2,0.1-0.6,0.2-1,0.3c-0.3,0-0.4,0.1-0.5,0.2
		c-0.1,0.1-0.2,0.1-0.2,0.3c-0.1,0.1-0.1,0.2-0.1,0.4c0,0.2,0.1,0.4,0.2,0.5c0.1,0.1,0.3,0.2,0.5,0.2c0.2,0,0.4-0.1,0.6-0.2
		c0.2-0.1,0.3-0.3,0.4-0.5c0.1-0.2,0.1-0.5,0.1-0.9V49.6z"/>
	<path class="st1" d="M20.8,52h-0.6v-6.4h0.6v2.3c0.1-0.2,0.3-0.4,0.4-0.5c0.2-0.1,0.4-0.2,0.6-0.2c0.3,0,0.5,0.1,0.8,0.3
		c0.2,0.2,0.4,0.5,0.6,0.8c0.1,0.4,0.2,0.8,0.2,1.3c0,0.8-0.2,1.4-0.5,1.8c-0.3,0.4-0.7,0.6-1.1,0.6c-0.2,0-0.4-0.1-0.6-0.2
		c-0.2-0.1-0.3-0.3-0.4-0.5V52z M20.8,49.6c0,0.5,0,0.8,0.1,1.1c0.1,0.2,0.2,0.4,0.4,0.5c0.2,0.1,0.3,0.2,0.5,0.2
		c0.3,0,0.5-0.1,0.7-0.4c0.2-0.3,0.3-0.8,0.3-1.3c0-0.6-0.1-1.1-0.3-1.3c-0.2-0.3-0.4-0.4-0.7-0.4c-0.3,0-0.5,0.1-0.7,0.5
		C20.9,48.6,20.8,49,20.8,49.6"/>
	<path class="st1" d="M24.1,52v-4.7h0.6V48c0.1-0.3,0.3-0.5,0.4-0.7c0.1-0.1,0.3-0.2,0.4-0.2c0.2,0,0.4,0.1,0.6,0.3l-0.2,0.7
		c-0.2-0.1-0.3-0.2-0.5-0.2c-0.1,0-0.3,0-0.4,0.1c-0.1,0.1-0.2,0.2-0.2,0.4c-0.1,0.3-0.1,0.6-0.1,1V52H24.1z"/>
	<path class="st1" d="M26.5,45.5h0.6v0.9h-0.6V45.5z M26.5,47.3h0.6V52h-0.6V47.3z"/>
	<path class="st1" d="M30.5,50.3l0.6,0.1c-0.1,0.6-0.2,1-0.5,1.3c-0.3,0.3-0.6,0.4-1,0.4c-0.5,0-0.9-0.2-1.2-0.6
		c-0.3-0.4-0.5-1-0.5-1.8c0-0.8,0.2-1.4,0.5-1.8s0.7-0.6,1.2-0.6c0.4,0,0.7,0.1,1,0.4c0.3,0.2,0.4,0.6,0.5,1.1l-0.6,0.1
		c-0.1-0.3-0.2-0.5-0.3-0.7c-0.1-0.2-0.3-0.2-0.5-0.2c-0.3,0-0.6,0.1-0.8,0.4c-0.2,0.3-0.3,0.7-0.3,1.3c0,0.6,0.1,1.1,0.3,1.4
		c0.2,0.3,0.4,0.4,0.7,0.4c0.2,0,0.4-0.1,0.6-0.3C30.3,51,30.4,50.7,30.5,50.3"/>
	<path class="st1" d="M34,51.4c-0.2,0.2-0.4,0.4-0.7,0.5c-0.2,0.1-0.5,0.2-0.7,0.2c-0.4,0-0.7-0.1-0.9-0.4c-0.2-0.2-0.3-0.6-0.3-1
		c0-0.3,0.1-0.5,0.2-0.7c0.1-0.2,0.3-0.4,0.4-0.5c0.2-0.1,0.5-0.2,0.8-0.3c0.5-0.1,0.9-0.2,1.1-0.3l0-0.2c0-0.3-0.1-0.5-0.2-0.7
		c-0.2-0.2-0.4-0.3-0.7-0.3c-0.3,0-0.5,0.1-0.6,0.2c-0.1,0.1-0.2,0.4-0.3,0.7l-0.6-0.1c0.1-0.5,0.3-0.9,0.5-1.1
		c0.3-0.2,0.6-0.3,1.1-0.3c0.4,0,0.7,0.1,0.9,0.2c0.2,0.2,0.4,0.3,0.4,0.6c0.1,0.2,0.1,0.5,0.1,1V50c0,0.7,0,1.2,0,1.4
		c0,0.2,0.1,0.4,0.2,0.6h-0.6C34.1,51.8,34,51.6,34,51.4 M34,49.6c-0.2,0.1-0.6,0.2-1,0.3c-0.3,0-0.4,0.1-0.5,0.2
		c-0.1,0.1-0.2,0.1-0.2,0.3c-0.1,0.1-0.1,0.2-0.1,0.4c0,0.2,0.1,0.4,0.2,0.5c0.1,0.1,0.3,0.2,0.5,0.2c0.2,0,0.4-0.1,0.6-0.2
		c0.2-0.1,0.3-0.3,0.4-0.5c0.1-0.2,0.1-0.5,0.1-0.9V49.6z"/>
	<path class="st1" d="M38,50.3l0.6,0.1c-0.1,0.6-0.2,1-0.5,1.3c-0.3,0.3-0.6,0.4-1,0.4c-0.5,0-0.9-0.2-1.2-0.6
		c-0.3-0.4-0.5-1-0.5-1.8c0-0.8,0.2-1.4,0.5-1.8c0.3-0.4,0.7-0.6,1.2-0.6c0.4,0,0.7,0.1,1,0.4c0.3,0.2,0.4,0.6,0.5,1.1l-0.6,0.1
		c-0.1-0.3-0.2-0.6-0.3-0.7c-0.1-0.2-0.3-0.2-0.5-0.2c-0.3,0-0.6,0.1-0.8,0.4C36.1,48.6,36,49,36,49.6c0,0.6,0.1,1.1,0.3,1.4
		c0.2,0.3,0.4,0.4,0.7,0.4c0.2,0,0.4-0.1,0.6-0.3C37.8,51,37.9,50.7,38,50.3 M36.7,52.6l0.2-0.8h0.5l-0.1,0.5c0.2,0,0.3,0.1,0.4,0.2
		c0.1,0.1,0.2,0.3,0.2,0.4c0,0.2-0.1,0.4-0.3,0.6c-0.2,0.2-0.4,0.2-0.7,0.2c-0.2,0-0.4,0-0.5-0.1l0-0.5c0.1,0,0.3,0,0.3,0
		c0.2,0,0.3,0,0.4-0.1c0.1-0.1,0.1-0.1,0.1-0.2c0-0.1,0-0.2-0.1-0.2C37,52.7,36.9,52.7,36.7,52.6"/>
	<path class="st1" d="M41.5,51.4c-0.2,0.2-0.4,0.4-0.7,0.5c-0.2,0.1-0.5,0.2-0.7,0.2c-0.4,0-0.7-0.1-0.9-0.4c-0.2-0.2-0.3-0.6-0.3-1
		c0-0.3,0.1-0.5,0.2-0.7c0.1-0.2,0.3-0.4,0.4-0.5c0.2-0.1,0.5-0.2,0.8-0.3c0.5-0.1,0.9-0.2,1.1-0.3l0-0.2c0-0.3-0.1-0.5-0.2-0.7
		c-0.2-0.2-0.4-0.3-0.7-0.3c-0.3,0-0.5,0.1-0.6,0.2c-0.1,0.1-0.2,0.4-0.3,0.7L39,48.6c0.1-0.5,0.3-0.9,0.5-1.1
		c0.3-0.2,0.6-0.3,1.1-0.3c0.4,0,0.7,0.1,0.9,0.2c0.2,0.2,0.4,0.3,0.4,0.6c0.1,0.2,0.1,0.5,0.1,1V50c0,0.7,0,1.2,0,1.4
		c0,0.2,0.1,0.4,0.2,0.6h-0.6C41.6,51.8,41.5,51.6,41.5,51.4 M39.4,46.7c0-0.3,0.1-0.6,0.2-0.7c0.1-0.2,0.3-0.3,0.5-0.3
		c0.1,0,0.3,0.1,0.6,0.2c0.1,0.1,0.2,0.1,0.3,0.1c0.1,0,0.1,0,0.2-0.1c0-0.1,0.1-0.2,0.1-0.3h0.5c0,0.3-0.1,0.6-0.2,0.8
		c-0.1,0.2-0.3,0.2-0.5,0.2c-0.1,0-0.3-0.1-0.6-0.2c-0.2-0.1-0.3-0.2-0.3-0.2c-0.1,0-0.1,0-0.2,0.1c-0.1,0.1-0.1,0.2-0.1,0.3H39.4z
		 M41.5,49.6c-0.2,0.1-0.6,0.2-1,0.3c-0.3,0-0.4,0.1-0.5,0.2c-0.1,0.1-0.2,0.1-0.2,0.3c-0.1,0.1-0.1,0.2-0.1,0.4
		c0,0.2,0.1,0.4,0.2,0.5c0.1,0.1,0.3,0.2,0.5,0.2c0.2,0,0.4-0.1,0.6-0.2c0.2-0.1,0.3-0.3,0.4-0.5c0.1-0.2,0.1-0.5,0.1-0.9V49.6z"/>
	<path class="st1" d="M42.8,49.6c0-0.8,0.2-1.4,0.5-1.8s0.7-0.6,1.2-0.6c0.5,0,0.9,0.2,1.2,0.6c0.3,0.4,0.5,1,0.5,1.8
		c0,0.8-0.2,1.5-0.5,1.9c-0.3,0.4-0.7,0.6-1.2,0.6c-0.5,0-0.9-0.2-1.2-0.6C43,51,42.8,50.4,42.8,49.6 M43.5,49.6
		c0,0.6,0.1,1.1,0.3,1.3c0.2,0.3,0.5,0.4,0.8,0.4c0.3,0,0.5-0.1,0.8-0.4c0.2-0.3,0.3-0.7,0.3-1.3c0-0.6-0.1-1-0.3-1.3
		c-0.2-0.3-0.5-0.4-0.8-0.4c-0.3,0-0.5,0.1-0.8,0.4C43.6,48.6,43.5,49,43.5,49.6"/>
	<path class="st1" d="M47.2,47.3h0.7v0.9h-0.7V47.3z M47.2,51.1h0.7V52h-0.7V51.1z"/>
	<rect x="50.4" y="52.6" class="st1" width="4" height="0.4"/>
	<rect x="54.4" y="52.6" class="st1" width="4" height="0.4"/>
	<rect x="58.3" y="52.6" class="st1" width="4" height="0.4"/>
	<rect x="62.3" y="52.6" class="st1" width="4" height="0.4"/>
	<rect x="66.2" y="52.6" class="st1" width="4" height="0.4"/>
	<polygon class="st1" points="70.2,52.1 71.7,45.4 72.2,45.4 70.7,52.1 	"/>
	<rect x="72.1" y="52.6" class="st1" width="4" height="0.4"/>
	<rect x="76.1" y="52.6" class="st1" width="4" height="0.4"/>
	<rect x="80" y="52.6" class="st1" width="4" height="0.4"/>
	<rect x="84" y="52.6" class="st1" width="4" height="0.4"/>
	<rect x="87.9" y="52.6" class="st1" width="4" height="0.4"/>
	<polygon class="st1" points="91.9,52.1 93.4,45.4 93.9,45.4 92.4,52.1 	"/>
	<rect x="93.8" y="52.6" class="st1" width="4" height="0.4"/>
	<rect x="97.8" y="52.6" class="st1" width="4" height="0.4"/>
	<rect x="101.7" y="52.6" class="st1" width="4" height="0.4"/>
	<rect x="105.6" y="52.6" class="st1" width="4" height="0.4"/>
	<rect x="109.6" y="52.6" class="st1" width="4" height="0.4"/>
	<path class="st1" d="M119.5,52l-2-6.4h0.7l1.3,4.7c0.1,0.4,0.2,0.7,0.3,1.1c0.1-0.4,0.2-0.7,0.3-1.1l1.4-4.7h0.7l-2,6.4H119.5z"/>
	<path class="st1" d="M124.6,51.4c-0.2,0.2-0.4,0.4-0.7,0.5c-0.2,0.1-0.5,0.2-0.7,0.2c-0.4,0-0.7-0.1-0.9-0.4
		c-0.2-0.2-0.3-0.6-0.3-1c0-0.3,0.1-0.5,0.2-0.7c0.1-0.2,0.3-0.4,0.4-0.5s0.5-0.2,0.8-0.3c0.5-0.1,0.9-0.2,1.1-0.3l0-0.2
		c0-0.3-0.1-0.5-0.2-0.7c-0.2-0.2-0.4-0.3-0.7-0.3c-0.3,0-0.5,0.1-0.6,0.2c-0.1,0.1-0.2,0.4-0.3,0.7l-0.6-0.1
		c0.1-0.5,0.3-0.9,0.5-1.1c0.3-0.2,0.6-0.3,1.1-0.3c0.4,0,0.7,0.1,0.9,0.2c0.2,0.2,0.4,0.3,0.4,0.6c0.1,0.2,0.1,0.5,0.1,1V50
		c0,0.7,0,1.2,0,1.4c0,0.2,0.1,0.4,0.2,0.6h-0.6C124.6,51.8,124.6,51.6,124.6,51.4 M124.5,49.6c-0.2,0.1-0.6,0.2-1,0.3
		c-0.3,0-0.4,0.1-0.5,0.2c-0.1,0.1-0.2,0.1-0.2,0.3c-0.1,0.1-0.1,0.2-0.1,0.4c0,0.2,0.1,0.4,0.2,0.5c0.1,0.1,0.3,0.2,0.5,0.2
		c0.2,0,0.4-0.1,0.6-0.2c0.2-0.1,0.3-0.3,0.4-0.5c0.1-0.2,0.1-0.5,0.1-0.9V49.6z"/>
	<rect x="126.1" y="45.5" class="st1" width="0.6" height="6.4"/>
	<path class="st1" d="M127.7,45.5h0.6v0.9h-0.6V45.5z M127.7,47.3h0.6V52h-0.6V47.3z"/>
	<path class="st1" d="M131.7,52v-0.6c-0.1,0.2-0.3,0.4-0.4,0.5c-0.2,0.1-0.4,0.2-0.6,0.2c-0.4,0-0.8-0.2-1.1-0.6
		c-0.3-0.4-0.5-1-0.5-1.8c0-0.5,0.1-1,0.2-1.3c0.1-0.4,0.3-0.6,0.6-0.8c0.2-0.2,0.5-0.3,0.8-0.3c0.2,0,0.4,0.1,0.6,0.2
		s0.3,0.3,0.4,0.5v-2.3h0.6V52H131.7z M129.7,49.6c0,0.6,0.1,1.1,0.3,1.3c0.2,0.3,0.4,0.4,0.7,0.4c0.3,0,0.5-0.1,0.7-0.4
		c0.2-0.3,0.3-0.7,0.3-1.3c0-0.7-0.1-1.1-0.3-1.4c-0.2-0.3-0.4-0.5-0.7-0.5c-0.3,0-0.5,0.1-0.7,0.4C129.8,48.6,129.7,49,129.7,49.6"
		/>
	<path class="st1" d="M135.6,51.4c-0.2,0.2-0.4,0.4-0.7,0.5c-0.2,0.1-0.5,0.2-0.7,0.2c-0.4,0-0.7-0.1-0.9-0.4
		c-0.2-0.2-0.3-0.6-0.3-1c0-0.3,0.1-0.5,0.2-0.7c0.1-0.2,0.3-0.4,0.4-0.5s0.5-0.2,0.8-0.3c0.5-0.1,0.9-0.2,1.1-0.3l0-0.2
		c0-0.3-0.1-0.5-0.2-0.7c-0.2-0.2-0.4-0.3-0.7-0.3c-0.3,0-0.5,0.1-0.6,0.2c-0.1,0.1-0.2,0.4-0.3,0.7l-0.6-0.1
		c0.1-0.5,0.3-0.9,0.5-1.1c0.3-0.2,0.6-0.3,1.1-0.3c0.4,0,0.7,0.1,0.9,0.2c0.2,0.2,0.4,0.3,0.4,0.6c0.1,0.2,0.1,0.5,0.1,1V50
		c0,0.7,0,1.2,0,1.4c0,0.2,0.1,0.4,0.2,0.6h-0.6C135.7,51.8,135.6,51.6,135.6,51.4 M135.6,49.6c-0.2,0.1-0.6,0.2-1,0.3
		c-0.3,0-0.4,0.1-0.5,0.2c-0.1,0.1-0.2,0.1-0.2,0.3c-0.1,0.1-0.1,0.2-0.1,0.4c0,0.2,0.1,0.4,0.2,0.5c0.1,0.1,0.3,0.2,0.5,0.2
		c0.2,0,0.4-0.1,0.6-0.2c0.2-0.1,0.3-0.3,0.4-0.5c0.1-0.2,0.1-0.5,0.1-0.9V49.6z"/>
	<path class="st1" d="M139.6,52v-0.6c-0.1,0.2-0.3,0.4-0.4,0.5c-0.2,0.1-0.4,0.2-0.6,0.2c-0.4,0-0.8-0.2-1.1-0.6
		c-0.3-0.4-0.5-1-0.5-1.8c0-0.5,0.1-1,0.2-1.3c0.1-0.4,0.3-0.6,0.6-0.8c0.2-0.2,0.5-0.3,0.8-0.3c0.2,0,0.4,0.1,0.6,0.2
		s0.3,0.3,0.4,0.5v-2.3h0.6V52H139.6z M137.6,49.6c0,0.6,0.1,1.1,0.3,1.3c0.2,0.3,0.4,0.4,0.7,0.4c0.3,0,0.5-0.1,0.7-0.4
		c0.2-0.3,0.3-0.7,0.3-1.3c0-0.7-0.1-1.1-0.3-1.4c-0.2-0.3-0.4-0.5-0.7-0.5c-0.3,0-0.5,0.1-0.7,0.4C137.7,48.6,137.6,49,137.6,49.6"
		/>
	<path class="st1" d="M143.6,50.5l0.6,0.1c-0.1,0.5-0.3,0.9-0.6,1.1c-0.3,0.3-0.6,0.4-1,0.4c-0.5,0-0.9-0.2-1.3-0.6
		c-0.3-0.4-0.5-1-0.5-1.8c0-0.8,0.2-1.4,0.5-1.8c0.3-0.4,0.7-0.6,1.2-0.6c0.5,0,0.9,0.2,1.2,0.6c0.3,0.4,0.5,1,0.5,1.8l0,0.2h-2.7
		c0,0.5,0.1,0.9,0.4,1.2c0.2,0.3,0.5,0.4,0.8,0.4C143.1,51.4,143.4,51.1,143.6,50.5 M141.6,49.2h2.1c0-0.4-0.1-0.7-0.2-0.9
		c-0.2-0.3-0.5-0.4-0.8-0.4c-0.3,0-0.5,0.1-0.7,0.4C141.7,48.5,141.6,48.8,141.6,49.2"/>
	<path class="st1" d="M145.3,47.3h0.7v0.9h-0.7V47.3z M145.3,51.1h0.7V52h-0.7V51.1z"/>
	<rect x="148.5" y="52.6" class="st1" width="4" height="0.4"/>
	<rect x="152.4" y="52.6" class="st1" width="4" height="0.4"/>
	<rect x="156.4" y="52.6" class="st1" width="4" height="0.4"/>
	<rect x="160.3" y="52.6" class="st1" width="4" height="0.4"/>
	<rect x="164.3" y="52.6" class="st1" width="4" height="0.4"/>
	<polygon class="st1" points="168.3,52.1 169.7,45.4 170.2,45.4 168.8,52.1 	"/>
	<rect x="170.2" y="52.6" class="st1" width="4" height="0.4"/>
	<rect x="174.1" y="52.6" class="st1" width="4" height="0.4"/>
	<rect x="178.1" y="52.6" class="st1" width="4" height="0.4"/>
	<rect x="182" y="52.6" class="st1" width="4" height="0.4"/>
	<rect x="186" y="52.6" class="st1" width="4" height="0.4"/>
	<polygon class="st1" points="190,52.1 191.4,45.4 191.9,45.4 190.5,52.1 	"/>
	<rect x="191.9" y="52.6" class="st1" width="4" height="0.4"/>
	<rect x="195.8" y="52.6" class="st1" width="4" height="0.4"/>
	<rect x="199.8" y="52.6" class="st1" width="4" height="0.4"/>
	<rect x="203.7" y="52.6" class="st1" width="4" height="0.4"/>
	<rect x="207.7" y="52.6" class="st1" width="4" height="0.4"/>
	<path class="st1" d="M12,77.1v-6.4h2.3c0.5,0,0.8,0.1,1,0.2c0.2,0.1,0.4,0.3,0.6,0.6c0.1,0.3,0.2,0.6,0.2,1c0,0.5-0.1,0.9-0.4,1.2
		c-0.2,0.3-0.6,0.5-1.1,0.6c0.2,0.1,0.3,0.2,0.4,0.4c0.2,0.2,0.4,0.5,0.5,0.8l0.9,1.8h-0.8L15,75.8c-0.3-0.5-0.5-0.9-0.6-1.1
		c-0.1-0.2-0.3-0.3-0.4-0.4c-0.1-0.1-0.3-0.1-0.5-0.1h-0.8v2.9H12z M12.7,73.5h1.4c0.3,0,0.6,0,0.7-0.1c0.2-0.1,0.3-0.2,0.4-0.4
		c0.1-0.2,0.1-0.4,0.1-0.6c0-0.3-0.1-0.6-0.3-0.8c-0.2-0.2-0.5-0.3-0.8-0.3h-1.6V73.5z"/>
	<path class="st1" d="M19.5,75.6l0.6,0.1c-0.1,0.5-0.3,0.9-0.6,1.1c-0.3,0.3-0.6,0.4-1,0.4c-0.5,0-0.9-0.2-1.3-0.6
		c-0.3-0.4-0.5-1-0.5-1.8c0-0.8,0.2-1.4,0.5-1.8c0.3-0.4,0.7-0.6,1.2-0.6c0.5,0,0.9,0.2,1.2,0.6c0.3,0.4,0.5,1,0.5,1.8l0,0.2h-2.7
		c0,0.5,0.1,0.9,0.4,1.2c0.2,0.3,0.5,0.4,0.8,0.4C19,76.6,19.4,76.3,19.5,75.6 M17.5,74.3h2.1c0-0.4-0.1-0.7-0.2-0.9
		c-0.2-0.3-0.5-0.4-0.8-0.4c-0.3,0-0.5,0.1-0.7,0.4C17.6,73.6,17.5,73.9,17.5,74.3"/>
	<path class="st1" d="M20.7,75.7l0.6-0.1c0,0.3,0.1,0.6,0.3,0.7c0.2,0.2,0.4,0.2,0.6,0.2c0.3,0,0.5-0.1,0.6-0.2
		c0.1-0.1,0.2-0.3,0.2-0.5c0-0.2-0.1-0.3-0.2-0.4c-0.1-0.1-0.3-0.2-0.6-0.3c-0.5-0.2-0.8-0.3-1-0.4c-0.2-0.1-0.3-0.3-0.4-0.4
		c-0.1-0.2-0.1-0.4-0.1-0.6c0-0.4,0.1-0.7,0.4-1c0.2-0.2,0.6-0.4,1-0.4c0.3,0,0.5,0.1,0.7,0.2c0.2,0.1,0.4,0.2,0.5,0.4
		c0.1,0.2,0.2,0.4,0.2,0.7L23,73.8C23,73.3,22.7,73,22.2,73c-0.3,0-0.5,0.1-0.6,0.2c-0.1,0.1-0.2,0.3-0.2,0.4c0,0.2,0.1,0.3,0.2,0.4
		c0.1,0.1,0.3,0.2,0.7,0.3c0.5,0.2,0.9,0.3,1,0.4c0.2,0.1,0.3,0.2,0.4,0.4c0.1,0.2,0.1,0.4,0.1,0.6c0,0.4-0.1,0.8-0.4,1.1
		c-0.3,0.3-0.6,0.4-1.1,0.4C21.4,77.2,20.9,76.7,20.7,75.7"/>
	<path class="st1" d="M24.5,78.9v-6.5h0.6v0.6c0.1-0.3,0.3-0.4,0.5-0.5c0.2-0.1,0.4-0.2,0.6-0.2c0.3,0,0.6,0.1,0.8,0.3
		c0.2,0.2,0.4,0.5,0.6,0.8c0.1,0.4,0.2,0.8,0.2,1.3c0,0.8-0.2,1.4-0.5,1.8c-0.3,0.4-0.7,0.6-1.1,0.6c-0.2,0-0.4-0.1-0.5-0.2
		c-0.2-0.1-0.3-0.2-0.4-0.4v2.3H24.5z M25.1,74.8c0,0.6,0.1,1,0.3,1.3c0.2,0.3,0.4,0.4,0.7,0.4c0.3,0,0.5-0.1,0.7-0.4
		c0.2-0.3,0.3-0.8,0.3-1.4c0-0.6-0.1-1.1-0.3-1.4c-0.2-0.3-0.4-0.4-0.7-0.4c-0.3,0-0.5,0.2-0.7,0.5C25.2,73.8,25.1,74.2,25.1,74.8"
		/>
	<path class="st1" d="M28.2,74.8c0-0.8,0.2-1.4,0.5-1.8s0.7-0.6,1.2-0.6c0.5,0,0.9,0.2,1.2,0.6c0.3,0.4,0.5,1,0.5,1.8
		c0,0.8-0.2,1.5-0.5,1.9c-0.3,0.4-0.7,0.6-1.2,0.6c-0.5,0-0.9-0.2-1.2-0.6C28.4,76.2,28.2,75.6,28.2,74.8 M28.9,74.8
		c0,0.6,0.1,1.1,0.3,1.3c0.2,0.3,0.5,0.4,0.8,0.4c0.3,0,0.5-0.1,0.8-0.4c0.2-0.3,0.3-0.7,0.3-1.3c0-0.6-0.1-1-0.3-1.3
		c-0.2-0.3-0.5-0.4-0.8-0.4c-0.3,0-0.5,0.1-0.8,0.4C29,73.7,28.9,74.2,28.9,74.8"/>
	<path class="st1" d="M32.4,77.1v-4.7H33v0.7c0.1-0.3,0.3-0.4,0.5-0.6c0.2-0.1,0.4-0.2,0.7-0.2c0.2,0,0.4,0,0.5,0.1
		c0.2,0.1,0.3,0.2,0.4,0.3c0.1,0.1,0.2,0.3,0.2,0.5c0.1,0.2,0.1,0.5,0.1,1v2.9h-0.6v-2.8c0-0.3,0-0.6-0.1-0.8
		c-0.1-0.2-0.1-0.3-0.3-0.4C34.3,73.1,34.2,73,34,73c-0.3,0-0.5,0.1-0.7,0.3C33.1,73.6,33,74,33,74.6v2.6H32.4z"/>
	<path class="st1" d="M36.1,75.7l0.6-0.1c0,0.3,0.1,0.6,0.3,0.7c0.2,0.2,0.4,0.2,0.6,0.2c0.3,0,0.5-0.1,0.6-0.2
		c0.1-0.1,0.2-0.3,0.2-0.5c0-0.2-0.1-0.3-0.2-0.4c-0.1-0.1-0.3-0.2-0.6-0.3c-0.5-0.2-0.8-0.3-1-0.4c-0.2-0.1-0.3-0.3-0.4-0.4
		c-0.1-0.2-0.1-0.4-0.1-0.6c0-0.4,0.1-0.7,0.4-1c0.2-0.2,0.6-0.4,1-0.4c0.3,0,0.5,0.1,0.7,0.2c0.2,0.1,0.4,0.2,0.5,0.4
		c0.1,0.2,0.2,0.4,0.2,0.7l-0.6,0.1c-0.1-0.5-0.3-0.8-0.8-0.8c-0.3,0-0.5,0.1-0.6,0.2c-0.1,0.1-0.2,0.3-0.2,0.4
		c0,0.2,0.1,0.3,0.2,0.4c0.1,0.1,0.3,0.2,0.7,0.3c0.5,0.2,0.9,0.3,1,0.4c0.2,0.1,0.3,0.2,0.4,0.4c0.1,0.2,0.1,0.4,0.1,0.6
		c0,0.4-0.1,0.8-0.4,1.1c-0.3,0.3-0.6,0.4-1.1,0.4C36.8,77.2,36.3,76.7,36.1,75.7"/>
	<path class="st1" d="M42.3,76.5c-0.2,0.2-0.4,0.4-0.7,0.5c-0.2,0.1-0.5,0.2-0.7,0.2c-0.4,0-0.7-0.1-0.9-0.4c-0.2-0.2-0.3-0.6-0.3-1
		c0-0.3,0.1-0.5,0.2-0.7c0.1-0.2,0.3-0.4,0.4-0.5c0.2-0.1,0.5-0.2,0.8-0.3c0.5-0.1,0.9-0.2,1.1-0.3l0-0.2c0-0.3-0.1-0.5-0.2-0.7
		c-0.2-0.2-0.4-0.3-0.7-0.3c-0.3,0-0.5,0.1-0.6,0.2c-0.1,0.1-0.2,0.4-0.3,0.7l-0.6-0.1c0.1-0.5,0.3-0.9,0.5-1.1
		c0.3-0.2,0.6-0.3,1.1-0.3c0.4,0,0.7,0.1,0.9,0.2c0.2,0.2,0.4,0.3,0.4,0.6c0.1,0.2,0.1,0.5,0.1,1v1.1c0,0.7,0,1.2,0,1.4
		c0,0.2,0.1,0.4,0.2,0.6h-0.6C42.4,77,42.3,76.8,42.3,76.5 M42.2,74.8c-0.2,0.1-0.6,0.2-1,0.3c-0.3,0-0.4,0.1-0.5,0.2
		s-0.2,0.1-0.2,0.3c-0.1,0.1-0.1,0.2-0.1,0.4c0,0.2,0.1,0.4,0.2,0.5c0.1,0.1,0.3,0.2,0.5,0.2c0.2,0,0.4-0.1,0.6-0.2
		c0.2-0.1,0.3-0.3,0.4-0.5c0.1-0.2,0.1-0.5,0.1-0.9V74.8z M40.9,71.9l0.5-1.2h0.8l-0.8,1.2H40.9z"/>
	<path class="st1" d="M44.9,77.1l-1.4-4.7h0.7l0.8,2.8c0.1,0.3,0.2,0.6,0.2,0.9c0.1-0.2,0.1-0.5,0.2-0.9l0.8-2.8h0.6l-1.4,4.7H44.9z
		"/>
	<path class="st1" d="M49.9,75.6l0.6,0.1c-0.1,0.5-0.3,0.9-0.6,1.1c-0.3,0.3-0.6,0.4-1,0.4c-0.5,0-0.9-0.2-1.3-0.6
		c-0.3-0.4-0.5-1-0.5-1.8c0-0.8,0.2-1.4,0.5-1.8c0.3-0.4,0.7-0.6,1.2-0.6c0.5,0,0.9,0.2,1.2,0.6c0.3,0.4,0.5,1,0.5,1.8l0,0.2h-2.7
		c0,0.5,0.1,0.9,0.4,1.2c0.2,0.3,0.5,0.4,0.8,0.4C49.4,76.6,49.7,76.3,49.9,75.6 M47.9,74.3h2.1c0-0.4-0.1-0.7-0.2-0.9
		c-0.2-0.3-0.5-0.4-0.8-0.4c-0.3,0-0.5,0.1-0.7,0.4C48,73.6,47.9,73.9,47.9,74.3"/>
	<rect x="51.3" y="70.7" class="st1" width="0.6" height="6.4"/>
	<path class="st1" d="M53.1,72.5h0.7v0.9h-0.7V72.5z M53.1,76.2h0.7v0.9h-0.7V76.2z"/>
	<rect x="54.4" y="77.8" class="st1" width="4" height="0.4"/>
	<rect x="58.3" y="77.8" class="st1" width="4" height="0.4"/>
	<rect x="62.3" y="77.8" class="st1" width="4" height="0.4"/>
	<rect x="66.2" y="77.8" class="st1" width="4" height="0.4"/>
	<rect x="70.2" y="77.8" class="st1" width="4" height="0.4"/>
	<rect x="74.1" y="77.8" class="st1" width="4" height="0.4"/>
	<rect x="78" y="77.8" class="st1" width="4" height="0.4"/>
	<rect x="82" y="77.8" class="st1" width="4" height="0.4"/>
	<rect x="85.9" y="77.8" class="st1" width="4" height="0.4"/>
	<rect x="89.9" y="77.8" class="st1" width="4" height="0.4"/>
	<rect x="93.8" y="77.8" class="st1" width="4" height="0.4"/>
	<rect x="97.8" y="77.8" class="st1" width="4" height="0.4"/>
	<rect x="101.7" y="77.8" class="st1" width="4" height="0.4"/>
	<rect x="105.6" y="77.8" class="st1" width="4" height="0.4"/>
	<rect x="109.6" y="77.8" class="st1" width="4" height="0.4"/>
	<rect x="113.5" y="77.8" class="st1" width="4" height="0.4"/>
	<rect x="117.5" y="77.8" class="st1" width="4" height="0.4"/>
	<rect x="121.4" y="77.8" class="st1" width="4" height="0.4"/>
	<rect x="125.4" y="77.8" class="st1" width="4" height="0.4"/>
	<rect x="129.3" y="77.8" class="st1" width="4" height="0.4"/>
	<rect x="133.3" y="77.8" class="st1" width="4" height="0.4"/>
	<rect x="137.2" y="77.8" class="st1" width="4" height="0.4"/>
	<rect x="141.1" y="77.8" class="st1" width="4" height="0.4"/>
	<rect x="145.1" y="77.8" class="st1" width="4" height="0.4"/>
	<rect x="149" y="77.8" class="st1" width="4" height="0.4"/>
	<rect x="153" y="77.8" class="st1" width="4" height="0.4"/>
	<rect x="156.9" y="77.8" class="st1" width="4" height="0.4"/>
	<rect x="160.9" y="77.8" class="st1" width="4" height="0.4"/>
	<rect x="164.8" y="77.8" class="st1" width="4" height="0.4"/>
	<rect x="168.8" y="77.8" class="st1" width="4" height="0.4"/>
	<rect x="172.7" y="77.8" class="st1" width="4" height="0.4"/>
	<rect x="176.6" y="77.8" class="st1" width="4" height="0.4"/>
	<rect x="180.6" y="77.8" class="st1" width="4" height="0.4"/>
	<rect x="184.5" y="77.8" class="st1" width="4" height="0.4"/>
	<rect x="188.5" y="77.8" class="st1" width="4" height="0.4"/>
	<rect x="192.4" y="77.8" class="st1" width="4" height="0.4"/>
	<rect x="196.4" y="77.8" class="st1" width="4" height="0.4"/>
	<rect x="200.3" y="77.8" class="st1" width="4" height="0.4"/>
	<rect x="204.3" y="77.8" class="st1" width="4" height="0.4"/>
	<rect x="208.2" y="77.8" class="st1" width="4" height="0.4"/>
	<path class="st1" d="M15.6,94.8l0.7,0.2c-0.2,0.7-0.4,1.3-0.8,1.6c-0.4,0.4-0.8,0.5-1.4,0.5c-0.5,0-0.9-0.1-1.2-0.4
		c-0.3-0.2-0.6-0.6-0.8-1.2c-0.2-0.5-0.3-1.1-0.3-1.9c0-0.7,0.1-1.3,0.3-1.8c0.2-0.5,0.5-0.9,0.9-1.1c0.4-0.3,0.8-0.4,1.2-0.4
		c0.5,0,0.9,0.2,1.3,0.5c0.4,0.3,0.6,0.8,0.7,1.4l-0.7,0.2c-0.2-0.9-0.7-1.3-1.4-1.3c-0.3,0-0.6,0.1-0.9,0.3
		c-0.2,0.2-0.4,0.5-0.6,0.8c-0.1,0.4-0.2,0.9-0.2,1.4c0,0.9,0.1,1.5,0.4,2c0.3,0.4,0.7,0.7,1.2,0.7c0.4,0,0.7-0.1,0.9-0.4
		C15.3,95.7,15.5,95.3,15.6,94.8"/>
	<path class="st1" d="M16.8,94.7c0-0.8,0.2-1.4,0.5-1.8s0.7-0.6,1.2-0.6c0.5,0,0.9,0.2,1.2,0.6c0.3,0.4,0.5,1,0.5,1.8
		c0,0.8-0.2,1.5-0.5,1.9c-0.3,0.4-0.7,0.6-1.2,0.6c-0.5,0-0.9-0.2-1.2-0.6C17,96.1,16.8,95.5,16.8,94.7 M17.4,94.7
		c0,0.6,0.1,1.1,0.3,1.3c0.2,0.3,0.5,0.4,0.8,0.4c0.3,0,0.5-0.1,0.8-0.4c0.2-0.3,0.3-0.7,0.3-1.3c0-0.6-0.1-1-0.3-1.3
		c-0.2-0.3-0.5-0.4-0.8-0.4c-0.3,0-0.5,0.1-0.8,0.4C17.5,93.6,17.4,94.1,17.4,94.7"/>
	<path class="st1" d="M21,97v-4.7h0.6V93c0.1-0.3,0.3-0.4,0.5-0.6c0.2-0.1,0.4-0.2,0.7-0.2c0.2,0,0.4,0,0.5,0.1
		c0.2,0.1,0.3,0.2,0.4,0.3c0.1,0.1,0.2,0.3,0.2,0.5c0.1,0.2,0.1,0.5,0.1,1V97h-0.6v-2.8c0-0.3,0-0.6-0.1-0.8
		c-0.1-0.2-0.1-0.3-0.3-0.4c-0.1-0.1-0.3-0.1-0.4-0.1c-0.3,0-0.5,0.1-0.7,0.3c-0.2,0.2-0.3,0.6-0.3,1.2V97H21z"/>
	<path class="st1" d="M24.7,95.6l0.6-0.1c0,0.3,0.1,0.6,0.3,0.7c0.2,0.2,0.4,0.2,0.6,0.2c0.3,0,0.5-0.1,0.6-0.2
		c0.1-0.1,0.2-0.3,0.2-0.5c0-0.2-0.1-0.3-0.2-0.4c-0.1-0.1-0.3-0.2-0.6-0.3c-0.5-0.2-0.8-0.3-1-0.4c-0.2-0.1-0.3-0.3-0.4-0.4
		c-0.1-0.2-0.1-0.4-0.1-0.6c0-0.4,0.1-0.7,0.4-1c0.2-0.2,0.6-0.4,1-0.4c0.3,0,0.5,0.1,0.7,0.2c0.2,0.1,0.4,0.2,0.5,0.4
		c0.1,0.2,0.2,0.4,0.2,0.7L27,93.7c-0.1-0.5-0.3-0.8-0.8-0.8c-0.3,0-0.5,0.1-0.6,0.2c-0.1,0.1-0.2,0.3-0.2,0.4
		c0,0.2,0.1,0.3,0.2,0.4c0.1,0.1,0.3,0.2,0.7,0.3c0.5,0.2,0.9,0.3,1,0.4c0.2,0.1,0.3,0.2,0.4,0.4c0.1,0.2,0.1,0.4,0.1,0.6
		c0,0.4-0.1,0.8-0.4,1.1c-0.3,0.3-0.6,0.4-1.1,0.4C25.3,97.1,24.8,96.6,24.7,95.6"/>
	<path class="st1" d="M31,95.5l0.6,0.1c-0.1,0.5-0.3,0.9-0.6,1.1c-0.3,0.3-0.6,0.4-1,0.4c-0.5,0-0.9-0.2-1.3-0.6
		c-0.3-0.4-0.5-1-0.5-1.8c0-0.8,0.2-1.4,0.5-1.8c0.3-0.4,0.7-0.6,1.2-0.6c0.5,0,0.9,0.2,1.2,0.6c0.3,0.4,0.5,1,0.5,1.8l0,0.2h-2.7
		c0,0.5,0.1,0.9,0.4,1.2c0.2,0.3,0.5,0.4,0.8,0.4C30.5,96.5,30.8,96.1,31,95.5 M28.9,94.2H31c0-0.4-0.1-0.7-0.2-0.9
		c-0.2-0.3-0.5-0.4-0.8-0.4c-0.3,0-0.5,0.1-0.7,0.4C29.1,93.5,29,93.8,28.9,94.2"/>
	<path class="st1" d="M32.4,97v-4.7H33v0.7c0.1-0.3,0.3-0.5,0.4-0.7c0.1-0.1,0.3-0.2,0.4-0.2c0.2,0,0.4,0.1,0.6,0.3l-0.2,0.7
		c-0.2-0.1-0.3-0.2-0.5-0.2c-0.1,0-0.3,0-0.4,0.1c-0.1,0.1-0.2,0.2-0.2,0.4c-0.1,0.3-0.1,0.6-0.1,1V97H32.4z"/>
	<path class="st1" d="M35.8,97l-1.4-4.7h0.7l0.8,2.8c0.1,0.3,0.2,0.6,0.2,0.9c0.1-0.2,0.1-0.5,0.2-0.9l0.8-2.8h0.6L36.4,97H35.8z"/>
	<path class="st1" d="M40.7,96.4c-0.2,0.2-0.4,0.4-0.7,0.5c-0.2,0.1-0.5,0.2-0.7,0.2c-0.4,0-0.7-0.1-0.9-0.4c-0.2-0.2-0.3-0.6-0.3-1
		c0-0.3,0.1-0.5,0.2-0.7c0.1-0.2,0.3-0.4,0.4-0.5c0.2-0.1,0.5-0.2,0.8-0.3c0.5-0.1,0.9-0.2,1.1-0.3l0-0.2c0-0.3-0.1-0.5-0.2-0.7
		c-0.2-0.2-0.4-0.3-0.7-0.3c-0.3,0-0.5,0.1-0.6,0.2c-0.1,0.1-0.2,0.4-0.3,0.7l-0.6-0.1c0.1-0.5,0.3-0.9,0.5-1.1
		c0.3-0.2,0.6-0.3,1.1-0.3c0.4,0,0.7,0.1,0.9,0.2c0.2,0.1,0.4,0.3,0.4,0.6c0.1,0.2,0.1,0.5,0.1,1v1.1c0,0.7,0,1.2,0,1.4
		c0,0.2,0.1,0.4,0.2,0.6h-0.6C40.8,96.8,40.7,96.7,40.7,96.4 M40.7,94.7c-0.2,0.1-0.6,0.2-1,0.3c-0.3,0-0.4,0.1-0.5,0.2
		c-0.1,0.1-0.2,0.1-0.2,0.3c-0.1,0.1-0.1,0.2-0.1,0.4c0,0.2,0.1,0.4,0.2,0.5c0.1,0.1,0.3,0.2,0.5,0.2c0.2,0,0.4-0.1,0.6-0.2
		c0.2-0.1,0.3-0.3,0.4-0.5c0.1-0.2,0.1-0.5,0.1-0.9V94.7z"/>
	<path class="st1" d="M44.7,95.3l0.6,0.1c-0.1,0.6-0.2,1-0.5,1.3c-0.3,0.3-0.6,0.4-1,0.4c-0.5,0-0.9-0.2-1.2-0.6
		c-0.3-0.4-0.5-1-0.5-1.8c0-0.8,0.2-1.4,0.5-1.8c0.3-0.4,0.7-0.6,1.2-0.6c0.4,0,0.7,0.1,1,0.4c0.3,0.2,0.4,0.6,0.5,1.1l-0.6,0.1
		c-0.1-0.3-0.2-0.6-0.3-0.7c-0.1-0.2-0.3-0.2-0.5-0.2c-0.3,0-0.6,0.1-0.8,0.4c-0.2,0.3-0.3,0.7-0.3,1.3c0,0.6,0.1,1.1,0.3,1.4
		c0.2,0.3,0.4,0.4,0.7,0.4c0.2,0,0.4-0.1,0.6-0.3C44.5,96,44.6,95.7,44.7,95.3 M43.4,97.7l0.2-0.8H44l-0.1,0.5
		c0.2,0,0.3,0.1,0.4,0.2c0.1,0.1,0.2,0.3,0.2,0.4c0,0.2-0.1,0.4-0.3,0.6c-0.2,0.2-0.4,0.2-0.7,0.2c-0.2,0-0.4,0-0.5-0.1l0-0.5
		c0.1,0,0.3,0,0.3,0c0.2,0,0.3,0,0.4-0.1c0.1-0.1,0.1-0.1,0.1-0.2c0-0.1,0-0.2-0.1-0.2C43.7,97.7,43.6,97.7,43.4,97.7"/>
	<path class="st1" d="M48.2,96.4c-0.2,0.2-0.4,0.4-0.7,0.5c-0.2,0.1-0.5,0.2-0.7,0.2c-0.4,0-0.7-0.1-0.9-0.4c-0.2-0.2-0.3-0.6-0.3-1
		c0-0.3,0.1-0.5,0.2-0.7c0.1-0.2,0.3-0.4,0.4-0.5c0.2-0.1,0.5-0.2,0.8-0.3c0.5-0.1,0.9-0.2,1.1-0.3l0-0.2c0-0.3-0.1-0.5-0.2-0.7
		c-0.2-0.2-0.4-0.3-0.7-0.3c-0.3,0-0.5,0.1-0.6,0.2c-0.1,0.1-0.2,0.4-0.3,0.7l-0.6-0.1c0.1-0.5,0.3-0.9,0.5-1.1
		c0.3-0.2,0.6-0.3,1.1-0.3c0.4,0,0.7,0.1,0.9,0.2c0.2,0.1,0.4,0.3,0.4,0.6c0.1,0.2,0.1,0.5,0.1,1v1.1c0,0.7,0,1.2,0,1.4
		c0,0.2,0.1,0.4,0.2,0.6h-0.6C48.3,96.8,48.2,96.7,48.2,96.4 M46.1,91.8c0-0.3,0.1-0.6,0.2-0.7c0.1-0.2,0.3-0.3,0.5-0.3
		c0.1,0,0.3,0.1,0.6,0.2c0.1,0.1,0.2,0.1,0.3,0.1c0.1,0,0.1,0,0.2-0.1c0-0.1,0.1-0.2,0.1-0.3h0.5c0,0.3-0.1,0.6-0.2,0.8
		c-0.1,0.2-0.3,0.2-0.5,0.2c-0.1,0-0.3-0.1-0.6-0.2c-0.2-0.1-0.3-0.2-0.3-0.2c-0.1,0-0.1,0-0.2,0.1c-0.1,0.1-0.1,0.2-0.1,0.3H46.1z
		 M48.2,94.7c-0.2,0.1-0.6,0.2-1,0.3c-0.3,0-0.4,0.1-0.5,0.2c-0.1,0.1-0.2,0.1-0.2,0.3c-0.1,0.1-0.1,0.2-0.1,0.4
		c0,0.2,0.1,0.4,0.2,0.5c0.1,0.1,0.3,0.2,0.5,0.2c0.2,0,0.4-0.1,0.6-0.2c0.2-0.1,0.3-0.3,0.4-0.5c0.1-0.2,0.1-0.5,0.1-0.9V94.7z"/>
	<path class="st1" d="M49.5,94.7c0-0.8,0.2-1.4,0.5-1.8s0.7-0.6,1.2-0.6c0.5,0,0.9,0.2,1.2,0.6c0.3,0.4,0.5,1,0.5,1.8
		c0,0.8-0.2,1.5-0.5,1.9c-0.3,0.4-0.7,0.6-1.2,0.6c-0.5,0-0.9-0.2-1.2-0.6C49.7,96.1,49.5,95.5,49.5,94.7 M50.2,94.7
		c0,0.6,0.1,1.1,0.3,1.3c0.2,0.3,0.5,0.4,0.8,0.4c0.3,0,0.5-0.1,0.8-0.4c0.2-0.3,0.3-0.7,0.3-1.3c0-0.6-0.1-1-0.3-1.3
		c-0.2-0.3-0.5-0.4-0.8-0.4c-0.3,0-0.5,0.1-0.8,0.4C50.3,93.6,50.2,94.1,50.2,94.7"/>
	<path class="st1" d="M53.9,92.3h0.7v0.9h-0.7V92.3z M53.9,96.1h0.7V97h-0.7V96.1z"/>
	<rect x="56.5" y="89.5" class="st0" width="8.2" height="8.5"/>
	<rect x="109.7" y="89.5" class="st0" width="8.2" height="8.5"/>
	<path class="st1" d="M69,95l0.6,0.2c-0.1,0.6-0.4,1.1-0.7,1.4c-0.3,0.3-0.8,0.5-1.3,0.5c-0.4,0-0.8-0.1-1.1-0.3
		c-0.3-0.2-0.6-0.6-0.8-1c-0.2-0.5-0.3-1-0.3-1.7c0-0.6,0.1-1.2,0.3-1.6c0.2-0.4,0.5-0.8,0.8-1c0.3-0.2,0.7-0.3,1.1-0.3
		c0.5,0,0.8,0.1,1.2,0.4c0.3,0.3,0.6,0.7,0.7,1.2L68.9,93c-0.2-0.8-0.6-1.2-1.3-1.2c-0.3,0-0.6,0.1-0.8,0.2
		c-0.2,0.2-0.4,0.4-0.6,0.7c-0.1,0.3-0.2,0.8-0.2,1.3c0,0.8,0.1,1.4,0.4,1.8s0.6,0.6,1.1,0.6c0.3,0,0.6-0.1,0.9-0.4
		C68.8,95.9,68.9,95.5,69,95"/>
	<path class="st1" d="M70.1,94.9c0-0.7,0.2-1.3,0.5-1.6c0.3-0.4,0.7-0.5,1.1-0.5c0.5,0,0.8,0.2,1.1,0.5c0.3,0.4,0.5,0.9,0.5,1.6
		c0,0.7-0.1,1.3-0.4,1.7c-0.3,0.4-0.7,0.5-1.1,0.5c-0.5,0-0.8-0.2-1.1-0.5C70.3,96.2,70.1,95.6,70.1,94.9 M70.7,94.9
		c0,0.5,0.1,0.9,0.3,1.2c0.2,0.3,0.4,0.4,0.7,0.4c0.3,0,0.5-0.1,0.7-0.4c0.2-0.3,0.3-0.7,0.3-1.2c0-0.5-0.1-0.9-0.3-1.2
		c-0.2-0.3-0.4-0.4-0.7-0.4c-0.3,0-0.5,0.1-0.7,0.4C70.8,94,70.7,94.4,70.7,94.9"/>
	<path class="st1" d="M74,97v-4.1h0.5v0.6c0.1-0.2,0.3-0.4,0.5-0.5c0.2-0.1,0.4-0.2,0.6-0.2c0.2,0,0.4,0,0.5,0.1
		c0.2,0.1,0.3,0.2,0.4,0.3c0.1,0.1,0.2,0.3,0.2,0.5c0,0.2,0.1,0.5,0.1,0.9V97h-0.6v-2.5c0-0.3,0-0.5-0.1-0.7
		c-0.1-0.1-0.1-0.2-0.2-0.3c-0.1-0.1-0.2-0.1-0.4-0.1c-0.3,0-0.5,0.1-0.7,0.3c-0.2,0.2-0.2,0.6-0.2,1.1V97H74z"/>
	<path class="st1" d="M77.5,97.4l0.6,0.1c0,0.2,0.1,0.4,0.2,0.5c0.1,0.1,0.3,0.2,0.5,0.2c0.3,0,0.5-0.1,0.6-0.2
		c0.1-0.1,0.3-0.3,0.3-0.5c0-0.1,0.1-0.5,0.1-0.9c-0.1,0.2-0.3,0.3-0.4,0.4C79.2,97,79.1,97,78.9,97c-0.4,0-0.7-0.2-1-0.5
		c-0.3-0.4-0.5-0.9-0.5-1.6c0-0.4,0.1-0.8,0.2-1.2c0.1-0.3,0.3-0.6,0.5-0.7c0.2-0.2,0.5-0.2,0.7-0.2c0.2,0,0.4,0,0.5,0.1
		c0.2,0.1,0.3,0.2,0.4,0.4v-0.5h0.5v3.6c0,0.6-0.1,1.1-0.2,1.4c-0.1,0.3-0.3,0.5-0.5,0.6c-0.2,0.2-0.5,0.2-0.9,0.2
		c-0.4,0-0.8-0.1-1-0.4C77.6,98.1,77.5,97.8,77.5,97.4 M78,94.9c0,0.5,0.1,0.9,0.3,1.2c0.2,0.3,0.4,0.4,0.7,0.4
		c0.3,0,0.5-0.1,0.7-0.4c0.2-0.2,0.3-0.6,0.3-1.2c0-0.5-0.1-0.9-0.3-1.2c-0.2-0.3-0.4-0.4-0.7-0.4c-0.2,0-0.4,0.1-0.6,0.4
		C78.1,94,78,94.4,78,94.9"/>
	<path class="st1" d="M83.6,95.7l0.6,0.1c-0.1,0.4-0.3,0.8-0.5,1c-0.3,0.2-0.6,0.3-1,0.3c-0.5,0-0.9-0.2-1.2-0.5
		c-0.3-0.4-0.4-0.9-0.4-1.6c0-0.7,0.2-1.3,0.5-1.6s0.7-0.6,1.1-0.6c0.4,0,0.8,0.2,1.1,0.6c0.3,0.4,0.4,0.9,0.4,1.6l0,0.2h-2.5
		c0,0.5,0.1,0.8,0.3,1.1c0.2,0.2,0.4,0.4,0.7,0.4C83.1,96.5,83.4,96.2,83.6,95.7 M81.7,94.5h1.9c0-0.4-0.1-0.6-0.2-0.8
		c-0.2-0.3-0.4-0.4-0.7-0.4c-0.3,0-0.5,0.1-0.7,0.3C81.8,93.9,81.7,94.2,81.7,94.5"/>
	<rect x="84.9" y="91.3" class="st1" width="0.6" height="5.7"/>
	<path class="st1" d="M88.6,96.5c-0.2,0.2-0.4,0.4-0.6,0.5c-0.2,0.1-0.4,0.2-0.6,0.2c-0.4,0-0.6-0.1-0.8-0.3
		c-0.2-0.2-0.3-0.5-0.3-0.9c0-0.2,0-0.5,0.1-0.6c0.1-0.2,0.2-0.3,0.4-0.4c0.2-0.1,0.4-0.2,0.8-0.2c0.5-0.1,0.8-0.1,1-0.2l0-0.2
		c0-0.3-0.1-0.5-0.2-0.6c-0.1-0.2-0.4-0.3-0.7-0.3c-0.3,0-0.5,0.1-0.6,0.2c-0.1,0.1-0.2,0.3-0.3,0.6L86.3,94c0.1-0.4,0.2-0.8,0.5-1
		c0.2-0.2,0.6-0.3,1.1-0.3c0.4,0,0.6,0.1,0.8,0.2s0.3,0.3,0.4,0.5c0.1,0.2,0.1,0.5,0.1,0.9v0.9c0,0.7,0,1.1,0,1.2
		c0,0.2,0.1,0.3,0.1,0.5h-0.6C88.6,96.9,88.6,96.7,88.6,96.5 M88.5,94.9c-0.2,0.1-0.5,0.2-0.9,0.3c-0.2,0-0.4,0.1-0.5,0.1
		c-0.1,0.1-0.2,0.1-0.2,0.2c-0.1,0.1-0.1,0.2-0.1,0.3c0,0.2,0.1,0.4,0.2,0.5c0.1,0.1,0.3,0.2,0.5,0.2c0.2,0,0.4-0.1,0.6-0.2
		c0.2-0.1,0.3-0.2,0.4-0.4c0.1-0.2,0.1-0.4,0.1-0.8V94.9z"/>
	<path class="st1" d="M90,97v-4.1h0.5v0.6c0.1-0.2,0.3-0.4,0.4-0.5c0.2-0.1,0.4-0.2,0.6-0.2c0.2,0,0.4,0.1,0.6,0.2
		c0.2,0.1,0.3,0.3,0.4,0.5c0.1-0.2,0.3-0.4,0.5-0.5c0.2-0.1,0.4-0.2,0.6-0.2c0.3,0,0.6,0.1,0.8,0.3c0.2,0.2,0.3,0.6,0.3,1.1V97h-0.6
		v-2.6c0-0.3,0-0.5-0.1-0.6c0-0.1-0.1-0.2-0.2-0.3c-0.1-0.1-0.2-0.1-0.3-0.1c-0.2,0-0.5,0.1-0.6,0.3c-0.2,0.2-0.2,0.5-0.2,0.9V97
		h-0.6v-2.7c0-0.3-0.1-0.6-0.2-0.7c-0.1-0.1-0.3-0.2-0.4-0.2c-0.3,0-0.5,0.1-0.6,0.3c-0.2,0.2-0.2,0.6-0.2,1.2V97H90z"/>
	<path class="st1" d="M97.8,95.7l0.6,0.1c-0.1,0.4-0.3,0.8-0.5,1c-0.3,0.2-0.6,0.3-1,0.3c-0.5,0-0.9-0.2-1.2-0.5
		c-0.3-0.4-0.4-0.9-0.4-1.6c0-0.7,0.2-1.3,0.5-1.6s0.7-0.6,1.1-0.6c0.4,0,0.8,0.2,1.1,0.6c0.3,0.4,0.4,0.9,0.4,1.6l0,0.2h-2.5
		c0,0.5,0.1,0.8,0.3,1.1c0.2,0.2,0.4,0.4,0.7,0.4C97.3,96.5,97.6,96.2,97.8,95.7 M95.9,94.5h1.9c0-0.4-0.1-0.6-0.2-0.8
		c-0.2-0.3-0.4-0.4-0.7-0.4c-0.3,0-0.5,0.1-0.7,0.3C96,93.9,95.9,94.2,95.9,94.5"/>
	<path class="st1" d="M99.1,97v-4.1h0.5v0.6c0.1-0.2,0.3-0.4,0.5-0.5c0.2-0.1,0.4-0.2,0.6-0.2c0.2,0,0.4,0,0.5,0.1
		c0.2,0.1,0.3,0.2,0.4,0.3c0.1,0.1,0.2,0.3,0.2,0.5c0,0.2,0.1,0.5,0.1,0.9V97h-0.6v-2.5c0-0.3,0-0.5-0.1-0.7
		c-0.1-0.1-0.1-0.2-0.2-0.3c-0.1-0.1-0.2-0.1-0.4-0.1c-0.3,0-0.5,0.1-0.7,0.3c-0.2,0.2-0.2,0.6-0.2,1.1V97H99.1z"/>
	<path class="st1" d="M104.1,96.4l0.1,0.6c-0.2,0-0.3,0.1-0.4,0.1c-0.2,0-0.4,0-0.5-0.1c-0.1-0.1-0.2-0.2-0.3-0.3
		c0-0.1-0.1-0.4-0.1-0.8v-2.4h-0.4v-0.5h0.4v-1l0.6-0.4v1.4h0.6v0.5h-0.6v2.4c0,0.2,0,0.4,0.1,0.4c0,0.1,0.1,0.1,0.3,0.1
		C103.9,96.4,104,96.4,104.1,96.4"/>
	<path class="st1" d="M104.4,94.9c0-0.7,0.2-1.3,0.5-1.6c0.3-0.4,0.7-0.5,1.1-0.5c0.5,0,0.8,0.2,1.1,0.5c0.3,0.4,0.5,0.9,0.5,1.6
		c0,0.7-0.1,1.3-0.5,1.7c-0.3,0.4-0.7,0.5-1.1,0.5c-0.5,0-0.8-0.2-1.1-0.5C104.5,96.2,104.4,95.6,104.4,94.9 M105,94.9
		c0,0.5,0.1,0.9,0.3,1.2c0.2,0.3,0.4,0.4,0.7,0.4c0.3,0,0.5-0.1,0.7-0.4c0.2-0.3,0.3-0.7,0.3-1.2c0-0.5-0.1-0.9-0.3-1.2
		c-0.2-0.3-0.4-0.4-0.7-0.4c-0.3,0-0.5,0.1-0.7,0.4C105.1,94,105,94.4,105,94.9"/>
	<path class="st1" d="M119.7,97v-5.7h2.1c0.4,0,0.8,0.1,1,0.2c0.2,0.1,0.4,0.3,0.5,0.5c0.1,0.2,0.2,0.5,0.2,0.9c0,0.4-0.1,0.8-0.3,1
		c-0.2,0.3-0.6,0.4-1,0.5c0.2,0.1,0.3,0.2,0.4,0.3c0.2,0.2,0.3,0.5,0.5,0.7l0.8,1.6H123l-0.6-1.2c-0.2-0.5-0.4-0.8-0.6-0.9
		c-0.1-0.2-0.2-0.3-0.4-0.3c-0.1-0.1-0.3-0.1-0.5-0.1h-0.7V97H119.7z M120.3,93.8h1.3c0.3,0,0.5,0,0.7-0.1c0.2-0.1,0.3-0.2,0.4-0.3
		c0.1-0.2,0.1-0.3,0.1-0.5c0-0.3-0.1-0.5-0.3-0.7c-0.2-0.2-0.4-0.2-0.8-0.2h-1.5V93.8z"/>
	<path class="st1" d="M126.7,95.7l0.6,0.1c-0.1,0.4-0.3,0.8-0.5,1c-0.3,0.2-0.6,0.3-1,0.3c-0.5,0-0.9-0.2-1.2-0.5
		c-0.3-0.4-0.4-0.9-0.4-1.6c0-0.7,0.2-1.3,0.5-1.6s0.7-0.6,1.1-0.6c0.4,0,0.8,0.2,1.1,0.6c0.3,0.4,0.4,0.9,0.4,1.6l0,0.2h-2.5
		c0,0.5,0.1,0.8,0.3,1.1c0.2,0.2,0.4,0.4,0.7,0.4C126.2,96.5,126.5,96.2,126.7,95.7 M124.8,94.5h1.9c0-0.4-0.1-0.6-0.2-0.8
		c-0.2-0.3-0.4-0.4-0.7-0.4c-0.3,0-0.5,0.1-0.7,0.3C124.9,93.9,124.8,94.2,124.8,94.5"/>
	<path class="st1" d="M128.1,97v-3.6h-0.5v-0.5h0.5v-0.4c0-0.3,0-0.6,0.1-0.7s0.2-0.3,0.3-0.4c0.1-0.1,0.3-0.1,0.5-0.1
		c0.2,0,0.3,0,0.5,0.1l-0.1,0.6c-0.1,0-0.2,0-0.3,0c-0.2,0-0.3,0-0.4,0.1c-0.1,0.1-0.1,0.3-0.1,0.5v0.4h0.7v0.5h-0.7V97H128.1z"/>
	<path class="st1" d="M129.8,97v-4.1h0.5v0.6c0.1-0.3,0.3-0.5,0.4-0.6c0.1-0.1,0.2-0.1,0.4-0.1c0.2,0,0.4,0.1,0.6,0.2l-0.2,0.7
		c-0.1-0.1-0.3-0.2-0.4-0.2c-0.1,0-0.2,0-0.3,0.1c-0.1,0.1-0.2,0.2-0.2,0.4c-0.1,0.3-0.1,0.6-0.1,0.9V97H129.8z"/>
	<path class="st1" d="M132,91.3h0.6v0.8H132V91.3z M132,92.9h0.6V97H132V92.9z"/>
	<path class="st1" d="M133.3,97.4l0.6,0.1c0,0.2,0.1,0.4,0.2,0.5c0.1,0.1,0.3,0.2,0.5,0.2c0.3,0,0.5-0.1,0.6-0.2
		c0.1-0.1,0.3-0.3,0.3-0.5c0-0.1,0.1-0.5,0.1-0.9c-0.1,0.2-0.3,0.3-0.4,0.4c-0.2,0.1-0.3,0.1-0.5,0.1c-0.4,0-0.7-0.2-1-0.5
		c-0.3-0.4-0.5-0.9-0.5-1.6c0-0.4,0.1-0.8,0.2-1.2c0.1-0.3,0.3-0.6,0.5-0.7c0.2-0.2,0.5-0.2,0.7-0.2c0.2,0,0.4,0,0.5,0.1
		c0.2,0.1,0.3,0.2,0.4,0.4v-0.5h0.5v3.6c0,0.6-0.1,1.1-0.2,1.4c-0.1,0.3-0.3,0.5-0.5,0.6c-0.2,0.2-0.5,0.2-0.9,0.2
		c-0.4,0-0.8-0.1-1-0.4C133.4,98.1,133.3,97.8,133.3,97.4 M133.8,94.9c0,0.5,0.1,0.9,0.3,1.2c0.2,0.3,0.4,0.4,0.7,0.4
		c0.3,0,0.5-0.1,0.7-0.4c0.2-0.2,0.3-0.6,0.3-1.2c0-0.5-0.1-0.9-0.3-1.2c-0.2-0.3-0.4-0.4-0.7-0.4c-0.2,0-0.5,0.1-0.6,0.4
		C133.9,94,133.8,94.4,133.8,94.9"/>
	<path class="st1" d="M139.4,95.7l0.6,0.1c-0.1,0.4-0.3,0.8-0.5,1c-0.3,0.2-0.6,0.3-1,0.3c-0.5,0-0.9-0.2-1.2-0.5
		c-0.3-0.4-0.4-0.9-0.4-1.6c0-0.7,0.2-1.3,0.5-1.6s0.7-0.6,1.1-0.6c0.4,0,0.8,0.2,1.1,0.6c0.3,0.4,0.4,0.9,0.4,1.6l0,0.2h-2.5
		c0,0.5,0.1,0.8,0.3,1.1c0.2,0.2,0.4,0.4,0.7,0.4C138.9,96.5,139.2,96.2,139.4,95.7 M137.5,94.5h1.9c0-0.4-0.1-0.6-0.2-0.8
		c-0.2-0.3-0.4-0.4-0.7-0.4c-0.3,0-0.5,0.1-0.7,0.3C137.6,93.9,137.5,94.2,137.5,94.5"/>
	<path class="st1" d="M140.7,97v-4.1h0.5v0.6c0.1-0.3,0.3-0.5,0.4-0.6c0.1-0.1,0.2-0.1,0.4-0.1c0.2,0,0.4,0.1,0.6,0.2l-0.2,0.7
		c-0.1-0.1-0.3-0.2-0.4-0.2c-0.1,0-0.2,0-0.3,0.1c-0.1,0.1-0.2,0.2-0.2,0.4c-0.1,0.3-0.1,0.6-0.1,0.9V97H140.7z"/>
	<path class="st1" d="M145.1,96.5c-0.2,0.2-0.4,0.4-0.6,0.5c-0.2,0.1-0.4,0.2-0.6,0.2c-0.4,0-0.6-0.1-0.8-0.3
		c-0.2-0.2-0.3-0.5-0.3-0.9c0-0.2,0-0.5,0.1-0.6c0.1-0.2,0.2-0.3,0.4-0.4c0.2-0.1,0.4-0.2,0.8-0.2c0.5-0.1,0.8-0.1,1-0.2l0-0.2
		c0-0.3-0.1-0.5-0.2-0.6c-0.1-0.2-0.4-0.3-0.7-0.3c-0.3,0-0.5,0.1-0.6,0.2c-0.1,0.1-0.2,0.3-0.3,0.6l-0.6-0.1c0.1-0.4,0.2-0.8,0.5-1
		c0.2-0.2,0.6-0.3,1.1-0.3c0.4,0,0.6,0.1,0.8,0.2s0.3,0.3,0.4,0.5c0.1,0.2,0.1,0.5,0.1,0.9v0.9c0,0.7,0,1.1,0,1.2
		c0,0.2,0.1,0.3,0.1,0.5h-0.6C145.2,96.9,145.2,96.7,145.1,96.5 M145.1,94.9c-0.2,0.1-0.5,0.2-0.9,0.3c-0.2,0-0.4,0.1-0.5,0.1
		c-0.1,0.1-0.2,0.1-0.2,0.2c-0.1,0.1-0.1,0.2-0.1,0.3c0,0.2,0.1,0.4,0.2,0.5c0.1,0.1,0.3,0.2,0.5,0.2c0.2,0,0.4-0.1,0.6-0.2
		c0.2-0.1,0.3-0.2,0.4-0.4c0.1-0.2,0.1-0.4,0.1-0.8V94.9z"/>
	<path class="st1" d="M148.8,95.5l0.6,0.1c-0.1,0.5-0.2,0.9-0.5,1.1c-0.3,0.3-0.6,0.4-0.9,0.4c-0.4,0-0.8-0.2-1.1-0.5
		c-0.3-0.4-0.4-0.9-0.4-1.6c0-0.7,0.1-1.3,0.4-1.6c0.3-0.4,0.7-0.5,1.1-0.5c0.4,0,0.6,0.1,0.9,0.3c0.2,0.2,0.4,0.5,0.5,1l-0.6,0.1
		c-0.1-0.3-0.1-0.5-0.3-0.6c-0.1-0.1-0.3-0.2-0.5-0.2c-0.3,0-0.5,0.1-0.7,0.4c-0.2,0.3-0.3,0.7-0.3,1.2c0,0.6,0.1,1,0.3,1.2
		c0.2,0.3,0.4,0.4,0.7,0.4c0.2,0,0.4-0.1,0.6-0.3S148.8,95.8,148.8,95.5 M147.6,97.6l0.2-0.7h0.4l-0.1,0.4c0.2,0,0.3,0.1,0.4,0.2
		c0.1,0.1,0.1,0.2,0.1,0.4c0,0.2-0.1,0.4-0.2,0.5c-0.2,0.1-0.4,0.2-0.7,0.2c-0.2,0-0.3,0-0.5,0l0-0.5c0.1,0,0.2,0,0.3,0
		c0.2,0,0.3,0,0.4-0.1c0.1-0.1,0.1-0.1,0.1-0.2c0-0.1,0-0.1-0.1-0.2C147.9,97.6,147.8,97.6,147.6,97.6"/>
	<path class="st1" d="M152.1,96.5c-0.2,0.2-0.4,0.4-0.6,0.5c-0.2,0.1-0.4,0.2-0.6,0.2c-0.4,0-0.6-0.1-0.8-0.3
		c-0.2-0.2-0.3-0.5-0.3-0.9c0-0.2,0-0.5,0.1-0.6c0.1-0.2,0.2-0.3,0.4-0.4c0.2-0.1,0.4-0.2,0.8-0.2c0.5-0.1,0.8-0.1,1-0.2l0-0.2
		c0-0.3-0.1-0.5-0.2-0.6c-0.1-0.2-0.4-0.3-0.7-0.3c-0.3,0-0.5,0.1-0.6,0.2c-0.1,0.1-0.2,0.3-0.3,0.6l-0.6-0.1c0.1-0.4,0.2-0.8,0.5-1
		c0.2-0.2,0.6-0.3,1.1-0.3c0.4,0,0.6,0.1,0.8,0.2s0.3,0.3,0.4,0.5c0.1,0.2,0.1,0.5,0.1,0.9v0.9c0,0.7,0,1.1,0,1.2
		c0,0.2,0.1,0.3,0.1,0.5h-0.6C152.1,96.9,152.1,96.7,152.1,96.5 M150.1,92.3c0-0.3,0.1-0.5,0.2-0.7c0.1-0.2,0.3-0.2,0.5-0.2
		c0.1,0,0.3,0.1,0.5,0.2c0.1,0.1,0.2,0.1,0.3,0.1c0.1,0,0.1,0,0.2-0.1c0,0,0.1-0.1,0.1-0.3h0.4c0,0.3-0.1,0.5-0.2,0.7
		c-0.1,0.1-0.3,0.2-0.4,0.2c-0.1,0-0.3-0.1-0.5-0.2c-0.1-0.1-0.2-0.1-0.3-0.1c-0.1,0-0.1,0-0.2,0.1c0,0.1-0.1,0.2-0.1,0.3H150.1z
		 M152,94.9c-0.2,0.1-0.5,0.2-0.9,0.3c-0.2,0-0.4,0.1-0.5,0.1c-0.1,0.1-0.2,0.1-0.2,0.2c-0.1,0.1-0.1,0.2-0.1,0.3
		c0,0.2,0.1,0.4,0.2,0.5c0.1,0.1,0.3,0.2,0.5,0.2c0.2,0,0.4-0.1,0.6-0.2c0.2-0.1,0.3-0.2,0.4-0.4c0.1-0.2,0.1-0.4,0.1-0.8V94.9z"/>
	<path class="st1" d="M153.3,94.9c0-0.7,0.2-1.3,0.5-1.6c0.3-0.4,0.7-0.5,1.1-0.5c0.5,0,0.8,0.2,1.1,0.5c0.3,0.4,0.5,0.9,0.5,1.6
		c0,0.7-0.1,1.3-0.5,1.7c-0.3,0.4-0.7,0.5-1.1,0.5c-0.5,0-0.8-0.2-1.1-0.5C153.4,96.2,153.3,95.6,153.3,94.9 M153.9,94.9
		c0,0.5,0.1,0.9,0.3,1.2c0.2,0.3,0.4,0.4,0.7,0.4c0.3,0,0.5-0.1,0.7-0.4c0.2-0.3,0.3-0.7,0.3-1.2c0-0.5-0.1-0.9-0.3-1.2
		c-0.2-0.3-0.4-0.4-0.7-0.4c-0.3,0-0.5,0.1-0.7,0.4C154,94,153.9,94.4,153.9,94.9"/>
	<rect x="158.9" y="89.5" class="st0" width="8.2" height="8.5"/>
	<polygon class="st1" points="169.4,97 169.4,92 167.9,92 167.9,91.3 171.6,91.3 171.6,92 170.1,92 170.1,97 	"/>
	<path class="st1" d="M173.8,95.7l0.6,0.1c-0.1,0.4-0.3,0.8-0.5,1c-0.3,0.2-0.6,0.3-1,0.3c-0.5,0-0.9-0.2-1.2-0.5
		c-0.3-0.4-0.4-0.9-0.4-1.6c0-0.7,0.2-1.3,0.5-1.6s0.7-0.6,1.1-0.6c0.4,0,0.8,0.2,1.1,0.6c0.3,0.4,0.4,0.9,0.4,1.6l0,0.2h-2.5
		c0,0.5,0.1,0.8,0.3,1.1c0.2,0.2,0.4,0.4,0.7,0.4C173.3,96.5,173.6,96.2,173.8,95.7 M171.9,94.5h1.9c0-0.4-0.1-0.6-0.2-0.8
		c-0.2-0.3-0.4-0.4-0.7-0.4c-0.3,0-0.5,0.1-0.7,0.3C172,93.9,171.9,94.2,171.9,94.5"/>
	<path class="st1" d="M175.1,97v-4.1h0.5v0.6c0.1-0.2,0.3-0.4,0.4-0.5c0.2-0.1,0.4-0.2,0.6-0.2c0.2,0,0.4,0.1,0.6,0.2
		c0.2,0.1,0.3,0.3,0.4,0.5c0.1-0.2,0.3-0.4,0.5-0.5c0.2-0.1,0.4-0.2,0.6-0.2c0.3,0,0.6,0.1,0.8,0.3c0.2,0.2,0.3,0.6,0.3,1.1V97h-0.6
		v-2.6c0-0.3,0-0.5-0.1-0.6c0-0.1-0.1-0.2-0.2-0.3c-0.1-0.1-0.2-0.1-0.3-0.1c-0.2,0-0.5,0.1-0.6,0.3c-0.2,0.2-0.2,0.5-0.2,0.9V97
		h-0.6v-2.7c0-0.3-0.1-0.6-0.2-0.7c-0.1-0.1-0.3-0.2-0.4-0.2c-0.3,0-0.5,0.1-0.6,0.3c-0.2,0.2-0.2,0.6-0.2,1.2V97H175.1z"/>
	<path class="st1" d="M180.6,98.6v-5.7h0.5v0.5c0.1-0.2,0.3-0.4,0.4-0.5c0.2-0.1,0.3-0.1,0.5-0.1c0.3,0,0.5,0.1,0.7,0.2
		c0.2,0.2,0.4,0.4,0.5,0.7c0.1,0.3,0.2,0.7,0.2,1.2c0,0.7-0.1,1.2-0.4,1.6c-0.3,0.4-0.6,0.6-1,0.6c-0.2,0-0.3,0-0.5-0.1
		c-0.2-0.1-0.3-0.2-0.4-0.4v2H180.6z M181.1,95c0,0.5,0.1,0.9,0.3,1.2c0.2,0.3,0.4,0.4,0.7,0.4c0.2,0,0.5-0.1,0.6-0.4
		c0.2-0.3,0.3-0.7,0.3-1.2c0-0.5-0.1-0.9-0.3-1.2c-0.2-0.3-0.4-0.4-0.7-0.4c-0.2,0-0.4,0.1-0.6,0.4C181.2,94,181.1,94.4,181.1,95"/>
	<rect x="184.4" y="96.2" class="st1" width="0.7" height="0.8"/>
	<path class="st1" d="M188.2,96.5c-0.2,0.2-0.4,0.4-0.6,0.5c-0.2,0.1-0.4,0.2-0.6,0.2c-0.4,0-0.6-0.1-0.8-0.3
		c-0.2-0.2-0.3-0.5-0.3-0.9c0-0.2,0-0.5,0.1-0.6c0.1-0.2,0.2-0.3,0.4-0.4c0.2-0.1,0.4-0.2,0.8-0.2c0.5-0.1,0.8-0.1,1-0.2l0-0.2
		c0-0.3-0.1-0.5-0.2-0.6c-0.1-0.2-0.4-0.3-0.7-0.3c-0.3,0-0.5,0.1-0.6,0.2c-0.1,0.1-0.2,0.3-0.3,0.6l-0.6-0.1c0.1-0.4,0.2-0.8,0.5-1
		c0.2-0.2,0.6-0.3,1.1-0.3c0.4,0,0.6,0.1,0.8,0.2s0.3,0.3,0.4,0.5c0.1,0.2,0.1,0.5,0.1,0.9v0.9c0,0.7,0,1.1,0,1.2
		c0,0.2,0.1,0.3,0.1,0.5h-0.6C188.3,96.9,188.3,96.7,188.2,96.5 M188.2,94.9c-0.2,0.1-0.5,0.2-0.9,0.3c-0.2,0-0.4,0.1-0.5,0.1
		c-0.1,0.1-0.2,0.1-0.2,0.2c-0.1,0.1-0.1,0.2-0.1,0.3c0,0.2,0.1,0.4,0.2,0.5c0.1,0.1,0.3,0.2,0.5,0.2c0.2,0,0.4-0.1,0.6-0.2
		c0.2-0.1,0.3-0.2,0.4-0.4c0.1-0.2,0.1-0.4,0.1-0.8V94.9z"/>
	<path class="st1" d="M189.7,97v-4.1h0.5v0.6c0.1-0.2,0.3-0.4,0.4-0.5c0.2-0.1,0.4-0.2,0.6-0.2c0.2,0,0.4,0.1,0.6,0.2
		c0.2,0.1,0.3,0.3,0.4,0.5c0.1-0.2,0.3-0.4,0.5-0.5c0.2-0.1,0.4-0.2,0.6-0.2c0.3,0,0.6,0.1,0.8,0.3c0.2,0.2,0.3,0.6,0.3,1.1V97h-0.6
		v-2.6c0-0.3,0-0.5-0.1-0.6c0-0.1-0.1-0.2-0.2-0.3c-0.1-0.1-0.2-0.1-0.3-0.1c-0.2,0-0.5,0.1-0.6,0.3c-0.2,0.2-0.2,0.5-0.2,0.9V97
		h-0.6v-2.7c0-0.3-0.1-0.6-0.2-0.7c-0.1-0.1-0.3-0.2-0.4-0.2c-0.3,0-0.5,0.1-0.6,0.3c-0.2,0.2-0.2,0.6-0.2,1.2V97H189.7z"/>
	<path class="st1" d="M195.7,97h-0.5v-5.7h0.6v2c0.1-0.2,0.3-0.3,0.4-0.4c0.2-0.1,0.3-0.1,0.5-0.1c0.3,0,0.5,0.1,0.7,0.2
		c0.2,0.2,0.4,0.4,0.5,0.7c0.1,0.3,0.2,0.7,0.2,1.2c0,0.7-0.1,1.2-0.4,1.6c-0.3,0.4-0.6,0.6-1,0.6c-0.2,0-0.4-0.1-0.5-0.2
		c-0.2-0.1-0.3-0.3-0.4-0.5V97z M195.7,94.9c0,0.4,0,0.8,0.1,1c0.1,0.2,0.2,0.4,0.3,0.5c0.1,0.1,0.3,0.2,0.5,0.2
		c0.2,0,0.4-0.1,0.6-0.4c0.2-0.3,0.3-0.7,0.3-1.2c0-0.5-0.1-0.9-0.3-1.2c-0.2-0.3-0.4-0.4-0.7-0.4c-0.2,0-0.5,0.1-0.6,0.4
		C195.8,94,195.7,94.4,195.7,94.9"/>
	<path class="st1" d="M198.8,91.3h0.6v0.8h-0.6V91.3z M198.8,92.9h0.6V97h-0.6V92.9z"/>
	<path class="st1" d="M202.6,95.7l0.6,0.1c-0.1,0.4-0.3,0.8-0.5,1c-0.3,0.2-0.6,0.3-1,0.3c-0.5,0-0.9-0.2-1.2-0.5
		c-0.3-0.4-0.4-0.9-0.4-1.6c0-0.7,0.2-1.3,0.5-1.6s0.7-0.6,1.1-0.6c0.4,0,0.8,0.2,1.1,0.6c0.3,0.4,0.4,0.9,0.4,1.6l0,0.2h-2.5
		c0,0.5,0.1,0.8,0.3,1.1c0.2,0.2,0.4,0.4,0.7,0.4C202.1,96.5,202.4,96.2,202.6,95.7 M200.7,94.5h1.9c0-0.4-0.1-0.6-0.2-0.8
		c-0.2-0.3-0.4-0.4-0.7-0.4c-0.3,0-0.5,0.1-0.7,0.3C200.8,93.9,200.7,94.2,200.7,94.5"/>
	<path class="st1" d="M203.9,97v-4.1h0.5v0.6c0.1-0.2,0.3-0.4,0.5-0.5c0.2-0.1,0.4-0.2,0.6-0.2c0.2,0,0.4,0,0.5,0.1
		c0.2,0.1,0.3,0.2,0.4,0.3c0.1,0.1,0.2,0.3,0.2,0.5c0,0.2,0.1,0.5,0.1,0.9V97h-0.6v-2.5c0-0.3,0-0.5-0.1-0.7
		c-0.1-0.1-0.1-0.2-0.2-0.3c-0.1-0.1-0.2-0.1-0.4-0.1c-0.3,0-0.5,0.1-0.7,0.3c-0.2,0.2-0.2,0.6-0.2,1.1V97H203.9z"/>
	<path class="st1" d="M208.8,96.4l0.1,0.6c-0.2,0-0.3,0.1-0.4,0.1c-0.2,0-0.4,0-0.5-0.1c-0.1-0.1-0.2-0.2-0.3-0.3
		c0-0.1-0.1-0.4-0.1-0.8v-2.4h-0.4v-0.5h0.4v-1l0.6-0.4v1.4h0.6v0.5h-0.6v2.4c0,0.2,0,0.4,0.1,0.4c0,0.1,0.1,0.1,0.3,0.1
		C208.6,96.4,208.7,96.4,208.8,96.4"/>
	<path class="st1" d="M211.7,95.7l0.6,0.1c-0.1,0.4-0.3,0.8-0.5,1c-0.3,0.2-0.6,0.3-1,0.3c-0.5,0-0.9-0.2-1.2-0.5
		c-0.3-0.4-0.4-0.9-0.4-1.6c0-0.7,0.2-1.3,0.5-1.6s0.7-0.6,1.1-0.6c0.4,0,0.8,0.2,1.1,0.6c0.3,0.4,0.4,0.9,0.4,1.6l0,0.2h-2.5
		c0,0.5,0.1,0.8,0.3,1.1c0.2,0.2,0.4,0.4,0.7,0.4C211.2,96.5,211.5,96.2,211.7,95.7 M209.8,94.5h1.9c0-0.4-0.1-0.6-0.2-0.8
		c-0.2-0.3-0.4-0.4-0.7-0.4c-0.3,0-0.5,0.1-0.7,0.3C209.9,93.9,209.8,94.2,209.8,94.5"/>
</g>
</svg>
