<?xml version="1.0" encoding="utf-8"?>
<!-- Generator: Adobe Illustrator 21.0.0, SVG Export Plug-In . SVG Version: 6.00 Build 0)  -->
<svg version="1.1" id="Layer_1" xmlns="http://www.w3.org/2000/svg" xmlns:xlink="http://www.w3.org/1999/xlink" x="0px" y="0px"
	 viewBox="0 0 224 117" style="enable-background:new 0 0 224 117;" xml:space="preserve">
<style type="text/css">
	.st0{fill-rule:evenodd;clip-rule:evenodd;fill:#FFFFFF;}
	.st1{fill:#7A2879;}
</style>
<g>
	<g>
		<g>
			<path class="st0" d="M32.6,115.6c-3.3,0-6-2.7-6-6V7.5c0-3.3,2.7-6,6-6h158.7c3.3,0,6,2.7,6,6v102c0,3.3-2.7,6-6,6H32.6z"/>
		</g>
		<g>
			<path class="st1" d="M191.4,1.8c3.1,0,5.7,2.6,5.7,5.7v102c0,3.1-2.6,5.7-5.7,5.7H32.6c-3.1,0-5.7-2.6-5.7-5.7V7.5
				c0-3.1,2.6-5.7,5.7-5.7H191.4 M191.4,1.1H32.6c-3.5,0-6.4,2.9-6.4,6.4v102c0,3.5,2.9,6.4,6.4,6.4h158.7c3.5,0,6.4-2.9,6.4-6.4
				V7.5C197.8,3.9,194.9,1.1,191.4,1.1L191.4,1.1z"/>
		</g>
	</g>
	<g>
		<path class="st1" d="M33.2,23.8h2.1c0.7,0,2.5,0,2.5,2.3c0,1.5-1,2.4-2.4,2.4h-1.2v3.4h-1V23.8z M34.2,27.6h1.2
			c0.7,0,1.3-0.5,1.3-1.6c0-0.9-0.4-1.5-1.4-1.5h-1.1V27.6z"/>
		<path class="st1" d="M38.8,25.8h1v0.9h0c0.3-0.6,0.6-1.1,1.3-1.1c0.2,0,0.3,0,0.4,0.1v0.9c-0.1,0-0.2,0-0.5,0
			c-0.5,0-1.3,0.4-1.3,1.4v3.9h-1V25.8z"/>
		<path class="st1" d="M44.3,25.6c1.8,0,2.2,1.5,2.2,3.2c0,1.7-0.4,3.2-2.2,3.2c-1.8,0-2.2-1.5-2.2-3.2
			C42.1,27.1,42.5,25.6,44.3,25.6z M45.5,28.9c0-1.3-0.2-2.5-1.2-2.5c-1,0-1.2,1.1-1.2,2.5c0,1.3,0.2,2.5,1.2,2.5
			C45.3,31.3,45.5,30.2,45.5,28.9z"/>
		<path class="st1" d="M51.6,31.9h-0.9v-0.8h0c-0.1,0.5-0.7,0.9-1.3,0.9c-1.4,0-2-1.3-2-3.2c0-1.3,0.2-3.2,1.9-3.2
			c0.5,0,1.1,0.3,1.3,0.9h0v-2.7h1V31.9z M49.5,31.3c1.1,0,1.2-1,1.2-2.4c0-1.2-0.2-2.4-1.2-2.4c-0.9,0-1.1,0.9-1.1,2.4
			S48.6,31.3,49.5,31.3z"/>
		<path class="st1" d="M57.1,31.9h-0.9v-0.7h0c-0.3,0.6-0.9,0.9-1.5,0.9c-1.6,0-1.6-1.2-1.6-1.9v-4.3h1V30c0,0.5,0,1.2,0.9,1.2
			c0.5,0,1.2-0.3,1.2-1.2v-4.2h1V31.9z"/>
		<path class="st1" d="M58.8,24h1v1.8h1.1v0.8h-1.1v3.9c0,0.5,0.1,0.7,0.6,0.7c0.2,0,0.3,0,0.4,0v0.8c-0.1,0-0.4,0.1-0.8,0.1
			c-1,0-1.2-0.4-1.2-1.2v-4.2h-0.9v-0.8h0.9V24z"/>
		<path class="st1" d="M63.6,25.6c1.8,0,2.2,1.5,2.2,3.2c0,1.7-0.4,3.2-2.2,3.2c-1.8,0-2.2-1.5-2.2-3.2
			C61.4,27.1,61.8,25.6,63.6,25.6z M64.8,28.9c0-1.3-0.2-2.5-1.2-2.5c-1,0-1.2,1.1-1.2,2.5c0,1.3,0.2,2.5,1.2,2.5
			C64.6,31.3,64.8,30.2,64.8,28.9z"/>
		<path class="st1" d="M67.1,26.1h1v1.2h-1V26.1z M67.1,30.7h1v1.2h-1V30.7z"/>
		<path class="st1" d="M71.5,32.8h5.7v0.6h-5.7V32.8z"/>
		<path class="st1" d="M77.1,32.8h5.7v0.6h-5.7V32.8z"/>
		<path class="st1" d="M82.7,32.8h5.7v0.6h-5.7V32.8z"/>
		<path class="st1" d="M88.3,32.8H94v0.6h-5.7V32.8z"/>
		<path class="st1" d="M93.9,32.8h5.7v0.6h-5.7V32.8z"/>
		<path class="st1" d="M99.5,32.8h5.7v0.6h-5.7V32.8z"/>
		<path class="st1" d="M105.1,32.8h5.7v0.6h-5.7V32.8z"/>
		<path class="st1" d="M110.7,32.8h5.7v0.6h-5.7V32.8z"/>
		<path class="st1" d="M116.3,32.8h5.7v0.6h-5.7V32.8z"/>
		<path class="st1" d="M121.9,32.8h5.7v0.6h-5.7V32.8z"/>
		<path class="st1" d="M127.5,32.8h5.7v0.6h-5.7V32.8z"/>
		<path class="st1" d="M133.1,32.8h5.7v0.6h-5.7V32.8z"/>
		<path class="st1" d="M138.7,32.8h5.7v0.6h-5.7V32.8z"/>
		<path class="st1" d="M144.2,32.8h5.7v0.6h-5.7V32.8z"/>
		<path class="st1" d="M149.8,32.8h5.7v0.6h-5.7V32.8z"/>
		<path class="st1" d="M155.4,32.8h5.7v0.6h-5.7V32.8z"/>
		<path class="st1" d="M161,32.8h5.7v0.6H161V32.8z"/>
		<path class="st1" d="M166.6,32.8h5.7v0.6h-5.7V32.8z"/>
		<path class="st1" d="M172.2,32.8h5.7v0.6h-5.7V32.8z"/>
		<path class="st1" d="M177.8,32.8h5.7v0.6h-5.7V32.8z"/>
		<path class="st1" d="M183.4,32.8h5.7v0.6h-5.7V32.8z"/>
	</g>
	<g>
		<path class="st1" d="M33.3,42h4.2v0.9h-3.2v2.6h3v0.9h-3v3.8h-1V42z"/>
		<path class="st1" d="M39.8,43.9c1.8,0,2.2,1.5,2.2,3.2c0,1.7-0.4,3.2-2.2,3.2c-1.8,0-2.2-1.5-2.2-3.2
			C37.6,45.4,38.1,43.9,39.8,43.9z M41,47.1c0-1.3-0.2-2.5-1.2-2.5c-1,0-1.2,1.1-1.2,2.5c0,1.3,0.2,2.5,1.2,2.5
			C40.8,49.6,41,48.4,41,47.1z"/>
		<path class="st1" d="M42.8,44h1V45h0c0.3-0.6,0.6-1.1,1.3-1.1c0.2,0,0.3,0,0.4,0.1v0.9c-0.1,0-0.2,0-0.5,0c-0.5,0-1.3,0.4-1.3,1.4
			v3.9h-1V44z"/>
		<path class="st1" d="M46,44h0.9v0.7h0c0.3-0.6,0.9-0.9,1.5-0.9c1.6,0,1.6,1.2,1.6,1.9v4.3h-1v-4.2c0-0.5,0-1.2-0.9-1.2
			c-0.5,0-1.2,0.3-1.2,1.2v4.2h-1V44z"/>
		<path class="st1" d="M52,47.2c0,0.9,0,2.4,1.2,2.4c0.9,0,1-1,1-1.4h1c0,0.7-0.4,2.2-2.1,2.2c-1.5,0-2.1-1-2.1-3.1
			c0-1.5,0.3-3.3,2.2-3.3c1.9,0,2,1.6,2,2.9v0.4H52z M54.2,46.5v-0.3c0-0.7-0.2-1.5-1.1-1.5c-1,0-1.1,1.2-1.1,1.6v0.2H54.2z"/>
		<path class="st1" d="M59,45.9c0-0.6-0.2-1.3-1-1.3c-0.6,0-1.2,0.3-1.2,2.5c0,0.8,0,2.4,1.2,2.4c0.8,0,1-0.9,1-1.5h1
			c0,1-0.5,2.3-2,2.3c-1.5,0-2.1-1-2.1-3.1c0-1.5,0.3-3.3,2.2-3.3c1.7,0,2,1.3,2,2H59z"/>
		<path class="st1" d="M61.6,47.2c0,0.9,0,2.4,1.2,2.4c0.9,0,1-1,1-1.4h1c0,0.7-0.4,2.2-2.1,2.2c-1.5,0-2.1-1-2.1-3.1
			c0-1.5,0.3-3.3,2.2-3.3c1.9,0,2,1.6,2,2.9v0.4H61.6z M63.8,46.5v-0.3c0-0.7-0.2-1.5-1.1-1.5c-1,0-1.1,1.2-1.1,1.6v0.2H63.8z"/>
		<path class="st1" d="M69.7,50.2h-0.9v-0.8h0c-0.1,0.5-0.7,0.9-1.3,0.9c-1.4,0-2-1.3-2-3.2c0-1.3,0.2-3.2,1.9-3.2
			c0.5,0,1.1,0.3,1.3,0.9h0V42h1V50.2z M67.6,49.5c1.1,0,1.2-1,1.2-2.4c0-1.2-0.2-2.4-1.2-2.4c-0.9,0-1.1,0.9-1.1,2.4
			S66.7,49.5,67.6,49.5z"/>
		<path class="st1" d="M72.7,43.9c1.8,0,2.2,1.5,2.2,3.2c0,1.7-0.4,3.2-2.2,3.2c-1.8,0-2.2-1.5-2.2-3.2
			C70.5,45.4,70.9,43.9,72.7,43.9z M73.9,47.1c0-1.3-0.2-2.5-1.2-2.5c-1,0-1.2,1.1-1.2,2.5c0,1.3,0.2,2.5,1.2,2.5
			C73.7,49.6,73.9,48.4,73.9,47.1z"/>
		<path class="st1" d="M75.7,44h1V45h0c0.3-0.6,0.6-1.1,1.3-1.1c0.2,0,0.3,0,0.4,0.1v0.9c-0.1,0-0.2,0-0.5,0c-0.5,0-1.3,0.4-1.3,1.4
			v3.9h-1V44z"/>
		<path class="st1" d="M79.1,44.4h1v1.2h-1V44.4z M79.1,49h1v1.2h-1V49z"/>
		<path class="st1" d="M83.2,51h5.7v0.6h-5.7V51z"/>
		<path class="st1" d="M88.7,51h5.7v0.6h-5.7V51z"/>
		<path class="st1" d="M94.2,51h5.7v0.6h-5.7V51z"/>
		<path class="st1" d="M99.8,51h5.7v0.6h-5.7V51z"/>
		<path class="st1" d="M105.3,51h5.7v0.6h-5.7V51z"/>
		<path class="st1" d="M110.9,51h5.7v0.6h-5.7V51z"/>
		<path class="st1" d="M116.4,51h5.7v0.6h-5.7V51z"/>
		<path class="st1" d="M122,51h5.7v0.6H122V51z"/>
		<path class="st1" d="M127.5,51h5.7v0.6h-5.7V51z"/>
		<path class="st1" d="M133,51h5.7v0.6H133V51z"/>
		<path class="st1" d="M138.6,51h5.7v0.6h-5.7V51z"/>
		<path class="st1" d="M144.1,51h5.7v0.6h-5.7V51z"/>
		<path class="st1" d="M149.7,51h5.7v0.6h-5.7V51z"/>
		<path class="st1" d="M155.2,51h5.7v0.6h-5.7V51z"/>
		<path class="st1" d="M160.7,51h5.7v0.6h-5.7V51z"/>
		<path class="st1" d="M166.3,51h5.7v0.6h-5.7V51z"/>
		<path class="st1" d="M171.8,51h5.7v0.6h-5.7V51z"/>
		<path class="st1" d="M177.4,51h5.7v0.6h-5.7V51z"/>
		<path class="st1" d="M182.9,51h5.7v0.6h-5.7V51z"/>
	</g>
	<g>
		<path class="st1" d="M33.4,60.4h2.2c2.5,0,2.9,1.8,2.9,4.1c0,2.1-0.5,4.1-2.8,4.1h-2.3V60.4z M34.4,67.7h1c1.7,0,1.9-1.8,1.9-3.2
			c0-1.6-0.1-3.3-1.9-3.3h-1V67.7z"/>
		<path class="st1" d="M39.2,64.3c0-1.4,0.6-2,2.1-2c1.9,0,1.9,1.1,1.9,1.8v3.4c0,0.3,0,0.5,0.3,0.5c0.1,0,0.2,0,0.2-0.1v0.7
			c-0.1,0-0.3,0.1-0.6,0.1c-0.4,0-0.8,0-0.9-0.8h0c-0.3,0.5-0.9,0.9-1.5,0.9c-1.1,0-1.7-0.7-1.7-1.8c0-0.9,0.4-1.4,1.2-1.7l1.3-0.4
			c0.7-0.2,0.7-0.4,0.7-0.9c0-0.6-0.3-0.9-1-0.9c-1,0-1,1-1,1.2v0.1H39.2z M42.2,65.2c-0.4,0.4-1.2,0.5-1.6,0.7
			c-0.3,0.2-0.5,0.4-0.5,1c0,0.6,0.2,1,0.9,1c0.6,0,1.2-0.5,1.2-1.2V65.2z"/>
		<path class="st1" d="M44.7,60.6h1v1.8h1.1v0.8h-1.1v3.9c0,0.5,0.1,0.7,0.6,0.7c0.2,0,0.3,0,0.4,0v0.8c-0.1,0-0.4,0.1-0.8,0.1
			c-1,0-1.2-0.4-1.2-1.2v-4.2h-0.9v-0.8h0.9V60.6z"/>
		<path class="st1" d="M47.1,64.3c0-1.4,0.6-2,2.1-2c1.9,0,1.9,1.1,1.9,1.8v3.4c0,0.3,0,0.5,0.3,0.5c0.1,0,0.2,0,0.2-0.1v0.7
			c-0.1,0-0.3,0.1-0.6,0.1c-0.4,0-0.8,0-0.9-0.8h0c-0.3,0.5-0.9,0.9-1.5,0.9c-1.1,0-1.7-0.7-1.7-1.8c0-0.9,0.4-1.4,1.2-1.7l1.3-0.4
			c0.7-0.2,0.7-0.4,0.7-0.9c0-0.6-0.3-0.9-1-0.9c-1,0-1,1-1,1.2v0.1H47.1z M50,65.2c-0.4,0.4-1.2,0.5-1.6,0.7
			c-0.3,0.2-0.5,0.4-0.5,1c0,0.6,0.2,1,0.9,1c0.6,0,1.2-0.5,1.2-1.2V65.2z"/>
		<path class="st1" d="M58.9,68.5H58v-0.8h0c-0.1,0.5-0.7,0.9-1.3,0.9c-1.4,0-2-1.3-2-3.2c0-1.3,0.2-3.2,1.9-3.2
			c0.5,0,1.1,0.3,1.3,0.9h0v-2.7h1V68.5z M56.7,67.9c1.1,0,1.2-1,1.2-2.4c0-1.2-0.2-2.4-1.2-2.4c-0.9,0-1.1,0.9-1.1,2.4
			S55.9,67.9,56.7,67.9z"/>
		<path class="st1" d="M60.8,65.6c0,0.9,0,2.4,1.2,2.4c0.9,0,1-1,1-1.4h1c0,0.7-0.4,2.2-2.1,2.2c-1.5,0-2.1-1-2.1-3.1
			c0-1.5,0.3-3.3,2.2-3.3c1.9,0,2,1.6,2,2.9v0.4H60.8z M63,64.8v-0.3c0-0.7-0.2-1.5-1.1-1.5c-1,0-1.1,1.2-1.1,1.6v0.2H63z"/>
		<path class="st1" d="M67.6,60.4h4.2v0.9h-3.2v2.6h3v0.9h-3v3.8h-1V60.4z"/>
		<path class="st1" d="M72.1,64.3c0-1.4,0.6-2,2.1-2c1.9,0,1.9,1.1,1.9,1.8v3.4c0,0.3,0,0.5,0.3,0.5c0.1,0,0.2,0,0.2-0.1v0.7
			c-0.1,0-0.3,0.1-0.6,0.1c-0.4,0-0.8,0-0.9-0.8h0c-0.3,0.5-0.9,0.9-1.5,0.9c-1.1,0-1.7-0.7-1.7-1.8c0-0.9,0.4-1.4,1.2-1.7l1.3-0.4
			c0.7-0.2,0.7-0.4,0.7-0.9c0-0.6-0.3-0.9-1-0.9c-1,0-1,1-1,1.2v0.1H72.1z M75.1,65.2c-0.4,0.4-1.2,0.5-1.6,0.7
			c-0.3,0.2-0.5,0.4-0.5,1c0,0.6,0.2,1,0.9,1c0.6,0,1.2-0.5,1.2-1.2V65.2z"/>
		<path class="st1" d="M77.2,60.4h1v2.7h0c0.2-0.5,0.8-0.9,1.4-0.9c1.7,0,1.9,1.9,1.9,3.2c0,1.7-0.6,3.2-2,3.2
			c-0.7,0-1.2-0.5-1.3-0.9h0v0.8h-0.9V60.4z M79.3,67.9c0.9,0,1.1-1,1.1-2.4c0-1.5-0.2-2.4-1.1-2.4c-1,0-1.2,1.2-1.2,2.4
			C78.1,66.7,78.3,67.9,79.3,67.9z"/>
		<path class="st1" d="M82.3,62.4h1v0.9h0c0.3-0.6,0.6-1.1,1.3-1.1c0.2,0,0.3,0,0.4,0.1v0.9c-0.1,0-0.2,0-0.5,0
			c-0.5,0-1.3,0.4-1.3,1.5v3.9h-1V62.4z"/>
		<path class="st1" d="M85.6,60.4h1v1.1h-1V60.4z M85.6,62.4h1v6.1h-1V62.4z"/>
		<path class="st1" d="M90.6,64.3c0-0.6-0.2-1.3-1-1.3c-0.6,0-1.2,0.3-1.2,2.5c0,0.8,0,2.4,1.2,2.4c0.8,0,1-0.9,1-1.5h1
			c0,1-0.5,2.3-2,2.3c-1.5,0-2.1-1-2.1-3.1c0-1.5,0.3-3.3,2.2-3.3c1.7,0,2,1.3,2,2H90.6z"/>
		<path class="st1" d="M92.2,64.3c0-1.4,0.6-2,2.1-2c1.9,0,1.9,1.1,1.9,1.8v3.4c0,0.3,0,0.5,0.3,0.5c0.1,0,0.2,0,0.2-0.1v0.7
			c-0.1,0-0.3,0.1-0.6,0.1c-0.4,0-0.8,0-0.9-0.8h0c-0.3,0.5-0.9,0.9-1.5,0.9c-1.1,0-1.7-0.7-1.7-1.8c0-0.9,0.4-1.4,1.2-1.7l1.3-0.4
			c0.7-0.2,0.7-0.4,0.7-0.9c0-0.6-0.3-0.9-1-0.9c-1,0-1,1-1,1.2v0.1H92.2z M95.2,65.2c-0.4,0.4-1.2,0.5-1.6,0.7
			c-0.3,0.2-0.5,0.4-0.5,1c0,0.6,0.2,1,0.9,1c0.6,0,1.2-0.5,1.2-1.2V65.2z"/>
		<path class="st1" d="M98.9,68.7c-1.3-0.1-1.9-1.2-1.9-3.1c0-1.5,0.3-3.3,2.2-3.3c1.7,0,2,1.3,2,2h-1c0-0.6-0.2-1.3-1-1.3
			c-0.6,0-1.2,0.3-1.2,2.5c0,0.8,0,2.4,1.2,2.4c0.8,0,1-0.9,1-1.5h1c0,0.9-0.4,2.1-1.8,2.3l-0.3,0.5l0,0c0.1,0,0.3-0.1,0.3-0.1
			c0.4,0,0.9,0.2,0.9,0.9c0,0.6-0.6,1-1.2,1c-0.4,0-0.9-0.1-1.1-0.2l0.2-0.4c0,0,0.5,0.1,0.7,0.1c0.5,0,0.6-0.2,0.6-0.5
			c0-0.3-0.3-0.4-0.5-0.4c-0.2,0-0.4,0-0.4,0.1l-0.2-0.2L98.9,68.7z"/>
		<path class="st1" d="M101.8,64.3c0-1.4,0.6-2,2.1-2c1.9,0,1.9,1.1,1.9,1.8v3.4c0,0.3,0,0.5,0.3,0.5c0.1,0,0.2,0,0.2-0.1v0.7
			c-0.1,0-0.3,0.1-0.6,0.1c-0.4,0-0.8,0-0.9-0.8h0c-0.3,0.5-0.9,0.9-1.5,0.9c-1.1,0-1.7-0.7-1.7-1.8c0-0.9,0.4-1.4,1.2-1.7l1.3-0.4
			c0.7-0.2,0.7-0.4,0.7-0.9c0-0.6-0.3-0.9-1-0.9c-1,0-1,1-1,1.2v0.1H101.8z M105.6,60.1c0,0.6-0.3,1.3-1,1.3c-0.5,0-1.1-0.4-1.3-0.4
			c-0.3,0-0.4,0.3-0.4,0.5h-0.6c0-0.7,0.5-1.3,1.1-1.3c0.2,0,0.5,0.1,0.7,0.2c0.2,0.1,0.4,0.2,0.6,0.2c0.3,0,0.4-0.3,0.4-0.5H105.6z
			 M104.8,65.2c-0.4,0.4-1.2,0.5-1.6,0.7c-0.3,0.2-0.5,0.4-0.5,1c0,0.6,0.2,1,0.9,1c0.6,0,1.2-0.5,1.2-1.2V65.2z"/>
		<path class="st1" d="M108.8,62.3c1.8,0,2.2,1.5,2.2,3.2c0,1.7-0.4,3.2-2.2,3.2c-1.8,0-2.2-1.5-2.2-3.2
			C106.6,63.7,107,62.3,108.8,62.3z M110,65.5c0-1.3-0.2-2.5-1.2-2.5c-1,0-1.2,1.1-1.2,2.5c0,1.3,0.2,2.5,1.2,2.5
			C109.8,67.9,110,66.8,110,65.5z"/>
		<path class="st1" d="M112,62.8h1.1V64H112V62.8z M112,67.3h1.1v1.2H112V67.3z"/>
	</g>
	<g>
		<path class="st1" d="M33.4,78.8h2.2c2.5,0,2.9,1.8,2.9,4.1c0,2.1-0.5,4.1-2.8,4.1h-2.3V78.8z M34.4,86.1h1c1.7,0,1.9-1.8,1.9-3.2
			c0-1.6-0.1-3.3-1.9-3.3h-1V86.1z"/>
		<path class="st1" d="M39.3,82.7c0-1.4,0.6-2,2.1-2c1.9,0,1.9,1.1,1.9,1.8v3.4c0,0.3,0,0.5,0.3,0.5c0.1,0,0.2,0,0.2-0.1v0.7
			c-0.1,0-0.3,0.1-0.6,0.1c-0.4,0-0.8,0-0.9-0.8h0c-0.3,0.5-0.9,0.9-1.5,0.9c-1.1,0-1.7-0.7-1.7-1.8c0-0.9,0.4-1.5,1.2-1.7l1.3-0.4
			c0.7-0.2,0.7-0.4,0.7-0.9c0-0.6-0.3-0.9-1-0.9c-1,0-1,1-1,1.2v0.1H39.3z M42.2,83.6c-0.4,0.4-1.2,0.5-1.6,0.7
			c-0.3,0.2-0.5,0.4-0.5,1c0,0.6,0.2,1.1,0.9,1.1c0.6,0,1.2-0.5,1.2-1.2V83.6z"/>
		<path class="st1" d="M44.7,79h1v1.8h1.1v0.8h-1.1v3.9c0,0.5,0.1,0.7,0.6,0.7c0.2,0,0.3,0,0.4,0v0.8c-0.1,0-0.4,0.1-0.8,0.1
			c-1,0-1.2-0.4-1.2-1.2v-4.2h-0.9v-0.8h0.9V79z"/>
		<path class="st1" d="M47.1,82.7c0-1.4,0.6-2,2.1-2c1.9,0,1.9,1.1,1.9,1.8v3.4c0,0.3,0,0.5,0.3,0.5c0.1,0,0.2,0,0.2-0.1v0.7
			c-0.1,0-0.3,0.1-0.6,0.1c-0.4,0-0.8,0-0.9-0.8h0c-0.3,0.5-0.9,0.9-1.5,0.9c-1.1,0-1.7-0.7-1.7-1.8c0-0.9,0.4-1.5,1.2-1.7l1.3-0.4
			c0.7-0.2,0.7-0.4,0.7-0.9c0-0.6-0.3-0.9-1-0.9c-1,0-1,1-1,1.2v0.1H47.1z M50,83.6c-0.4,0.4-1.2,0.5-1.6,0.7
			c-0.3,0.2-0.5,0.4-0.5,1c0,0.6,0.2,1.1,0.9,1.1c0.6,0,1.2-0.5,1.2-1.2V83.6z"/>
		<path class="st1" d="M58.9,86.9H58v-0.8h0c-0.1,0.5-0.7,0.9-1.3,0.9c-1.4,0-2-1.3-2-3.2c0-1.3,0.2-3.2,1.9-3.2
			c0.5,0,1.1,0.3,1.3,0.9h0v-2.7h1V86.9z M56.7,86.3c1.1,0,1.2-1,1.2-2.4c0-1.2-0.2-2.4-1.2-2.4c-0.9,0-1.1,0.9-1.1,2.4
			S55.9,86.3,56.7,86.3z"/>
		<path class="st1" d="M60.8,84c0,0.9,0,2.4,1.2,2.4c0.9,0,1-1,1-1.4h1c0,0.7-0.4,2.2-2.1,2.2c-1.5,0-2.1-1-2.1-3.1
			c0-1.5,0.3-3.3,2.2-3.3c1.9,0,2,1.6,2,2.9V84H60.8z M63,83.2v-0.3c0-0.7-0.2-1.5-1.1-1.5c-1,0-1.1,1.2-1.1,1.6v0.2H63z"/>
		<path class="st1" d="M66.6,78.8h1l1.6,7h0l1.6-7h1l-2.1,8.1h-1.3L66.6,78.8z"/>
		<path class="st1" d="M72,82.7c0-1.4,0.6-2,2.1-2c1.9,0,1.9,1.1,1.9,1.8v3.4c0,0.3,0,0.5,0.3,0.5c0.1,0,0.2,0,0.2-0.1v0.7
			c-0.1,0-0.3,0.1-0.6,0.1c-0.4,0-0.8,0-0.9-0.8h0c-0.3,0.5-0.9,0.9-1.5,0.9c-1.1,0-1.7-0.7-1.7-1.8c0-0.9,0.4-1.5,1.2-1.7l1.3-0.4
			C75,83,75,82.8,75,82.3c0-0.6-0.3-0.9-1-0.9c-1,0-1,1-1,1.2v0.1H72z M74.9,83.6c-0.4,0.4-1.2,0.5-1.6,0.7c-0.3,0.2-0.5,0.4-0.5,1
			c0,0.6,0.2,1.1,0.9,1.1c0.6,0,1.2-0.5,1.2-1.2V83.6z"/>
		<path class="st1" d="M77.1,78.8h1v8.1h-1V78.8z"/>
		<path class="st1" d="M79.2,78.8h1v1.1h-1V78.8z M79.2,80.8h1v6.1h-1V80.8z"/>
		<path class="st1" d="M85.4,86.9h-0.9v-0.8h0c-0.1,0.5-0.7,0.9-1.3,0.9c-1.4,0-2-1.3-2-3.2c0-1.3,0.2-3.2,1.9-3.2
			c0.5,0,1.1,0.3,1.3,0.9h0v-2.7h1V86.9z M83.2,86.3c1.1,0,1.2-1,1.2-2.4c0-1.2-0.2-2.4-1.2-2.4c-0.9,0-1.1,0.9-1.1,2.4
			S82.4,86.3,83.2,86.3z"/>
		<path class="st1" d="M86.3,82.7c0-1.4,0.6-2,2.1-2c1.9,0,1.9,1.1,1.9,1.8v3.4c0,0.3,0,0.5,0.3,0.5c0.1,0,0.2,0,0.2-0.1v0.7
			c-0.1,0-0.3,0.1-0.6,0.1c-0.4,0-0.8,0-0.9-0.8h0c-0.3,0.5-0.9,0.9-1.5,0.9c-1.1,0-1.7-0.7-1.7-1.8c0-0.9,0.4-1.5,1.2-1.7l1.3-0.4
			c0.7-0.2,0.7-0.4,0.7-0.9c0-0.6-0.3-0.9-1-0.9c-1,0-1,1-1,1.2v0.1H86.3z M89.3,83.6c-0.4,0.4-1.2,0.5-1.6,0.7
			c-0.3,0.2-0.5,0.4-0.5,1c0,0.6,0.2,1.1,0.9,1.1c0.6,0,1.2-0.5,1.2-1.2V83.6z"/>
		<path class="st1" d="M95.4,86.9h-0.9v-0.8h0c-0.1,0.5-0.7,0.9-1.3,0.9c-1.4,0-2-1.3-2-3.2c0-1.3,0.2-3.2,1.9-3.2
			c0.5,0,1.1,0.3,1.3,0.9h0v-2.7h1V86.9z M93.3,86.3c1.1,0,1.2-1,1.2-2.4c0-1.2-0.2-2.4-1.2-2.4c-0.9,0-1.1,0.9-1.1,2.4
			S92.4,86.3,93.3,86.3z"/>
		<path class="st1" d="M97.3,84c0,0.9,0,2.4,1.2,2.4c0.9,0,1-1,1-1.4h1c0,0.7-0.4,2.2-2.1,2.2c-1.5,0-2.1-1-2.1-3.1
			c0-1.5,0.3-3.3,2.2-3.3c1.9,0,2,1.6,2,2.9V84H97.3z M99.5,83.2v-0.3c0-0.7-0.2-1.5-1.1-1.5c-1,0-1.1,1.2-1.1,1.6v0.2H99.5z"/>
		<path class="st1" d="M101.6,81.2h1v1.2h-1V81.2z M101.6,85.7h1v1.2h-1V85.7z"/>
	</g>
	<g>
	</g>
	<g>
	</g>
	<g>
	</g>
	<g>
		<path class="st1" d="M40.9,99.6H43c2.4,0,2.8,1.8,2.8,3.9c0,2-0.5,3.9-2.7,3.9h-2.2V99.6z M41.9,106.6h1c1.7,0,1.9-1.7,1.9-3.1
			c0-1.5-0.1-3.1-1.9-3.1h-1V106.6z"/>
		<path class="st1" d="M47.4,104.6c0,0.9,0,2.3,1.1,2.3c0.9,0,1-0.9,1-1.4h0.9c0,0.6-0.4,2.1-2,2.1c-1.4,0-2-1-2-3
			c0-1.5,0.3-3.2,2.1-3.2c1.8,0,2,1.6,2,2.8v0.4H47.4z M49.5,103.9v-0.3c0-0.7-0.2-1.4-1-1.4c-1,0-1.1,1.2-1.1,1.5v0.2H49.5z"/>
		<path class="st1" d="M53.7,103.2c0-0.7-0.2-1.2-0.9-1.2c-0.3,0-1,0.1-1,0.9c0,0.7,0.7,0.8,1.5,1.1c0.7,0.2,1.4,0.5,1.4,1.7
			c0,1.2-0.8,1.8-1.9,1.8c-2,0-2-1.5-2-2.1h0.9c0,0.7,0.2,1.4,1.1,1.4c0.3,0,1-0.1,1-1c0-0.8-0.7-1-1.4-1.2
			c-0.7-0.2-1.5-0.5-1.5-1.7c0-1.1,0.9-1.6,1.9-1.6c1.7,0,1.8,1.2,1.8,1.9H53.7z"/>
		<path class="st1" d="M58.1,103.3c0-0.6-0.2-1.2-0.9-1.2c-0.6,0-1.2,0.3-1.2,2.4c0,0.8,0,2.3,1.1,2.3c0.8,0,1-0.8,1-1.5H59
			c0,0.9-0.5,2.2-1.9,2.2c-1.4,0-2-1-2-3c0-1.5,0.3-3.2,2.1-3.2c1.6,0,1.9,1.3,1.9,1.9H58.1z"/>
		<path class="st1" d="M61.4,101.4c1.7,0,2.1,1.4,2.1,3.1c0,1.7-0.4,3.1-2.1,3.1c-1.7,0-2.1-1.4-2.1-3.1
			C59.3,102.8,59.8,101.4,61.4,101.4z M62.6,104.5c0-1.3-0.2-2.4-1.2-2.4c-0.9,0-1.1,1.1-1.1,2.4c0,1.3,0.2,2.4,1.1,2.4
			C62.4,106.8,62.6,105.7,62.6,104.5z"/>
		<path class="st1" d="M64.2,101.5H65v0.7h0c0.2-0.5,0.9-0.8,1.4-0.8c1.6,0,1.6,1.2,1.6,1.9v4.2h-0.9v-4.1c0-0.5,0-1.2-0.9-1.2
			c-0.5,0-1.2,0.3-1.2,1.2v4.1h-0.9V101.5z"/>
		<path class="st1" d="M72.8,107c0,1.8-0.8,2.4-2,2.4c-0.4,0-1.8,0-1.9-1.5h0.9c0,0.5,0.5,0.7,0.9,0.7c1.2,0,1.1-0.9,1.1-1.3v-0.8h0
			c-0.2,0.5-0.7,0.8-1.3,0.8c-1.7,0-1.8-2.2-1.8-2.9c0-1.6,0.4-3.1,1.9-3.1c0.6,0,1.2,0.4,1.3,0.9h0v-0.7h0.9V107z M69.7,104.5
			c0,1,0.1,2.2,1.1,2.2c1,0,1.2-0.9,1.2-2.2c0-1.1-0.2-2.3-1.2-2.3C69.9,102.2,69.7,103.1,69.7,104.5z"/>
		<path class="st1" d="M74.4,104.6c0,0.9,0,2.3,1.1,2.3c0.9,0,1-0.9,1-1.4h0.9c0,0.6-0.4,2.1-2,2.1c-1.4,0-2-1-2-3
			c0-1.5,0.3-3.2,2.1-3.2c1.8,0,2,1.6,2,2.8v0.4H74.4z M76.6,103.9v-0.3c0-0.7-0.2-1.4-1-1.4c-1,0-1.1,1.2-1.1,1.5v0.2H76.6z"/>
		<path class="st1" d="M78.3,99.6h0.9v7.9h-0.9V99.6z"/>
		<path class="st1" d="M80,103.3c0-1.3,0.6-1.9,2-1.9c1.8,0,1.8,1.1,1.8,1.7v3.3c0,0.2,0,0.5,0.3,0.5c0.1,0,0.2,0,0.2-0.1v0.7
			c-0.1,0-0.3,0.1-0.5,0.1c-0.4,0-0.8,0-0.8-0.8h0c-0.3,0.5-0.9,0.8-1.4,0.8c-1.1,0-1.6-0.7-1.6-1.7c0-0.8,0.4-1.4,1.1-1.6l1.2-0.4
			c0.7-0.2,0.7-0.4,0.7-0.9c0-0.5-0.3-0.9-0.9-0.9c-1,0-1,0.9-1,1.2v0.1H80z M82.8,104.2c-0.3,0.4-1.2,0.4-1.6,0.7
			c-0.3,0.2-0.5,0.4-0.5,0.9c0,0.6,0.2,1,0.8,1c0.6,0,1.2-0.5,1.2-1.1V104.2z"/>
		<path class="st1" d="M88.5,107.4h-0.9v-0.7h0c-0.1,0.4-0.6,0.9-1.3,0.9c-1.4,0-1.9-1.2-1.9-3.1c0-1.2,0.2-3.1,1.9-3.1
			c0.5,0,1.1,0.3,1.3,0.8h0v-2.6h0.9V107.4z M86.5,106.8c1,0,1.2-1,1.2-2.3c0-1.1-0.2-2.3-1.2-2.3c-0.9,0-1.1,0.9-1.1,2.3
			S85.6,106.8,86.5,106.8z"/>
		<path class="st1" d="M91.2,101.4c1.7,0,2.1,1.4,2.1,3.1c0,1.7-0.4,3.1-2.1,3.1c-1.7,0-2.1-1.4-2.1-3.1
			C89.1,102.8,89.5,101.4,91.2,101.4z M92.4,104.5c0-1.3-0.2-2.4-1.2-2.4c-0.9,0-1.1,1.1-1.1,2.4c0,1.3,0.2,2.4,1.1,2.4
			C92.2,106.8,92.4,105.7,92.4,104.5z"/>
		<path class="st1" d="M108.1,99.6h2.5c1.2,0,2,0.7,2,2c0,0.9-0.3,1.8-1.2,2v0c0.7,0.1,1.1,0.6,1.1,1.3l0.1,1.3
			c0,0.9,0.2,1.1,0.4,1.2h-1.2c-0.2-0.2-0.2-0.7-0.3-1.1l-0.1-1.2c-0.1-1.1-0.7-1.1-1.2-1.1h-1.3v3.5h-1V99.6z M109.1,103.1h1
			c0.6,0,1.6,0,1.6-1.5c0-0.8-0.5-1.3-1.4-1.3h-1.2V103.1z"/>
		<path class="st1" d="M114.2,104.6c0,0.9,0,2.3,1.1,2.3c0.9,0,1-0.9,1-1.4h0.9c0,0.6-0.4,2.1-2,2.1c-1.4,0-2-1-2-3
			c0-1.5,0.3-3.2,2.1-3.2c1.8,0,2,1.6,2,2.8v0.4H114.2z M116.4,103.9v-0.3c0-0.7-0.2-1.4-1-1.4c-1,0-1.1,1.2-1.1,1.5v0.2H116.4z"/>
		<path class="st1" d="M120.5,103.2c0-0.7-0.2-1.2-0.9-1.2c-0.3,0-1,0.1-1,0.9c0,0.7,0.7,0.8,1.5,1.1c0.7,0.2,1.4,0.5,1.4,1.7
			c0,1.2-0.8,1.8-1.9,1.8c-2,0-2-1.5-2-2.1h0.9c0,0.7,0.2,1.4,1.1,1.4c0.3,0,1-0.1,1-1c0-0.8-0.7-1-1.4-1.2
			c-0.7-0.2-1.5-0.5-1.5-1.7c0-1.1,0.9-1.6,1.9-1.6c1.7,0,1.8,1.2,1.8,1.9H120.5z"/>
		<path class="st1" d="M122.4,102.2h-0.9v-0.7h0.9v-0.7c0-0.9,0.4-1.4,1.3-1.4h0.7v0.8h-0.4c-0.4,0-0.6,0.2-0.6,0.6v0.7h1v0.7h-1
			v5.2h-0.9V102.2z"/>
		<path class="st1" d="M124.7,101.5h0.9v0.9h0c0.3-0.6,0.6-1,1.3-1c0.2,0,0.3,0,0.4,0.1v0.9c-0.1,0-0.2,0-0.5,0
			c-0.5,0-1.2,0.4-1.2,1.4v3.7h-0.9V101.5z"/>
		<path class="st1" d="M127.6,99.6h0.9v1.1h-0.9V99.6z M127.6,101.5h0.9v5.9h-0.9V101.5z"/>
		<path class="st1" d="M129.3,103.3c0-1.3,0.6-1.9,2-1.9c1.8,0,1.8,1.1,1.8,1.7v3.3c0,0.2,0,0.5,0.3,0.5c0.1,0,0.2,0,0.2-0.1v0.7
			c-0.1,0-0.3,0.1-0.5,0.1c-0.4,0-0.8,0-0.8-0.8h0c-0.3,0.5-0.9,0.8-1.4,0.8c-1.1,0-1.6-0.7-1.6-1.7c0-0.8,0.4-1.4,1.1-1.6l1.2-0.4
			c0.7-0.2,0.7-0.4,0.7-0.9c0-0.5-0.3-0.9-0.9-0.9c-1,0-1,0.9-1,1.2v0.1H129.3z M132.2,104.2c-0.3,0.4-1.2,0.4-1.6,0.7
			c-0.3,0.2-0.5,0.4-0.5,0.9c0,0.6,0.2,1,0.8,1c0.6,0,1.2-0.5,1.2-1.1V104.2z"/>
		<path class="st1" d="M137.9,107.4H137v-0.7h0c-0.1,0.4-0.6,0.9-1.3,0.9c-1.4,0-1.9-1.2-1.9-3.1c0-1.2,0.2-3.1,1.9-3.1
			c0.5,0,1.1,0.3,1.3,0.8h0v-2.6h0.9V107.4z M135.8,106.8c1,0,1.2-1,1.2-2.3c0-1.1-0.2-2.3-1.2-2.3c-0.9,0-1.1,0.9-1.1,2.3
			S135,106.8,135.8,106.8z"/>
		<path class="st1" d="M140.6,101.4c1.7,0,2.1,1.4,2.1,3.1c0,1.7-0.4,3.1-2.1,3.1c-1.7,0-2.1-1.4-2.1-3.1
			C138.5,102.8,138.9,101.4,140.6,101.4z M141.8,104.5c0-1.3-0.2-2.4-1.2-2.4c-0.9,0-1.1,1.1-1.1,2.4c0,1.3,0.2,2.4,1.1,2.4
			C141.6,106.8,141.8,105.7,141.8,104.5z"/>
		<path class="st1" d="M160,104.7c-0.1,1.5-0.7,2.8-2.4,2.8c-2.2,0-2.5-2.1-2.5-4.1s0.4-4.1,2.5-4.1c1.6,0,2.3,0.9,2.3,2.4h-1
			c0-0.9-0.3-1.6-1.3-1.6c-1.3,0-1.5,1.5-1.5,3.3s0.2,3.3,1.5,3.3c1.2,0,1.3-1.1,1.4-2.1H160z"/>
		<path class="st1" d="M162.4,101.4c1.7,0,2.1,1.4,2.1,3.1c0,1.7-0.4,3.1-2.1,3.1c-1.7,0-2.1-1.4-2.1-3.1
			C160.3,102.8,160.7,101.4,162.4,101.4z M163.5,104.5c0-1.3-0.2-2.4-1.2-2.4c-0.9,0-1.1,1.1-1.1,2.4c0,1.3,0.2,2.4,1.1,2.4
			C163.3,106.8,163.5,105.7,163.5,104.5z"/>
		<path class="st1" d="M165.1,101.5h0.9v0.7h0c0.2-0.5,0.9-0.8,1.4-0.8c1.6,0,1.6,1.2,1.6,1.9v4.2H168v-4.1c0-0.5,0-1.2-0.9-1.2
			c-0.5,0-1.2,0.3-1.2,1.2v4.1h-0.9V101.5z"/>
		<path class="st1" d="M173.7,107c0,1.8-0.8,2.4-2,2.4c-0.4,0-1.8,0-1.9-1.5h0.9c0,0.5,0.5,0.7,0.9,0.7c1.2,0,1.1-0.9,1.1-1.3v-0.8
			h0c-0.2,0.5-0.7,0.8-1.3,0.8c-1.7,0-1.8-2.2-1.8-2.9c0-1.6,0.4-3.1,1.9-3.1c0.6,0,1.2,0.4,1.3,0.9h0v-0.7h0.9V107z M170.6,104.5
			c0,1,0.1,2.2,1.1,2.2c1,0,1.2-0.9,1.2-2.2c0-1.1-0.2-2.3-1.2-2.3C170.8,102.2,170.6,103.1,170.6,104.5z"/>
		<path class="st1" d="M175.4,104.6c0,0.9,0,2.3,1.1,2.3c0.9,0,1-0.9,1-1.4h0.9c0,0.6-0.4,2.1-2,2.1c-1.4,0-2-1-2-3
			c0-1.5,0.3-3.2,2.1-3.2c1.8,0,2,1.6,2,2.8v0.4H175.4z M177.5,103.9v-0.3c0-0.7-0.2-1.4-1-1.4c-1,0-1.1,1.2-1.1,1.5v0.2H177.5z"/>
		<path class="st1" d="M179.2,99.6h0.9v7.9h-0.9V99.6z"/>
		<path class="st1" d="M180.9,103.3c0-1.3,0.6-1.9,2-1.9c1.8,0,1.8,1.1,1.8,1.7v3.3c0,0.2,0,0.5,0.3,0.5c0.1,0,0.2,0,0.2-0.1v0.7
			c-0.1,0-0.3,0.1-0.5,0.1c-0.4,0-0.8,0-0.8-0.8h0c-0.3,0.5-0.9,0.8-1.4,0.8c-1.1,0-1.6-0.7-1.6-1.7c0-0.8,0.4-1.4,1.1-1.6l1.2-0.4
			c0.7-0.2,0.7-0.4,0.7-0.9c0-0.5-0.3-0.9-0.9-0.9c-1,0-1,0.9-1,1.2v0.1H180.9z M183.7,104.2c-0.3,0.4-1.2,0.4-1.6,0.7
			c-0.3,0.2-0.5,0.4-0.5,0.9c0,0.6,0.2,1,0.8,1c0.6,0,1.2-0.5,1.2-1.1V104.2z"/>
		<path class="st1" d="M189.5,107.4h-0.9v-0.7h0c-0.1,0.4-0.6,0.9-1.3,0.9c-1.4,0-1.9-1.2-1.9-3.1c0-1.2,0.2-3.1,1.9-3.1
			c0.5,0,1.1,0.3,1.3,0.8h0v-2.6h0.9V107.4z M187.4,106.8c1,0,1.2-1,1.2-2.3c0-1.1-0.2-2.3-1.2-2.3c-0.9,0-1.1,0.9-1.1,2.3
			S186.5,106.8,187.4,106.8z"/>
		<path class="st1" d="M192.2,101.4c1.7,0,2.1,1.4,2.1,3.1c0,1.7-0.4,3.1-2.1,3.1c-1.7,0-2.1-1.4-2.1-3.1
			C190,102.8,190.5,101.4,192.2,101.4z M193.3,104.5c0-1.3-0.2-2.4-1.2-2.4c-0.9,0-1.1,1.1-1.1,2.4c0,1.3,0.2,2.4,1.1,2.4
			C193.1,106.8,193.3,105.7,193.3,104.5z"/>
	</g>
	<g>
		<path class="st1" d="M40.3,107.5h-7.7v-7.9h7.7V107.5z M33.2,106.9h6.6v-6.8h-6.6V106.9z"/>
	</g>
	<g>
		<path class="st1" d="M107.2,107.5h-7.7v-7.9h7.7V107.5z M100,106.9h6.6v-6.8H100V106.9z"/>
	</g>
	<g>
		<path class="st1" d="M154.5,107.5h-7.7v-7.9h7.7V107.5z M147.4,106.9h6.6v-6.8h-6.6V106.9z"/>
	</g>
	<g>
		<path class="st1" d="M193.2,88.4c0.5,0,1.2,0,1.2-0.9c0-0.7-0.5-0.8-0.7-0.8v-0.8c0.3,0,1.1,0.3,1.1,1.6c0,1.2-0.5,1.7-1.6,1.7
			c-0.8,0-1.7-0.2-1.7-1.7c0-1.5,0.8-1.6,1.5-1.6h0.2V88.4z M192.8,86.7h-0.2c-0.4,0-0.8,0.2-0.8,0.8c0,0.8,0.6,0.9,0.8,0.9h0.1
			V86.7z"/>
		<path class="st1" d="M190.6,84.9v-0.8h0.9v-0.8h0.4v0.8h2c0.3,0,0.4-0.1,0.4-0.5c0-0.2,0-0.3,0-0.3h0.4c0,0.1,0,0.3,0,0.6
			c0,0.8-0.2,1-0.6,1h-2.2v0.7h-0.4v-0.7H190.6z"/>
		<path class="st1" d="M190.5,82.7V82h0.6v0.8H190.5z M191.5,82.7V82h3.1v0.8H191.5z"/>
		<path class="st1" d="M192.5,78.7c-0.3,0-0.6,0.2-0.6,0.8c0,0.5,0.2,0.9,1.3,0.9c0.4,0,1.2,0,1.2-0.9c0-0.6-0.4-0.8-0.8-0.8v-0.8
			c0.5,0,1.2,0.4,1.2,1.6c0,1.2-0.5,1.7-1.6,1.7c-0.8,0-1.7-0.2-1.7-1.7c0-1.3,0.7-1.5,1-1.5V78.7z"/>
		<path class="st1" d="M194.7,73.6v0.9l-1.5,1.3l0.5,0.6h1.1v0.8h-4.2v-0.8h2.5v0l-1.4-1.7v-0.9l1.2,1.5L194.7,73.6z"/>
		<path class="st1" d="M193.2,72.5c0.5,0,1.2,0,1.2-0.9c0-0.7-0.5-0.8-0.7-0.8v-0.8c0.3,0,1.1,0.3,1.1,1.6c0,1.2-0.5,1.7-1.6,1.7
			c-0.8,0-1.7-0.2-1.7-1.7c0-1.5,0.8-1.6,1.5-1.6h0.2V72.5z M192.8,70.8h-0.2c-0.4,0-0.8,0.2-0.8,0.8c0,0.8,0.6,0.9,0.8,0.9h0.1
			V70.8z"/>
		<path class="st1" d="M190.6,69v-0.8h0.9v-0.8h0.4v0.8h2c0.3,0,0.4-0.1,0.4-0.5c0-0.2,0-0.3,0-0.3h0.4c0,0.1,0,0.3,0,0.6
			c0,0.8-0.2,1-0.6,1h-2.2v0.7h-0.4V69H190.6z"/>
		<path class="st1" d="M192.5,67c-0.7,0-1-0.5-1-1.6c0-1.5,0.6-1.5,0.9-1.5h1.7c0.1,0,0.3,0,0.3-0.2c0-0.1,0-0.1,0-0.2h0.4
			c0,0.1,0,0.3,0,0.4c0,0.3,0,0.6-0.4,0.7v0c0.3,0.2,0.5,0.7,0.5,1.2c0,0.9-0.4,1.3-0.9,1.3c-0.4,0-0.7-0.3-0.9-0.9l-0.2-1
			c-0.1-0.5-0.2-0.5-0.5-0.5c-0.3,0-0.5,0.3-0.5,0.8c0,0.8,0.5,0.8,0.6,0.8h0V67z M193,64.7c0.2,0.3,0.2,0.9,0.4,1.3
			c0.1,0.2,0.2,0.4,0.5,0.4c0.3,0,0.5-0.2,0.5-0.7c0-0.5-0.3-1-0.6-1H193z"/>
		<path class="st1" d="M194,62.7v-0.8h0.6v0.8H194z"/>
		<path class="st1" d="M192.5,58.5c-0.3,0-0.6,0.2-0.6,0.8c0,0.5,0.2,0.9,1.3,0.9c0.4,0,1.2,0,1.2-0.9c0-0.6-0.4-0.8-0.8-0.8v-0.8
			c0.5,0,1.2,0.4,1.2,1.6c0,1.2-0.5,1.7-1.6,1.7c-0.8,0-1.7-0.2-1.7-1.7c0-1.3,0.7-1.5,1-1.5V58.5z"/>
		<path class="st1" d="M191.5,55.5c0-1.4,0.8-1.7,1.6-1.7c0.9,0,1.6,0.3,1.6,1.7c0,1.4-0.8,1.7-1.6,1.7
			C192.2,57.2,191.5,56.8,191.5,55.5z M193.1,54.5c-0.7,0-1.3,0.2-1.3,1c0,0.8,0.6,0.9,1.3,0.9s1.3-0.2,1.3-0.9
			C194.4,54.7,193.8,54.5,193.1,54.5z"/>
		<path class="st1" d="M191.5,52.9v-0.7h0.4v0c-0.3-0.2-0.4-0.7-0.4-1.2c0-0.6,0.1-0.9,0.5-1c-0.3-0.2-0.5-0.6-0.5-1.1
			c0-1.3,0.6-1.3,1-1.3h2.2v0.8h-2.2c-0.2,0-0.6,0-0.6,0.6c0,0.3,0.1,0.9,0.6,0.9h2.2v0.8h-2.2c-0.2,0-0.6,0-0.6,0.6
			c0,0.3,0.1,0.9,0.6,0.9h2.2v0.8H191.5z"/>
		<path class="st1" d="M194,46.4v-0.8h0.6v0.8H194z"/>
		<path class="st1" d="M190.5,44.4v-0.8h1.4v0c-0.3-0.2-0.4-0.6-0.4-1.1c0-1.3,1-1.5,1.6-1.5c0.9,0,1.6,0.5,1.6,1.6
			c0,0.5-0.2,0.9-0.5,1v0h0.4v0.7H190.5z M194.3,42.7c0-0.7-0.5-0.9-1.2-0.9c-0.7,0-1.2,0.2-1.2,0.9c0,0.8,0.6,1,1.2,1
			C193.7,43.7,194.3,43.5,194.3,42.7z"/>
		<path class="st1" d="M191.5,40.2v-0.8h0.5v0c-0.3-0.2-0.5-0.5-0.5-1c0-0.2,0-0.3,0-0.3h0.5c0,0.1,0,0.2,0,0.4c0,0.4,0.2,1,0.7,1h2
			v0.8H191.5z"/>
	</g>
	<g>
		<polygon class="st1" points="162.6,72.1 162.1,71.9 165.4,63 166,63.2 		"/>
	</g>
	<g>
		<polygon class="st1" points="137.2,72.1 136.7,71.9 140,63 140.6,63.2 		"/>
	</g>
	<g>
		<polygon class="st1" points="162.2,87.2 161.7,87 165,78.1 165.5,78.3 		"/>
	</g>
	<g>
		<polygon class="st1" points="137.1,87.2 136.5,87 139.9,78.1 140.4,78.3 		"/>
	</g>
</g>
</svg>
