<?xml version="1.0" encoding="utf-8"?>
<!-- Generator: Adobe Illustrator 21.0.0, SVG Export Plug-In . SVG Version: 6.00 Build 0)  -->
<svg version="1.1" id="Layer_1" xmlns="http://www.w3.org/2000/svg" xmlns:xlink="http://www.w3.org/1999/xlink" x="0px" y="0px"
	 viewBox="0 0 252 267" style="enable-background:new 0 0 252 267;" xml:space="preserve">
<style type="text/css">
	.st0{fill:#7A2879;}
	.st1{fill-rule:evenodd;clip-rule:evenodd;fill:none;stroke:#7A2879;stroke-width:0.5;stroke-miterlimit:22.9256;}
</style>
<g>
	<g>
		<path class="st1" d="M47.3,15.9H205c3.1,0,5.7,2.6,5.7,5.7v102c0,3.1-2.6,5.7-5.7,5.7H47.3c-3.1,0-5.7-2.6-5.7-5.7v-102
			C41.7,18.5,44.2,15.9,47.3,15.9z"/>
		<g>
			<line class="st1" x1="41.3" y1="101" x2="47" y2="101"/>
			<line class="st1" x1="48.4" y1="101" x2="54" y2="101"/>
			<line class="st1" x1="55.5" y1="101" x2="61.1" y2="101"/>
			<line class="st1" x1="62.5" y1="101" x2="68.2" y2="101"/>
		</g>
		<g>
			<line class="st1" x1="41.3" y1="72.6" x2="47" y2="72.6"/>
			<line class="st1" x1="48.4" y1="72.6" x2="54" y2="72.6"/>
			<line class="st1" x1="55.5" y1="72.6" x2="61.1" y2="72.6"/>
			<line class="st1" x1="62.5" y1="72.6" x2="68.2" y2="72.6"/>
		</g>
		<g>
			<line class="st1" x1="41.7" y1="44.3" x2="47.3" y2="44.3"/>
			<line class="st1" x1="48.7" y1="44.3" x2="54.4" y2="44.3"/>
			<line class="st1" x1="55.8" y1="44.3" x2="61.5" y2="44.3"/>
			<line class="st1" x1="62.9" y1="44.3" x2="68.5" y2="44.3"/>
		</g>
		<g>
			<g>
				<g>
					<line class="st1" x1="183.8" y1="101" x2="189.5" y2="101"/>
					<line class="st1" x1="190.9" y1="101" x2="196.5" y2="101"/>
					<line class="st1" x1="198" y1="101" x2="203.6" y2="101"/>
					<line class="st1" x1="205" y1="101" x2="210.7" y2="101"/>
				</g>
				<g>
					<line class="st1" x1="183.8" y1="72.6" x2="189.5" y2="72.6"/>
					<line class="st1" x1="190.9" y1="72.6" x2="196.5" y2="72.6"/>
					<line class="st1" x1="198" y1="72.6" x2="203.6" y2="72.6"/>
					<line class="st1" x1="205" y1="72.6" x2="210.7" y2="72.6"/>
				</g>
				<g>
					<line class="st1" x1="183.8" y1="44.3" x2="189.5" y2="44.3"/>
					<line class="st1" x1="190.9" y1="44.3" x2="196.5" y2="44.3"/>
					<line class="st1" x1="198" y1="44.3" x2="203.6" y2="44.3"/>
					<line class="st1" x1="205" y1="44.3" x2="210.7" y2="44.3"/>
				</g>
			</g>
			<g>
				<g>
					<line class="st1" x1="183.8" y1="101" x2="189.5" y2="101"/>
					<line class="st1" x1="190.9" y1="101" x2="196.5" y2="101"/>
					<line class="st1" x1="198" y1="101" x2="203.6" y2="101"/>
					<line class="st1" x1="205" y1="101" x2="210.7" y2="101"/>
				</g>
				<g>
					<line class="st1" x1="183.8" y1="72.6" x2="189.5" y2="72.6"/>
					<line class="st1" x1="190.9" y1="72.6" x2="196.5" y2="72.6"/>
					<line class="st1" x1="198" y1="72.6" x2="203.6" y2="72.6"/>
					<line class="st1" x1="205" y1="72.6" x2="210.7" y2="72.6"/>
				</g>
				<g>
					<line class="st1" x1="183.8" y1="44.3" x2="189.5" y2="44.3"/>
					<line class="st1" x1="190.9" y1="44.3" x2="196.5" y2="44.3"/>
					<line class="st1" x1="198" y1="44.3" x2="203.6" y2="44.3"/>
					<line class="st1" x1="205" y1="44.3" x2="210.7" y2="44.3"/>
				</g>
			</g>
		</g>
		<g>
			<g>
				<line class="st1" x1="125.5" y1="42.8" x2="125.5" y2="37.2"/>
				<line class="st1" x1="125.5" y1="35.8" x2="125.5" y2="30.1"/>
				<line class="st1" x1="125.5" y1="28.7" x2="125.5" y2="23"/>
				<line class="st1" x1="125.5" y1="21.6" x2="125.5" y2="15.9"/>
			</g>
			<g>
				<line class="st1" x1="90.1" y1="42.8" x2="90.1" y2="37.2"/>
				<line class="st1" x1="90.1" y1="35.8" x2="90.1" y2="30.1"/>
				<line class="st1" x1="90.1" y1="28.7" x2="90.1" y2="23"/>
				<line class="st1" x1="90.1" y1="21.6" x2="90.1" y2="15.9"/>
			</g>
			<g>
				<line class="st1" x1="160.8" y1="42.8" x2="160.8" y2="37.2"/>
				<line class="st1" x1="160.8" y1="35.8" x2="160.8" y2="30.1"/>
				<line class="st1" x1="160.8" y1="28.7" x2="160.8" y2="23"/>
				<line class="st1" x1="160.8" y1="21.6" x2="160.8" y2="15.9"/>
			</g>
		</g>
		<g>
			<g>
				<line class="st1" x1="125.5" y1="129.3" x2="125.5" y2="123.6"/>
				<line class="st1" x1="125.5" y1="122.2" x2="125.5" y2="116.5"/>
				<line class="st1" x1="125.5" y1="115.1" x2="125.5" y2="109.5"/>
				<line class="st1" x1="125.5" y1="108" x2="125.5" y2="102.4"/>
			</g>
			<g>
				<line class="st1" x1="90.1" y1="129.3" x2="90.1" y2="123.6"/>
				<line class="st1" x1="90.1" y1="122.2" x2="90.1" y2="116.5"/>
				<line class="st1" x1="90.1" y1="115.1" x2="90.1" y2="109.5"/>
				<line class="st1" x1="90.1" y1="108" x2="90.1" y2="102.4"/>
			</g>
			<g>
				<line class="st1" x1="160.8" y1="129.3" x2="160.8" y2="123.6"/>
				<line class="st1" x1="160.8" y1="122.2" x2="160.8" y2="116.5"/>
				<line class="st1" x1="160.8" y1="115.1" x2="160.8" y2="109.5"/>
				<line class="st1" x1="160.8" y1="108" x2="160.8" y2="102.4"/>
			</g>
		</g>
	</g>
	<g>
		<path class="st1" d="M47.3,137.7H205c3.1,0,5.7,2.6,5.7,5.7v102c0,3.1-2.6,5.7-5.7,5.7H47.3c-3.1,0-5.7-2.6-5.7-5.7v-102
			C41.7,140.2,44.2,137.7,47.3,137.7z"/>
		<g>
			<line class="st1" x1="41.3" y1="222.7" x2="47" y2="222.7"/>
			<line class="st1" x1="48.4" y1="222.7" x2="54" y2="222.7"/>
			<line class="st1" x1="55.5" y1="222.7" x2="61.1" y2="222.7"/>
			<line class="st1" x1="62.5" y1="222.7" x2="68.2" y2="222.7"/>
		</g>
		<g>
			<line class="st1" x1="41.3" y1="194.4" x2="47" y2="194.4"/>
			<line class="st1" x1="48.4" y1="194.4" x2="54" y2="194.4"/>
			<line class="st1" x1="55.5" y1="194.4" x2="61.1" y2="194.4"/>
			<line class="st1" x1="62.5" y1="194.4" x2="68.2" y2="194.4"/>
		</g>
		<g>
			<line class="st1" x1="41.7" y1="166" x2="47.3" y2="166"/>
			<line class="st1" x1="48.7" y1="166" x2="54.4" y2="166"/>
			<line class="st1" x1="55.8" y1="166" x2="61.5" y2="166"/>
			<line class="st1" x1="62.9" y1="166" x2="68.5" y2="166"/>
		</g>
		<g>
			<g>
				<g>
					<line class="st1" x1="183.8" y1="222.7" x2="189.5" y2="222.7"/>
					<line class="st1" x1="190.9" y1="222.7" x2="196.5" y2="222.7"/>
					<line class="st1" x1="198" y1="222.7" x2="203.6" y2="222.7"/>
					<line class="st1" x1="205" y1="222.7" x2="210.7" y2="222.7"/>
				</g>
				<g>
					<line class="st1" x1="183.8" y1="194.4" x2="189.5" y2="194.4"/>
					<line class="st1" x1="190.9" y1="194.4" x2="196.5" y2="194.4"/>
					<line class="st1" x1="198" y1="194.4" x2="203.6" y2="194.4"/>
					<line class="st1" x1="205" y1="194.4" x2="210.7" y2="194.4"/>
				</g>
				<g>
					<line class="st1" x1="183.8" y1="166" x2="189.5" y2="166"/>
					<line class="st1" x1="190.9" y1="166" x2="196.5" y2="166"/>
					<line class="st1" x1="198" y1="166" x2="203.6" y2="166"/>
					<line class="st1" x1="205" y1="166" x2="210.7" y2="166"/>
				</g>
			</g>
			<g>
				<g>
					<line class="st1" x1="183.8" y1="222.7" x2="189.5" y2="222.7"/>
					<line class="st1" x1="190.9" y1="222.7" x2="196.5" y2="222.7"/>
					<line class="st1" x1="198" y1="222.7" x2="203.6" y2="222.7"/>
					<line class="st1" x1="205" y1="222.7" x2="210.7" y2="222.7"/>
				</g>
				<g>
					<line class="st1" x1="183.8" y1="194.4" x2="189.5" y2="194.4"/>
					<line class="st1" x1="190.9" y1="194.4" x2="196.5" y2="194.4"/>
					<line class="st1" x1="198" y1="194.4" x2="203.6" y2="194.4"/>
					<line class="st1" x1="205" y1="194.4" x2="210.7" y2="194.4"/>
				</g>
				<g>
					<line class="st1" x1="183.8" y1="166" x2="189.5" y2="166"/>
					<line class="st1" x1="190.9" y1="166" x2="196.5" y2="166"/>
					<line class="st1" x1="198" y1="166" x2="203.6" y2="166"/>
					<line class="st1" x1="205" y1="166" x2="210.7" y2="166"/>
				</g>
			</g>
		</g>
		<g>
			<g>
				<line class="st1" x1="125.5" y1="164.6" x2="125.5" y2="159"/>
				<line class="st1" x1="125.5" y1="157.5" x2="125.5" y2="151.9"/>
				<line class="st1" x1="125.5" y1="150.5" x2="125.5" y2="144.8"/>
				<line class="st1" x1="125.5" y1="143.4" x2="125.5" y2="137.7"/>
			</g>
			<g>
				<line class="st1" x1="90.1" y1="164.6" x2="90.1" y2="159"/>
				<line class="st1" x1="90.1" y1="157.5" x2="90.1" y2="151.9"/>
				<line class="st1" x1="90.1" y1="150.5" x2="90.1" y2="144.8"/>
				<line class="st1" x1="90.1" y1="143.4" x2="90.1" y2="137.7"/>
			</g>
			<g>
				<line class="st1" x1="160.8" y1="164.6" x2="160.8" y2="159"/>
				<line class="st1" x1="160.8" y1="157.5" x2="160.8" y2="151.9"/>
				<line class="st1" x1="160.8" y1="150.5" x2="160.8" y2="144.8"/>
				<line class="st1" x1="160.8" y1="143.4" x2="160.8" y2="137.7"/>
			</g>
		</g>
		<g>
			<g>
				<line class="st1" x1="125.5" y1="251.1" x2="125.5" y2="245.4"/>
				<line class="st1" x1="125.5" y1="244" x2="125.5" y2="238.3"/>
				<line class="st1" x1="125.5" y1="236.9" x2="125.5" y2="231.2"/>
				<line class="st1" x1="125.5" y1="229.8" x2="125.5" y2="224.2"/>
			</g>
			<g>
				<line class="st1" x1="90.1" y1="251.1" x2="90.1" y2="245.4"/>
				<line class="st1" x1="90.1" y1="244" x2="90.1" y2="238.3"/>
				<line class="st1" x1="90.1" y1="236.9" x2="90.1" y2="231.2"/>
				<line class="st1" x1="90.1" y1="229.8" x2="90.1" y2="224.2"/>
			</g>
			<g>
				<line class="st1" x1="160.8" y1="251.1" x2="160.8" y2="245.4"/>
				<line class="st1" x1="160.8" y1="244" x2="160.8" y2="238.3"/>
				<line class="st1" x1="160.8" y1="236.9" x2="160.8" y2="231.2"/>
				<line class="st1" x1="160.8" y1="229.8" x2="160.8" y2="224.2"/>
			</g>
		</g>
	</g>
</g>
</svg>
