<?xml version="1.0" encoding="utf-8"?>
<!-- Generator: Adobe Illustrator 21.0.0, SVG Export Plug-In . SVG Version: 6.00 Build 0)  -->
<svg version="1.1" id="Layer_1" xmlns="http://www.w3.org/2000/svg" xmlns:xlink="http://www.w3.org/1999/xlink" x="0px" y="0px"
	 viewBox="0 0 252 267" style="enable-background:new 0 0 252 267;" xml:space="preserve">
<style type="text/css">
	.st0{fill-rule:evenodd;clip-rule:evenodd;fill:none;stroke:#7A2879;stroke-width:0.216;stroke-miterlimit:22.9256;}
	
		.st1{fill-rule:evenodd;clip-rule:evenodd;fill:none;stroke:#7A2879;stroke-width:0.216;stroke-miterlimit:22.9256;stroke-dasharray:10.8,2.16;}
	.st2{fill-rule:evenodd;clip-rule:evenodd;fill:#7A2879;}
</style>
<line class="st0" x1="2.4" y1="62.9" x2="2.4" y2="204.5"/>
<line class="st1" x1="227.8" y1="211.5" x2="22.1" y2="211.5"/>
<line class="st0" x1="249" y1="204.4" x2="249" y2="62.8"/>
<line class="st0" x1="2.4" y1="8.6" x2="2.4" y2="48.6"/>
<line class="st0" x1="249" y1="48.6" x2="249" y2="8.6"/>
<line class="st0" x1="2.4" y1="218.6" x2="2.4" y2="258.6"/>
<line class="st0" x1="249" y1="258.6" x2="249" y2="218.6"/>
<path class="st0" d="M22.2,55.7L22.2,55.7c0-1.6-1.2-2.8-2.8-2.8c-4.8,0-8.3,0-13.1,0c-1.5,0-3.9-1-4-4.4"/>
<path class="st0" d="M22.2,211.6L22.2,211.6c0-1.6-1.2-2.8-2.8-2.8c-4.8,0-8.3,0-13.1,0c-1.5,0-3.9-1-4-4.4"/>
<path class="st0" d="M229.2,55.7L229.2,55.7 M229.2,55.7c0,1.6,1.2,2.8,2.8,2.8c4.8,0,8.3,0,13.1,0c1.5,0,3.9,1,4,4.4"/>
<path class="st0" d="M229.2,211.6L229.2,211.6 M229.2,211.6c0,1.6,1.2,2.8,2.8,2.8c4.8,0,8.3,0,13.1,0c1.5,0,3.9,1,4,4.4"/>
<path class="st0" d="M229.2,55.7L229.2,55.7c0-1.6,1.2-2.8,2.8-2.8c4.8,0,8.3,0,13.1,0c1.5,0,3.9-1,4-4.4"/>
<path class="st0" d="M229.2,211.6L229.2,211.6c0-1.6,1.2-2.8,2.8-2.8c4.8,0,8.3,0,13.1,0c1.5,0,3.9-1,4-4.4"/>
<path class="st0" d="M22.2,55.7L22.2,55.7c0,1.6-1.2,2.8-2.8,2.8c-4.8,0-8.3,0-13.1,0c-1.5,0-3.9,1-4,4.4"/>
<path class="st0" d="M22.2,211.6L22.2,211.6c0,1.6-1.2,2.8-2.8,2.8c-4.8,0-8.3,0-13.1,0c-1.5,0-3.9,1-4,4.4"/>
<line class="st1" x1="227.8" y1="55.6" x2="22.1" y2="55.6"/>
<g>
	<circle class="st2" cx="2.4" cy="6.7" r="0.2"/>
	<circle class="st2" cx="2.4" cy="4.7" r="0.2"/>
	<circle class="st2" cx="2.4" cy="2.7" r="0.2"/>
</g>
<g>
	<circle class="st2" cx="249" cy="6.7" r="0.2"/>
	<circle class="st2" cx="249" cy="4.7" r="0.2"/>
	<circle class="st2" cx="249" cy="2.7" r="0.2"/>
</g>
<g>
	<circle class="st2" cx="2.4" cy="260.4" r="0.2"/>
	<circle class="st2" cx="2.4" cy="262.4" r="0.2"/>
	<circle class="st2" cx="2.4" cy="264.4" r="0.2"/>
</g>
<g>
	<circle class="st2" cx="249" cy="260.4" r="0.2"/>
	<circle class="st2" cx="249" cy="262.4" r="0.2"/>
	<circle class="st2" cx="249" cy="264.4" r="0.2"/>
</g>
<g>
	<circle class="st2" cx="316" cy="125.7" r="0.2"/>
	<circle class="st2" cx="316" cy="123.7" r="0.2"/>
	<circle class="st2" cx="316" cy="121.7" r="0.2"/>
</g>
</svg>
