<?xml version="1.0" encoding="iso-8859-1"?>
<!-- Generator: Adobe Illustrator 18.0.0, SVG Export Plug-In . SVG Version: 6.00 Build 0)  -->
<!DOCTYPE svg PUBLIC "-//W3C//DTD SVG 1.1//EN" "http://www.w3.org/Graphics/SVG/1.1/DTD/svg11.dtd">
<svg xmlns="http://www.w3.org/2000/svg" xmlns:xlink="http://www.w3.org/1999/xlink" version="1.1" id="Capa_1" x="0px" y="0px" viewBox="0 0 327.638 327.638" style="enable-background:new 0 0 327.638 327.638;" xml:space="preserve" width="512px" height="512px">
<g>
	<g>
		<g>
			<path d="M231.89,267.01H95.749c-4.143,0-7.5-3.357-7.5-7.5v-76.449c0-4.143,3.357-7.5,7.5-7.5h22.994     c5.359-20.119,23.684-34.58,45.076-34.58c21.391,0,39.717,14.463,45.075,34.58h22.995c4.142,0,7.5,3.357,7.5,7.5v76.449     C239.39,263.652,236.031,267.01,231.89,267.01z M103.249,252.01H224.39v-61.449h-21.684c-3.806,0-7.008-2.851-7.449-6.632     c-1.857-15.933-15.373-27.948-31.438-27.948s-29.58,12.016-31.439,27.949c-0.44,3.78-3.643,6.631-7.45,6.631h-21.682V252.01z" fill="#FFFFFF"/>
		</g>
		<path d="M287.017,71.275c0-2.257-1.002-4.275-2.578-5.65c-0.016-0.014-0.024-0.029-0.04-0.043l-27.73-23.775    c5.815-4.195,9.61-11.024,9.61-18.725C266.278,10.354,255.925,0,243.198,0H84.44C71.714,0,61.359,10.354,61.359,23.082    c0,7.701,3.796,14.529,9.61,18.725L43.239,65.582l0.004,0.004c-1.604,1.375-2.622,3.412-2.622,5.689c0,4.143,3.358,7.5,7.5,7.5    c3.175,0,5.564,0.501,7.638,1.359c-6.774,7.236-10.738,16.699-11.031,26.891c-0.014,0.188-0.027,184.576-0.027,184.576    c0,19.87,16.166,36.036,36.037,36.036h166.164c19.871,0,36.037-16.166,36.037-36.036c0,0-0.016-184.388-0.029-184.574    c-0.291-10.192-4.251-19.66-11.021-26.897c2.07-0.855,4.459-1.354,7.629-1.354C283.659,78.775,287.017,75.418,287.017,71.275z     M84.44,15h158.758c4.455,0,8.08,3.626,8.08,8.082c0,4.455-3.625,8.08-8.08,8.08H84.44c-4.456,0-8.081-3.625-8.081-8.08    C76.359,18.626,79.984,15,84.44,15z M88.935,46.162h149.77l24.853,21.309c-3.131,1.635-5.645,3.582-7.917,5.341    c-4.421,3.424-7.615,5.897-14.694,5.897c-7.078,0-10.273-2.474-14.693-5.896c-5.199-4.026-11.67-9.037-23.876-9.037    c-12.206,0-18.676,5.011-23.874,9.037c-4.42,3.423-7.613,5.896-14.69,5.896c-7.077,0-10.27-2.474-14.691-5.896    c-5.199-4.026-11.669-9.037-23.875-9.037c-12.205,0-18.674,5.011-23.873,9.037c-4.42,3.423-7.613,5.896-14.689,5.896    c-7.076,0-10.27-2.474-14.689-5.896c-2.271-1.76-4.786-3.706-7.915-5.341L88.935,46.162z M267.938,291.602    c0,11.6-9.438,21.036-21.037,21.036H80.737c-11.601,0-21.037-9.436-21.037-21.036V108.234c0-7.59,3.195-14.609,8.721-19.544    c4.389,2.728,10.014,5.019,18.264,5.019c12.205,0,18.676-5.011,23.874-9.037c4.42-3.423,7.613-5.896,14.688-5.896    c7.076,0,10.271,2.474,14.69,5.896c5.198,4.026,11.669,9.037,23.875,9.037c12.206,0,18.676-5.011,23.874-9.037    c4.42-3.423,7.613-5.896,14.69-5.896c7.077,0,10.271,2.474,14.692,5.896c5.199,4.026,11.67,9.037,23.877,9.037    c8.254,0,13.881-2.293,18.269-5.021c5.525,4.935,8.723,11.955,8.723,19.546V291.602z" fill="#FFFFFF"/>
	</g>
</g>
<g>
</g>
<g>
</g>
<g>
</g>
<g>
</g>
<g>
</g>
<g>
</g>
<g>
</g>
<g>
</g>
<g>
</g>
<g>
</g>
<g>
</g>
<g>
</g>
<g>
</g>
<g>
</g>
<g>
</g>
</svg>
