<?xml version="1.0" encoding="iso-8859-1"?>
<!-- Generator: Adobe Illustrator 17.1.0, SVG Export Plug-In . SVG Version: 6.00 Build 0)  -->
<!DOCTYPE svg PUBLIC "-//W3C//DTD SVG 1.1//EN" "http://www.w3.org/Graphics/SVG/1.1/DTD/svg11.dtd">
<svg xmlns="http://www.w3.org/2000/svg" xmlns:xlink="http://www.w3.org/1999/xlink" version="1.1" id="Capa_1" x="0px" y="0px" viewBox="0 0 465 465" style="enable-background:new 0 0 465 465;" xml:space="preserve" width="512px" height="512px">
<g>
	<path d="M319.139,63.734H240V7.5c0-4.142-3.358-7.5-7.5-7.5S225,3.358,225,7.5v56.234h-98.994c-4.142,0-7.5,3.358-7.5,7.5v106.432   c0,0.019,0,0.037,0,0.056v0.006c0,0.011,0.002,0.022,0.002,0.033c0.001,0.237,0.012,0.474,0.036,0.712   c0.007,0.071,0.021,0.14,0.03,0.211c0.022,0.172,0.044,0.344,0.079,0.516c0.023,0.116,0.055,0.229,0.084,0.343   c0.03,0.122,0.057,0.244,0.094,0.365c0.049,0.162,0.109,0.319,0.169,0.476c0.027,0.071,0.049,0.144,0.079,0.215   c0.089,0.214,0.188,0.423,0.296,0.626c0.008,0.015,0.014,0.031,0.022,0.046l0.004,0.008c0.008,0.015,0.016,0.03,0.024,0.045   l26.158,48.827v135.219l-26.158,48.828c-0.008,0.015-0.016,0.03-0.024,0.045l-0.004,0.008c-0.008,0.015-0.014,0.031-0.022,0.046   c-0.108,0.204-0.207,0.412-0.296,0.626c-0.029,0.071-0.051,0.143-0.079,0.215c-0.06,0.157-0.119,0.314-0.169,0.476   c-0.037,0.121-0.063,0.243-0.094,0.365c-0.028,0.114-0.061,0.227-0.084,0.343c-0.034,0.172-0.057,0.344-0.079,0.516   c-0.009,0.071-0.023,0.139-0.03,0.211c-0.024,0.237-0.035,0.475-0.036,0.712c0,0.011-0.002,0.022-0.002,0.033v0.006   c0,0.019,0,0.037,0,0.056V457.5c0,4.142,3.358,7.5,7.5,7.5H232.5h86.639c15.083,0,27.354-12.271,27.354-27.355V91.089   C346.494,76.005,334.223,63.734,319.139,63.734z M138.533,185.228h12.743c4.142,0,7.5-3.358,7.5-7.5s-3.358-7.5-7.5-7.5h-17.769   V78.734H225v91.494h-46.65c-4.142,0-7.5,3.358-7.5,7.5s3.358,7.5,7.5,7.5h49.659l19.039,35.539h-89.477L138.533,185.228z    M228.009,410.291h-89.477l19.039-35.54h89.477L228.009,410.291z M252.075,235.767v123.984h-91.494V235.767H252.075z    M133.506,425.291H225V450h-91.494V425.291z M331.494,437.645c0,6.813-5.542,12.355-12.354,12.355H240v-30.327l26.158-48.828   c0.008-0.015,0.016-0.03,0.024-0.045l0.004-0.008c0.003-0.006,0.005-0.013,0.009-0.019c0.129-0.243,0.242-0.495,0.345-0.752   c0.026-0.066,0.048-0.132,0.073-0.199c0.074-0.203,0.14-0.409,0.196-0.619c0.021-0.079,0.042-0.157,0.061-0.236   c0.049-0.208,0.087-0.419,0.118-0.633c0.011-0.074,0.025-0.148,0.034-0.222c0.032-0.283,0.053-0.57,0.053-0.861V228.267   c0-0.292-0.021-0.578-0.053-0.861c-0.009-0.075-0.023-0.148-0.034-0.223c-0.031-0.214-0.069-0.425-0.118-0.633   c-0.019-0.079-0.04-0.158-0.061-0.236c-0.057-0.21-0.122-0.416-0.196-0.618c-0.024-0.066-0.047-0.133-0.073-0.199   c-0.103-0.257-0.216-0.509-0.345-0.752c-0.003-0.006-0.005-0.013-0.009-0.019l-0.004-0.008c-0.008-0.015-0.016-0.03-0.024-0.045   L240,175.845V78.734h79.139c6.813,0,12.354,5.542,12.354,12.355V437.645z" fill="#FFFFFF"/>
	<path d="M192.955,322.378h-10.113c-4.142,0-7.5,3.358-7.5,7.5s3.358,7.5,7.5,7.5h10.113c4.142,0,7.5-3.358,7.5-7.5   S197.097,322.378,192.955,322.378z" fill="#FFFFFF"/>
	<path d="M229.814,322.378h-10.113c-4.142,0-7.5,3.358-7.5,7.5s3.358,7.5,7.5,7.5h10.113c4.142,0,7.5-3.358,7.5-7.5   S233.956,322.378,229.814,322.378z" fill="#FFFFFF"/>
	<path d="M182.842,305.259h46.972c4.142,0,7.5-3.358,7.5-7.5s-3.358-7.5-7.5-7.5h-46.972c-4.142,0-7.5,3.358-7.5,7.5   S178.7,305.259,182.842,305.259z" fill="#FFFFFF"/>
	<path d="M182.842,273.14h46.972c4.142,0,7.5-3.358,7.5-7.5s-3.358-7.5-7.5-7.5h-46.972c-4.142,0-7.5,3.358-7.5,7.5   S178.7,273.14,182.842,273.14z" fill="#FFFFFF"/>
	<path d="M179.253,150.933c14.586,0,26.453-11.866,26.453-26.452c0-4.142-3.358-7.5-7.5-7.5s-7.5,3.358-7.5,7.5   c0,6.315-5.138,11.452-11.453,11.452s-11.452-5.137-11.452-11.452s5.137-11.453,11.452-11.453c4.142,0,7.5-3.358,7.5-7.5   s-3.358-7.5-7.5-7.5c-14.586,0-26.452,11.867-26.452,26.453S164.667,150.933,179.253,150.933z" fill="#FFFFFF"/>
</g>
<g>
</g>
<g>
</g>
<g>
</g>
<g>
</g>
<g>
</g>
<g>
</g>
<g>
</g>
<g>
</g>
<g>
</g>
<g>
</g>
<g>
</g>
<g>
</g>
<g>
</g>
<g>
</g>
<g>
</g>
</svg>
