<?xml version="1.0" encoding="utf-8"?>
<!-- Generator: Adobe Illustrator 21.0.0, SVG Export Plug-In . SVG Version: 6.00 Build 0)  -->
<svg version="1.1" id="Layer_1" xmlns="http://www.w3.org/2000/svg" xmlns:xlink="http://www.w3.org/1999/xlink" x="0px" y="0px"
	 viewBox="0 0 569.9 80" style="enable-background:new 0 0 569.9 80;" xml:space="preserve">
<style type="text/css">
	.st0{fill:#7A2879;}
</style>
<g>
	<path class="st0" d="M176.5,81h-32.2V12c0-1.4,0.4-2.6,1.2-3.6l0,0c0.9-1.1,2-1.7,3.2-1.7h23.2c1.4,0,2.5,0.6,3.4,1.7
		c0.8,1,1.2,2.3,1.2,3.6V81z M146.2,79h28.2V12c0-0.9-0.3-1.7-0.8-2.4c-0.5-0.6-1.1-0.9-1.8-0.9h-23.2c-0.6,0-1.2,0.3-1.7,0.9
		c-0.5,0.7-0.8,1.5-0.8,2.4V79z"/>
</g>
<g>
	<path class="st0" d="M393.9,2c3,1.7,5.7,4,8.1,6.7c6.5,7.4,9.9,17.3,9.9,29.4v6.4c0,0.6-0.2,1.2-0.7,1.7c-0.4,0.5-0.9,0.7-1.5,0.7
		h-41h-3.1l1.3,2.8c0.9,1.9,1.9,3.3,3,4.4c3.3,3.3,8.6,4.9,16.2,4.9c3.6,0,7.1-0.5,10.5-1.4c1.6-0.4,3-0.8,4.1-1.2
		c1.1-0.3,1.8-0.6,2.3-0.8c0.3-0.1,0.5-0.2,0.7-0.2c0.3,0,0.5,0.1,0.8,0.2c0.6,0.3,1.1,0.7,1.3,1.3l5,12.8l-1.3,3.8
		c-1.5,0.9-3.1,1.7-5,2.5c-2,0.8-4.1,1.4-6.3,2h-32.7c-6.4-1.8-11.9-4.9-16.5-9.2c-8-7.5-12-18.1-12-31.5c0-11.5,3.6-21.2,10.8-28.7
		c2.5-2.7,5.4-4.9,8.4-6.6H393.9 M367.6,22c-1.1,2-1.8,4.5-2.2,7.4l-0.3,2.3h2.3h15h2.2l-0.3-2.2c-0.4-3.7-1.3-6.6-2.8-8.8
		c-2-3.1-4.6-3.7-6.4-3.7C371.8,17,369.2,18.7,367.6,22 M394.4,0h-38.6c-3.4,1.9-6.5,4.3-9.3,7.3c-7.6,7.9-11.4,17.9-11.4,30
		c0,14.1,4.2,25,12.7,32.9c4.9,4.6,10.8,7.8,17.6,9.8h33.2c2.4-0.6,4.6-1.3,6.7-2.1c2.3-0.9,4.2-1.9,6-3l1.7-5.2l-5.3-13.6
		c-0.5-1.1-1.3-1.8-2.4-2.3c-0.6-0.2-1.1-0.4-1.6-0.4c-0.5,0-1.1,0.1-1.6,0.4c-0.4,0.2-1.1,0.4-2,0.7c-1,0.3-2.3,0.7-4,1.2
		c-3.2,0.9-6.5,1.3-9.9,1.3c-7,0-11.9-1.4-14.8-4.3c-1-0.9-1.8-2.1-2.6-3.8h41c1.2,0,2.1-0.4,3-1.3c0.8-0.9,1.2-1.9,1.2-3v-6.4
		c0-12.7-3.5-23-10.4-30.8C400.8,4.4,397.7,1.9,394.4,0L394.4,0z M367.3,29.7c0.4-2.7,1.1-5,2-6.8c1.2-2.6,3.2-3.9,5.8-3.9
		c1.9,0,3.5,0.9,4.8,2.8c1.2,1.9,2.1,4.5,2.4,7.9H367.3L367.3,29.7z"/>
</g>
<g>
	<path class="st0" d="M345.2,2c-0.1,0.2-0.3,0.4-0.5,0.6l0,0l0,0L312,33.7l-1.4,1.3l1.2,1.4L345,75.9c0.8,0.9,0.9,1.6,0.8,2.1h-31.5
		l-25.5-28.8l-3.5-4v5.3v26.9c0,0.2,0,0.4-0.1,0.6h-29.5c-0.1-0.2-0.1-0.4-0.1-0.6V2h29.5v20.7v4.8l3.4-3.4L310.7,2H345.2 M347.4,0
		h-37.5l-22.7,22.7V0h-33.5v77.4c0,1,0.3,1.8,0.9,2.6h31.9c0.6-0.8,0.9-1.6,0.9-2.6V50.6L313.4,80H347c0.1-0.2,0.3-0.4,0.4-0.7
		c0.7-1.6,0.4-3.2-0.9-4.8l-33.1-39.4L346,4.1c0.8-0.7,1.2-1.5,1.4-2.4C347.5,1.1,347.5,0.5,347.4,0L347.4,0z"/>
</g>
<g>
	<path class="st0" d="M240.4,2c1.6,0.6,3,1.1,4.2,1.7l0,0l0,0c0,0,0.3,0.1,0.7,0.8c0.4,0.6,0.5,0.8,0.5,0.8c0,0,0,0,0,0v0.1l0,0.1
		l1.9,19.1c0.1,1.5-0.4,2-1,2.4c-0.3,0.2-0.7,0.3-1,0.3c-0.4,0-0.9-0.2-1.4-0.5c-0.9-0.7-2.1-1.3-3.6-2c-1.5-0.7-3.4-1.5-5.6-2.4
		c-4.1-1.6-8.1-2.5-12.1-2.5c-5.2,0-9.4,2-12.4,5.8c-2.9,3.7-4.3,8.8-4.3,15.2c0,5.9,1.6,10.3,4.8,13.2c3.1,2.8,8,4.3,14.4,4.3
		c3.5,0,7.4-0.8,11.5-2.4c1.5-0.6,2.8-1.1,3.8-1.4c1-0.4,1.8-0.7,2.3-0.8l2.2-0.8c0.6,0.1,1.1,0.3,1.4,0.7c0.4,0.5,0.6,1.1,0.5,1.9
		L244.9,75l0,0.1v0.1c0,0.1-0.1,0.3-0.4,0.7c-0.4,0.6-0.7,0.8-0.7,0.8c0,0,0,0,0,0l0,0l0,0c-0.4,0.2-1.3,0.6-3.3,1.3h-38.6
		c-4.1-1.8-7.8-4.2-11-7.3c-7.3-7.3-11.1-17.2-11.1-29.5c0-6.7,1-12.6,2.8-17.7c1.9-5.1,4.7-9.6,8.4-13.4c3.4-3.5,7.5-6.2,12-8.1
		H240.4 M240.7,0h-38.1c-5,2-9.3,4.9-13.1,8.7c-3.9,4-6.9,8.7-8.9,14.1c-2,5.3-3,11.5-3,18.4c0,12.9,3.9,23.2,11.7,30.9
		c3.5,3.4,7.5,6,12,7.9h39.3c1.9-0.6,3.2-1.1,3.9-1.6c0.4-0.2,0.8-0.6,1.4-1.4c0.5-0.7,0.8-1.3,0.8-1.8l2.6-19.4
		c0.2-1.3-0.1-2.5-0.9-3.5c-0.8-1-1.9-1.4-3.2-1.4c-0.7,0-1.2,0.1-1.6,0.2c-0.4,0.1-0.8,0.4-1.3,0.7h0.3c-0.6,0.2-1.4,0.5-2.4,0.9
		c-1,0.4-2.3,0.9-3.8,1.4c-3.9,1.5-7.5,2.3-10.8,2.3c-6,0-10.3-1.3-13.1-3.8c-2.8-2.5-4.2-6.4-4.2-11.7c0-6,1.3-10.6,3.9-14
		c2.6-3.4,6.2-5.1,10.8-5.1c3.7,0,7.5,0.8,11.4,2.3c2.2,0.9,4,1.6,5.5,2.3c1.4,0.7,2.5,1.3,3.3,1.9c0.9,0.6,1.7,0.9,2.5,0.9
		c0.7,0,1.4-0.2,2.1-0.6c1.4-0.9,2.1-2.3,1.9-4.3l-1.9-19.1c0-0.6-0.3-1.3-0.9-2c-0.6-0.8-1.1-1.3-1.6-1.4
		C244,1.3,242.5,0.6,240.7,0L240.7,0z"/>
</g>
<g>
	<path class="st0" d="M172.1,2c-0.2,0.1-0.3,0.1-0.4,0.1h-23.2c-0.2,0-0.3,0-0.5-0.1H172.1 M175.1,0h-30.2c0,1.1,0.4,2,1,2.8
		c0.7,0.9,1.5,1.3,2.6,1.3h23.2c1,0,1.8-0.4,2.4-1.3C174.7,2,175.1,1.1,175.1,0L175.1,0z"/>
</g>
<g>
	<path class="st0" d="M544.2,2c2.9,1.1,5.4,2.6,7.5,4.3c3.1,2.6,5.4,5.9,6.9,10.1c1.5,4.2,2.3,9.5,2.3,15.6v29.6v0.9l0.7,0.6l1,0.9
		l0.1,0.1l0.1,0.1l1,0.7l0.5,0.4h0.6c0.6,0,1.1,0.1,1.5,0.4c0.4,0.3,0.7,0.6,0.8,1c0.2,0.4,0.2,0.8,0.1,1.3
		c-0.1,0.4-0.4,0.8-0.9,1.2l0,0l0,0L555.8,78h-14c-0.2-0.2-0.4-0.3-0.6-0.5c-0.7-0.6-1.3-1.1-1.8-1.6c-0.5-0.4-0.9-0.9-1.3-1.4
		l-1-1.2l-1.4,0.7c-2.9,1.5-6,2.8-9.1,3.9h-35.8c-1.6-0.9-3.1-1.9-4.4-3.1c-0.6-0.6-1.2-1.2-1.8-1.9l-3.5-4v5.3V78h-46.6
		c-1.4-3.3-2.1-7.5-2.1-12.4V28.7v-2h-2h-11.7c-0.3,0-0.8-0.1-1.5-0.7c-0.5-0.5-0.7-1-0.7-1.8V8.8c0-0.7,0.2-1.2,0.7-1.7
		c0.6-0.6,1.2-0.7,1.5-0.7h11.7h2v-2V2h28.4l0,2.5l0,2h2h16.1c0.6,0,1.1,0.2,1.5,0.6c0.4,0.4,0.6,1,0.6,1.7v2.7l4,0.1
		c0-0.3,0-0.5,0.1-0.7c0.2-0.7,0.4-1.1,0.5-1.2c0.9-0.8,2.5-1.8,4.5-2.9c2.2-1.2,5.1-2.5,8.6-3.9c0.9-0.3,1.7-0.6,2.6-0.9H544.2
		 M466.2,66.8c2.6,0,5-0.4,7.1-1.1c1.9-0.7,3.4-1.3,4.6-1.8c0.1,0,0.2-0.1,0.2-0.1l1.5-0.6l-0.2-1.6c-0.2-1.5-0.3-3-0.3-4.4
		c0-7.9,3.6-14.3,11-19.4c3.7-2.5,8-4.4,12.8-5.7c3.9-1.1,8.2-1.7,12.9-1.7c1,0,2,0,3,0.1l12.1,0.6l2.2,0.1l-0.1-2.2
		c-0.1-3.6-1.4-6.4-3.8-8.2c-2.3-1.7-5.3-2.6-9.1-2.6c-2.6,0-5.1,0.2-7.5,0.6c-2.4,0.4-4.9,1.1-7.5,2.1c-2.2,0.9-4.2,1.7-6.1,2.5
		c-1.9,0.8-3.6,1.6-5.3,2.3l-0.1,0l-0.1,0c-0.3,0.2-0.6,0.3-0.9,0.3c-0.3,0-0.5-0.1-0.8-0.2c-0.7-0.2-1.1-0.6-1.4-1.3l-5.4-12.5
		c0-0.1-0.1-0.3-0.1-0.5l-4,0.1v12.3c0,0.7-0.2,1.3-0.7,1.8c-0.4,0.5-0.9,0.7-1.5,0.7h-16.1h-2v2v30.6c0,2.3,0.5,4,1.4,5.3
		C463,66.1,464.5,66.8,466.2,66.8 M516.2,63c4,0,7.7-0.7,11.1-2c1-0.4,1.9-0.8,2.6-1.1c0.8-0.3,1.5-0.6,2.1-0.9l1.2-0.5v-1.3v-6.8
		v-2h-2h-0.4c-10.3,0-24,0.9-24,9.1C506.8,59.9,508.5,63,516.2,63 M544.6,0h-43.7c-1,0.3-2,0.7-3,1c-3.6,1.4-6.6,2.8-8.9,4
		c-2.3,1.2-3.9,2.3-5,3.2c-0.5,0.5-0.8,1.2-1.1,2.2c-0.1,0.4-0.1,0.7-0.1,1.1V8.8c0-1.3-0.4-2.3-1.2-3.1c-0.8-0.8-1.8-1.2-3-1.2
		h-16.1l0-4.5h-32.4v4.5h-11.7c-1.1,0-2,0.4-2.9,1.2c-0.9,0.8-1.3,1.9-1.3,3.1v15.5c0,1.3,0.4,2.3,1.3,3.2c0.9,0.9,1.8,1.3,2.9,1.3
		h11.7v36.8c0,5.9,0.9,10.7,2.8,14.4h49.9v-5.6c0.6,0.7,1.3,1.4,2,2c1.6,1.4,3.3,2.6,5.3,3.6h36.6c3.4-1.2,6.6-2.6,9.7-4.2
		c0.5,0.6,1,1.1,1.5,1.6c0.5,0.5,1.1,1,1.8,1.6c0.4,0.3,0.8,0.7,1.3,1h15.4l11.2-9.4c0.9-0.7,1.4-1.4,1.6-2.3
		c0.2-0.9,0.1-1.7-0.1-2.5c-0.3-0.8-0.8-1.4-1.5-1.9c-0.7-0.5-1.6-0.8-2.7-0.8l-1-0.7l-1-0.9V31.9c0-6.4-0.8-11.8-2.4-16.2
		c-1.6-4.5-4.1-8.1-7.5-10.9C550.7,2.8,547.9,1.2,544.6,0L544.6,0z M466.2,64.8c-1.1,0-1.9-0.5-2.6-1.4c-0.7-0.9-1-2.3-1-4.1V28.7
		h16.1c1.2,0,2.1-0.4,3-1.3c0.8-0.9,1.2-1.9,1.2-3.2V12c0,0.4,0.1,0.7,0.2,1.1l5.5,12.6c0.5,1.2,1.3,1.9,2.5,2.4
		c0.5,0.2,1,0.3,1.5,0.3c0.7,0,1.3-0.2,1.9-0.5c1.6-0.8,3.4-1.5,5.2-2.3c1.8-0.8,3.8-1.6,6-2.5c2.4-1,4.8-1.6,7.1-2
		c2.3-0.4,4.7-0.6,7.2-0.6c3.4,0,6,0.7,7.9,2.2c1.9,1.4,2.9,3.7,3,6.6l-12.1-0.6c-1-0.1-2.1-0.1-3.1-0.1c-4.9,0-9.3,0.6-13.4,1.7
		c-4.9,1.4-9.4,3.4-13.3,6c-8,5.5-11.9,12.5-11.9,21.1c0,1.6,0.1,3.2,0.4,4.6c-0.1,0-0.2,0.1-0.3,0.1c-1.1,0.5-2.5,1.1-4.5,1.7
		C470.7,64.5,468.6,64.8,466.2,64.8L466.2,64.8z M516.2,61c-4.9,0-7.3-1.2-7.3-3.6c0-4.7,7.3-7.1,22-7.1h0.4v6.8
		c-0.7,0.3-1.4,0.6-2.2,0.9c-0.8,0.3-1.6,0.7-2.6,1.1C523.4,60.3,519.9,61,516.2,61L516.2,61z"/>
</g>
<g>
	<path class="st0" d="M119.4,2l0,2.5l0,2h2h16.1c0.6,0,1.1,0.2,1.5,0.6c0.4,0.4,0.6,1,0.6,1.7v15.5c0,0.7-0.2,1.3-0.7,1.8
		c-0.4,0.5-0.9,0.7-1.5,0.7h-16.1h-2v2v30.6c0,2.3,0.5,4,1.4,5.3c1,1.4,2.5,2.2,4.2,2.2c2.6,0,5-0.4,7.1-1.1c2-0.7,3.5-1.3,4.6-1.8
		c0.4-0.2,0.7-0.3,1-0.3c0.2,0,0.5,0,1,0.4c0.5,0.3,1,0.9,1,2.1V78H93.1c-1.4-3.3-2.1-7.5-2.1-12.4V28.7v-2h-2H78.4H76l0.4,2.4
		c0.6,3.4,1,6.9,1,10.5v6.4c0,0.6-0.2,1.2-0.7,1.7c-0.4,0.5-0.9,0.7-1.5,0.7h-41h-3.1l1.3,2.8c0.9,1.9,1.9,3.3,3,4.4
		c3.3,3.3,8.6,4.9,16.2,4.9c3.6,0,7.1-0.5,10.5-1.4c1.7-0.5,3.1-0.9,4.1-1.2c1.1-0.3,1.8-0.6,2.3-0.8c0.3-0.1,0.5-0.2,0.7-0.2
		c0.3,0,0.5,0.1,0.8,0.2c0.6,0.3,1.1,0.7,1.3,1.3l5,12.8L75.1,75c-1.5,0.9-3.1,1.7-5,2.5c-0.5,0.2-1,0.4-1.5,0.6H27.1
		c-4.6-1.9-8.8-4.5-12.3-7.8c-8-7.5-12-18.1-12-31.5c0-11.5,3.6-21.2,10.8-28.7c3.3-3.5,7.1-6.2,11.2-8.1h32.1
		c4,1.9,7.7,4.6,10.8,8.2c1.4,1.6,2.7,3.4,3.9,5.4l3.7,6.2v-7.2V8.8c0-0.7,0.2-1.2,0.7-1.7c0.6-0.6,1.2-0.7,1.5-0.7H89h2v-2V2H119.4
		 M33.1,23.4c-1.1,2-1.8,4.5-2.2,7.4l-0.3,2.3h2.3h15h2.2l-0.3-2.2c-0.4-3.7-1.4-6.6-2.8-8.8c-2-3.1-4.6-3.7-6.4-3.7
		C37.3,18.4,34.7,20.1,33.1,23.4 M121.4,0H89v4.5H77.3c-1.1,0-2,0.4-2.9,1.2c-0.9,0.8-1.3,1.9-1.3,3.1v5.7c-1.2-2-2.6-3.9-4.1-5.7
		C65.6,5,61.7,2,57.2,0h-33c-4.5,2-8.6,4.9-12.2,8.7c-7.6,7.9-11.4,17.9-11.4,30c0,14.1,4.2,25,12.7,32.9c3.9,3.6,8.3,6.4,13.3,8.3
		h42.3c0.6-0.2,1.3-0.5,1.9-0.7c2.3-0.9,4.2-1.9,6-3l1.7-5.2l-5.3-13.6c-0.5-1.1-1.3-1.8-2.4-2.3c-0.6-0.2-1.1-0.4-1.6-0.4
		c-0.5,0-1.1,0.1-1.6,0.4c-0.4,0.2-1.1,0.4-2,0.7c-1,0.3-2.3,0.7-4,1.2c-3.2,0.9-6.5,1.3-9.9,1.3c-7,0-11.9-1.4-14.8-4.3
		c-1-0.9-1.8-2.1-2.6-3.8h41c1.2,0,2.1-0.4,3-1.3c0.8-0.9,1.2-1.9,1.2-3v-6.4c0-3.9-0.4-7.5-1-10.9H89v36.8c0,5.9,0.9,10.7,2.8,14.4
		h49.9V66.1c0-1.6-0.6-2.9-1.8-3.8c-0.7-0.5-1.4-0.7-2.1-0.7c-0.6,0-1.2,0.1-1.8,0.4c-1.1,0.5-2.5,1.1-4.5,1.7c-1.9,0.7-4.1,1-6.5,1
		c-1.1,0-1.9-0.5-2.6-1.4c-0.7-0.9-1-2.3-1-4.1V28.7h16.1c1.2,0,2.1-0.4,3-1.3c0.8-0.9,1.2-1.9,1.2-3.2V8.8c0-1.3-0.4-2.3-1.2-3.1
		c-0.8-0.8-1.8-1.2-3-1.2h-16.1L121.4,0L121.4,0z M32.9,31.1c0.4-2.7,1.1-5,2-6.8c1.2-2.6,3.2-3.9,5.8-3.9c1.9,0,3.5,0.9,4.7,2.8
		c1.2,1.9,2.1,4.5,2.4,7.9H32.9L32.9,31.1z"/>
</g>
</svg>
