<?xml version="1.0" encoding="utf-8"?>
<!-- Generator: Adobe Illustrator 19.2.0, SVG Export Plug-In . SVG Version: 6.00 Build 0)  -->
<svg version="1.1" id="Layer_1" xmlns="http://www.w3.org/2000/svg" xmlns:xlink="http://www.w3.org/1999/xlink" x="0px" y="0px"
	 viewBox="0 0 625 87.9" style="enable-background:new 0 0 625 87.9;" xml:space="preserve">
<style type="text/css">
	.st0{display:none;}
	.st1{display:inline;fill:#7A2879;}
	.st2{fill-rule:evenodd;clip-rule:evenodd;fill:#57BF96;}
	.st3{fill-rule:evenodd;clip-rule:evenodd;fill:#7A2879;}
</style>
<g class="st0">
	<path class="st1" d="M-103.6,214.6c-3.9,0-5.8-1-5.8-2.9h-8.7v11.2h-7.5v-14.1h1.1c1.8,0,3.8,0.5,5.8,1.5c1.8-1,4-1.5,6.7-1.5
		c2.3,0,4.3,0.2,6,0.6c2.8,0.7,4.2,1.8,4.2,3.5v1.7H-103.6z"/>
	<path class="st1" d="M-84,206h-3.7l2.2-7.1h4.7L-84,206z M-91.2,211.7v8.5h11v-8.5H-91.2z M-80,222.9h-11.4c-0.8,0-1.8-0.1-2.8-0.2
		c-3-0.4-4.5-1.7-4.5-3.9v-6c0-2.7,2.4-4.1,7.1-4.1H-80c0.9,0,1.6,0,2.2,0.1c3.4,0.3,5.1,1.6,5.1,4v5.9
		C-72.7,221.5-75.2,222.9-80,222.9z"/>
	<path class="st1" d="M-58.8,222.9c-0.7,0-1.5-0.1-2.4-0.2c-2.5-0.3-3.8-1.2-3.8-2.8v-8.2h-4.4v-2.9h4.4V203c2.2,0,3.7,0.1,4.4,0.2
		c2,0.4,3,1.2,3,2.5v3h5.4c0,0.4-0.1,0.7-0.2,1c-0.6,1.3-2.3,1.9-5.2,1.9v8.4h5.4C-52.1,222-54.4,222.9-58.8,222.9"/>
	<path class="st1" d="M-25,222.8h-1.2c-0.2,0-0.5,0-1-0.1c-1.6-0.1-3.2-0.6-4.7-1.4c-1.8,1-4,1.5-6.6,1.5c-2.2,0-4.3-0.2-6.1-0.7
		c-2.8-0.7-4.2-1.9-4.2-3.5v-9.9h2.2c0.6,0,1.2,0,1.8,0.1c2.3,0.3,3.5,1.2,3.5,2.8v8.4h8.7v-11.4h7.6V222.8z"/>
	<path class="st1" d="M-17.2,222.6c-0.9,0.2-2.4,0.3-4.5,0.3V203h7.4V220C-14.2,221.3-15.2,222.2-17.2,222.6"/>
	<path class="st1" d="M-3.4,211.7v8.5h11v-8.5H-3.4z M7.8,222.9H-3.6c-0.8,0-1.8-0.1-2.8-0.2c-3-0.4-4.5-1.7-4.5-3.9v-6
		c0-2.7,2.4-4.1,7.3-4.1H7.8c0.9,0,1.6,0,2.2,0.1c3.4,0.3,5.1,1.6,5.1,4v5.9C15.1,221.5,12.6,222.9,7.8,222.9z"/>
	<path class="st1" d="M36.7,211.7H25.9v2.9h10.8c4.9,0,7.3,1,7.3,3v2c0,2.2-2.5,3.3-7.4,3.3H25.9c-5,0-7.5-1.2-7.5-3.6v-0.8h2.9
		c2,0,3.4,0.3,4.2,0.9c0.3,0.5,0.5,0.7,0.5,0.8h10.5v-2.8H25.9c-2.2,0-3.7-0.1-4.6-0.3c-1.9-0.4-2.9-1.4-2.9-2.8V212
		c0-2.3,2.5-3.4,7.4-3.4h10.7c1.6,0,3.1,0.2,4.4,0.5c2.1,0.5,3.1,1.4,3.1,2.6v1.5C39.4,213.4,37,212.9,36.7,211.7"/>
	<path class="st1" d="M65.8,211.7v3h11v-3H65.8z M83.7,221.2c-1.7,1.2-3.9,1.7-6.8,1.7h-11c-1.6,0-3.1-0.2-4.5-0.6
		c-2-0.6-3-1.5-3-2.8V212c0-1.2,1-2.1,3-2.7c1.4-0.4,2.9-0.6,4.5-0.6H77c1.4,0,2.8,0.2,4.3,0.6c2.1,0.6,3.1,1.4,3.1,2.4v2.8
		c0,1.9-2.5,2.9-7.4,2.9H65.8v2.8h18.5C84.4,220.5,84.2,220.8,83.7,221.2z"/>
	<path class="st1" d="M117.2,211.7h-10.8v2.9h10.8c4.9,0,7.3,1,7.3,3v2c0,2.2-2.5,3.3-7.4,3.3h-10.7c-5,0-7.5-1.2-7.5-3.6v-0.8h2.9
		c2,0,3.4,0.3,4.2,0.9c0.3,0.5,0.5,0.7,0.5,0.8h10.5v-2.8h-10.5c-2.2,0-3.7-0.1-4.6-0.3c-1.9-0.4-2.9-1.4-2.9-2.8V212
		c0-2.3,2.5-3.4,7.4-3.4h10.7c1.6,0,3.1,0.2,4.4,0.5c2.1,0.5,3.1,1.4,3.1,2.6v1.5C119.9,213.4,117.5,212.9,117.2,211.7"/>
	<path class="st1" d="M135.3,211.7v8.5h11v-8.5H135.3z M146.5,222.9h-11.4c-0.8,0-1.8-0.1-2.8-0.2c-3-0.4-4.5-1.7-4.5-3.9v-6
		c0-2.7,2.4-4.1,7.3-4.1h11.4c0.9,0,1.6,0,2.2,0.1c3.4,0.3,5.1,1.6,5.1,4v5.9C153.7,221.5,151.3,222.9,146.5,222.9z"/>
	<path class="st1" d="M161.6,222.6c-0.9,0.2-2.4,0.3-4.5,0.3V203h7.4V220C164.5,221.3,163.5,222.2,161.6,222.6"/>
	<path class="st1" d="M191.7,222.8h-1.2c-0.2,0-0.5,0-1-0.1c-1.6-0.1-3.2-0.6-4.7-1.4c-1.8,1-4,1.5-6.6,1.5c-2.2,0-4.3-0.2-6.1-0.7
		c-2.8-0.7-4.2-1.9-4.2-3.5v-9.9h2.2c0.6,0,1.2,0,1.8,0.1c2.3,0.3,3.5,1.2,3.5,2.8v8.4h8.7v-11.4h7.5V222.8z"/>
	<path class="st1" d="M220.8,212.8c-0.1,0.3-0.3,0.6-0.8,0.9c-1.3,0.9-3.5,1.3-6.6,1.3v-2.9h-11v8.1h10.9l0.2-0.4
		c0.1-0.3,0.3-0.6,0.8-0.9c1.3-0.9,3.5-1.4,6.5-1.4v2.3c0,0.4-0.2,0.8-0.5,1.2c-1.3,1.3-3.6,1.9-6.9,1.9h-4.7v2.1h1.9
		c2.4,0,3.6,0.6,3.6,1.7v3.2c0,1.2-1.2,1.7-3.6,1.7h-5.9c-2.4,0-3.7-0.6-3.7-1.7v-2.6h0.4c2.4,0,3.6,0.5,3.6,1.4v1.1h5.3v-3h-5.1v-4
		h-3c-1,0-1.9,0-2.8-0.1c-3.1-0.3-4.7-1.5-4.7-3.8v-6.8c0-2.3,2.5-3.4,7.5-3.4h11c4.8,0,7.3,1,7.4,2.9l0.1,0.8L220.8,212.8z"/>
	<path class="st1" d="M231.7,211.7v8.5h11v-8.5H231.7z M244.5,206c-0.2,0-0.4-0.1-0.7-0.1h-0.6c-1.2-0.3-2.1-0.4-2.5-0.5l-9.1-1.6
		v2.1h-5v-2.9c0-1.9,1.4-2.8,4-2.8c0.4,0,1.5,0.2,3.3,0.5l8.7,1.7v-1.9h5.2v2.4C247.8,204.9,246.7,205.8,244.5,206z M242.9,222.9
		h-11.4c-0.8,0-1.8-0.1-2.8-0.2c-3-0.4-4.5-1.7-4.5-3.9v-6c0-2.7,2.4-4.1,7.3-4.1h11.4c0.9,0,1.6,0,2.2,0.1c3.4,0.3,5.1,1.6,5.1,4
		v5.9C250.2,221.5,247.7,222.9,242.9,222.9z"/>
	<path class="st1" d="M260.9,211.7v3h11v-3H260.9z M278.8,221.2c-1.7,1.2-3.9,1.7-6.8,1.7h-11c-1.6,0-3.1-0.2-4.5-0.6
		c-2-0.6-3-1.5-3-2.8V212c0-1.2,1-2.1,3-2.7c1.4-0.4,2.9-0.6,4.5-0.6H272c1.4,0,2.8,0.2,4.3,0.6c2.1,0.6,3.1,1.4,3.1,2.4v2.8
		c0,1.9-2.5,2.9-7.4,2.9h-11.2v2.8h18.6C279.5,220.5,279.2,220.8,278.8,221.2z"/>
	<path class="st1" d="M301.1,211.7h-10.8v2.9h10.8c4.9,0,7.3,1,7.3,3v2c0,2.2-2.5,3.3-7.4,3.3h-10.7c-5,0-7.5-1.2-7.5-3.6v-0.8h2.9
		c2,0,3.4,0.3,4.2,0.9c0.3,0.5,0.5,0.7,0.5,0.8h10.5v-2.8h-10.5c-2.2,0-3.7-0.1-4.6-0.3c-1.9-0.4-2.9-1.4-2.9-2.8V212
		c0-2.3,2.5-3.4,7.4-3.4h10.7c1.6,0,3.1,0.2,4.4,0.5c2.1,0.5,3.1,1.4,3.1,2.6v1.5C303.8,213.4,301.4,212.9,301.1,211.7"/>
</g>
<g>
	<path class="st2" d="M160,9.8c-0.7,1-1.1,2.1-1.1,3.3v74.8h33.2V13.2c0-1.3-0.4-2.4-1.1-3.3c-0.7-1-1.7-1.4-2.8-1.4h-25.5
		C161.6,8.4,160.7,8.9,160,9.8 M405.2,25.1c-1.1,2-1.8,4.5-2.2,7.5h16.4c-0.4-3.7-1.3-6.6-2.7-8.7c-1.4-2.1-3.1-3.1-5.2-3.1
		C408.6,20.8,406.5,22.3,405.2,25.1z M507.6,0l0,4.9h17.7c1.3,0,2.3,0.5,3.2,1.3c0.9,0.9,1.3,2,1.3,3.4v17c0,1.4-0.5,2.5-1.3,3.5
		c-0.9,1-2,1.4-3.2,1.4h-17.7v33.6c0,2,0.4,3.5,1.1,4.5c0.7,1,1.7,1.5,2.8,1.5c2.6,0,5-0.4,7.1-1.1c2.1-0.7,3.7-1.4,4.9-1.9
		c0.7-0.3,1.4-0.5,2-0.5c0.8,0,1.6,0.3,2.3,0.8c1.3,1,2,2.3,2,4.1v15.2h-54.8c-2-4.1-3-9.4-3-15.9V31.6h-12.8
		c-1.2,0-2.2-0.5-3.2-1.4c-1-1-1.4-2.1-1.4-3.5v-17c0-1.4,0.5-2.5,1.4-3.4c0.9-0.9,2-1.3,3.2-1.3H472V0H507.6z M432.7,0
		c3.7,2.1,7,4.8,10,8.1C450.2,16.7,454,28,454,42v7c0,1.3-0.4,2.4-1.3,3.3c-0.9,1-2,1.4-3.2,1.4h-45.1c0.8,1.8,1.8,3.2,2.8,4.1
		c3.2,3.2,8.6,4.8,16.3,4.8c3.8,0,7.4-0.5,10.9-1.4c1.9-0.5,3.4-1,4.4-1.3c1.1-0.3,1.8-0.6,2.2-0.8c0.6-0.3,1.2-0.4,1.8-0.4
		c0.6,0,1.2,0.1,1.8,0.4c1.2,0.5,2.1,1.4,2.6,2.5l5.9,14.9l-1.9,5.7c-1.9,1.3-4.1,2.4-6.6,3.3c-2.3,0.9-4.8,1.7-7.4,2.3h-36.5
		c-7.5-2.1-13.9-5.7-19.3-10.7c-9.3-8.7-13.9-20.7-13.9-36.2c0-13.3,4.2-24.3,12.5-33c3.1-3.3,6.5-5.9,10.2-8H432.7z M314.8,0v24.9
		l25-24.9H381c0.1,0.6,0.1,1.2,0,1.8c-0.2,1-0.7,1.9-1.5,2.6l-35.9,34.1L380,81.9c1.5,1.7,1.8,3.4,1,5.2c-0.1,0.3-0.3,0.5-0.4,0.8
		h-37L315,55.6v29.5c0,1-0.3,2-1,2.8h-35c-0.7-0.8-1-1.8-1-2.8V0H314.8z M263.8,0c1.9,0.7,3.6,1.4,5.1,2.1c0.5,0.2,1.1,0.7,1.7,1.6
		c0.6,0.8,0.9,1.6,0.9,2.2l2.1,21c0.2,2.1-0.5,3.7-2.1,4.7c-0.7,0.5-1.5,0.7-2.3,0.7c-0.9,0-1.8-0.3-2.8-0.9
		c-0.8-0.6-2.1-1.3-3.6-2.1c-1.6-0.7-3.6-1.6-6-2.5c-4.2-1.7-8.4-2.5-12.5-2.5c-5.1,0-9,1.9-11.9,5.6c-2.8,3.7-4.3,8.8-4.3,15.4
		c0,5.8,1.5,10.1,4.6,12.9c3.1,2.8,7.9,4.1,14.4,4.1c3.6,0,7.5-0.8,11.9-2.5c1.7-0.6,3.1-1.2,4.2-1.6c1.1-0.4,2-0.7,2.6-1h-0.3
		c0.5-0.3,1-0.6,1.4-0.7c0.4-0.2,1-0.2,1.7-0.2c1.5,0,2.7,0.5,3.6,1.6c0.9,1.1,1.2,2.3,1,3.8l-2.8,21.3c0,0.5-0.3,1.2-0.9,2
		c-0.6,0.8-1.1,1.3-1.5,1.5c-0.8,0.5-2.3,1-4.3,1.7h-43.2c-4.9-2.1-9.3-5-13.2-8.7c-8.5-8.5-12.8-19.8-12.8-34
		c0-7.6,1.1-14.4,3.2-20.2c2.2-5.9,5.4-11,9.7-15.5c4.1-4.2,8.9-7.4,14.4-9.5H263.8z M191.7,0c0,1.2-0.4,2.2-1.1,3.1
		c-0.7,1-1.6,1.4-2.7,1.4h-25.5c-1.2,0-2.1-0.5-2.8-1.4c-0.7-0.9-1.1-1.9-1.1-3.1H191.7z M132.7,0l0,4.9h17.7c1.3,0,2.3,0.5,3.2,1.3
		c0.9,0.9,1.3,2,1.3,3.4v17c0,1.4-0.5,2.5-1.3,3.5c-0.9,1-2,1.4-3.2,1.4h-17.7v33.6c0,2,0.4,3.5,1.1,4.5c0.7,1,1.7,1.5,2.8,1.5
		c2.6,0,5-0.4,7.1-1.1c2.1-0.7,3.7-1.4,4.9-1.9c0.7-0.3,1.4-0.5,2-0.5c0.8,0,1.6,0.3,2.3,0.8c1.3,1,2,2.3,2,4.1v15.2h-54.9
		c-2-4.1-3-9.4-3-15.9V31.6H84.3c-1.2,0-2.2-0.5-3.2-1.4c-0.9-1-1.4-2.1-1.4-3.5v-17c0-1.4,0.5-2.5,1.4-3.4c0.9-0.9,2-1.3,3.2-1.3
		h12.8V0H132.7z"/>
	<path class="st3" d="M558.4,63c0,2.6,2.7,4,8.1,4c4.1,0,7.9-0.7,11.4-2.1c1.1-0.4,2-0.8,2.8-1.2c0.8-0.4,1.6-0.7,2.4-1v-7.5h-0.5
		C566.5,55.3,558.4,57.9,558.4,63 M37.6,26.7c-1.1,2-1.8,4.5-2.2,7.5h16.4c-0.4-3.7-1.3-6.6-2.7-8.6c-1.4-2.1-3.1-3.1-5.2-3.1
		C41.1,22.4,39,23.8,37.6,26.7z M597.7,0c3.6,1.3,6.7,3.1,9.3,5.3c3.7,3.1,6.4,7.1,8.2,12c1.8,4.9,2.7,10.9,2.7,17.9v32.5l1.1,1
		l1.1,0.8c1.2,0,2.1,0.3,2.9,0.9c0.8,0.6,1.3,1.3,1.7,2.1c0.3,0.8,0.4,1.7,0.2,2.7c-0.2,1-0.8,1.8-1.7,2.5l-12.3,10.3h-16.9
		c-0.5-0.3-1-0.7-1.4-1.1c-0.7-0.6-1.4-1.2-2-1.7c-0.6-0.5-1.1-1.1-1.7-1.7c-3.4,1.7-6.9,3.3-10.7,4.6h-40.2
		c-2.2-1.1-4.1-2.4-5.8-3.9c-5.7-5.2-8.6-12.2-8.6-21c0-9.4,4.4-17.1,13.1-23.2c4.3-2.9,9.2-5.1,14.6-6.6c4.5-1.3,9.4-1.9,14.7-1.9
		c1.1,0,2.2,0,3.4,0.1l13.3,0.6c-0.1-3.3-1.2-5.7-3.3-7.3c-2.1-1.6-5-2.4-8.7-2.4c-2.7,0-5.4,0.2-7.9,0.6c-2.5,0.4-5.1,1.2-7.8,2.2
		c-2.4,1-4.6,1.9-6.6,2.7c-2,0.8-3.9,1.7-5.7,2.5c-0.7,0.4-1.4,0.5-2.1,0.5c-0.5,0-1.1-0.1-1.7-0.3c-1.3-0.5-2.2-1.4-2.8-2.6
		l-6-13.8c-0.3-0.8-0.3-1.8-0.1-2.9c0.3-1.1,0.7-1.9,1.2-2.4c1.2-1.1,3-2.2,5.5-3.6c2.5-1.3,5.7-2.8,9.7-4.4
		c1.1-0.4,2.2-0.8,3.3-1.1H597.7z M62.1,0c4.9,2.2,9.2,5.5,13,9.7c7.6,8.6,11.4,19.8,11.4,33.8v7c0,1.3-0.4,2.4-1.3,3.3
		c-0.9,0.9-2,1.4-3.2,1.4H36.9c0.8,1.8,1.8,3.2,2.8,4.1c3.2,3.2,8.6,4.8,16.3,4.8c3.8,0,7.4-0.5,10.9-1.4c1.9-0.5,3.4-1,4.4-1.3
		c1.1-0.3,1.8-0.6,2.2-0.8c0.6-0.3,1.2-0.4,1.8-0.4c0.6,0,1.2,0.1,1.8,0.4c1.2,0.5,2.1,1.4,2.6,2.5l5.9,14.9l-1.9,5.7
		c-1.9,1.3-4.1,2.4-6.6,3.3c-0.7,0.3-1.4,0.5-2.1,0.8H28.6c-5.5-2.2-10.4-5.2-14.6-9.2C4.6,70.1,0,58,0,42.6
		c0-13.3,4.2-24.3,12.5-33c4-4.2,8.4-7.4,13.4-9.5H62.1z"/>
</g>
</svg>
