<?xml version="1.0" encoding="iso-8859-1"?>
<!-- Generator: Adobe Illustrator 18.1.1, SVG Export Plug-In . SVG Version: 6.00 Build 0)  -->
<svg xmlns="http://www.w3.org/2000/svg" xmlns:xlink="http://www.w3.org/1999/xlink" version="1.1" id="Capa_1" x="0px" y="0px" viewBox="0 0 290.142 290.142" style="enable-background:new 0 0 290.142 290.142;" xml:space="preserve" width="512px" height="512px">
<g>
	<path id="circle11080" d="M95.071,40.071c-30.316,0-55,24.684-55,55s24.684,55,55,55s55-24.684,55-55S125.388,40.071,95.071,40.071   z M245.071,40.071c-13.748,0-25,11.252-25,25s11.252,25,25,25c13.748,0,25-11.252,25-25S258.819,40.071,245.071,40.071z    M95.071,50.071c24.912,0,45,20.088,45,45s-20.088,45-45,45s-45-20.088-45-45S70.159,50.071,95.071,50.071z M245.071,50.071   c8.343,0,15,6.657,15,15s-6.657,15-15,15c-8.343,0-15-6.657-15-15S236.728,50.071,245.071,50.071z M245.071,52.571   c-6.874,0-12.5,5.626-12.5,12.5c-0.02,1.381,1.084,2.516,2.465,2.535c1.381,0.02,2.516-1.084,2.535-2.465c0-0.024,0-0.047,0-0.071   c0-4.172,3.328-7.5,7.5-7.5c1.381,0.02,2.516-1.084,2.535-2.465s-1.084-2.516-2.465-2.535   C245.118,52.571,245.095,52.571,245.071,52.571z M95.071,70.071c-13.748,0-25,11.252-25,25s11.252,25,25,25s25-11.252,25-25   S108.819,70.071,95.071,70.071z M95.071,80.071c8.343,0,15,6.657,15,15s-6.657,15-15,15s-15-6.657-15-15   S86.728,80.071,95.071,80.071z M95.071,82.571c-6.874,0-12.5,5.626-12.5,12.5c-0.02,1.381,1.084,2.516,2.465,2.535   c1.381,0.02,2.516-1.084,2.535-2.465c0-0.024,0-0.047,0-0.071c0-4.172,3.328-7.5,7.5-7.5c1.381,0.02,2.516-1.084,2.535-2.465   c0.02-1.381-1.084-2.516-2.465-2.535C95.118,82.571,95.095,82.571,95.071,82.571z M285.071,90.071   c-58.949,0-101.342,25.725-142.592,50.725S61.122,190.071,5.071,190.071c-2.761-0.039-5.032,2.168-5.071,4.929   c-0.039,2.761,2.168,5.032,4.929,5.071c0.047,0.001,0.094,0.001,0.141,0c58.949,0,101.342-25.725,142.592-50.725   s81.357-49.275,137.408-49.275c2.761,0.039,5.032-2.168,5.071-4.929s-2.168-5.032-4.929-5.071   C285.166,90.071,285.118,90.071,285.071,90.071z M195.071,140.071c-30.316,0-55,24.684-55,55s24.684,55,55,55s55-24.684,55-55   S225.388,140.071,195.071,140.071z M195.071,150.071c24.912,0,45,20.088,45,45s-20.088,45-45,45s-45-20.088-45-45   S170.159,150.071,195.071,150.071z M195.071,170.071c-13.748,0-25,11.252-25,25s11.252,25,25,25s25-11.252,25-25   S208.819,170.071,195.071,170.071z M195.071,180.071c8.343,0,15,6.657,15,15s-6.657,15-15,15s-15-6.657-15-15   S186.728,180.071,195.071,180.071z M195.071,182.571c-6.874,0-12.5,5.626-12.5,12.5c-0.02,1.381,1.084,2.516,2.465,2.535   c1.381,0.02,2.516-1.084,2.535-2.465c0-0.024,0-0.047,0-0.071c0-4.172,3.328-7.5,7.5-7.5c1.381,0.02,2.516-1.084,2.535-2.465   c0.02-1.381-1.084-2.516-2.465-2.535C195.118,182.571,195.095,182.571,195.071,182.571z" fill="#FFFFFF"/>
</g>
<g>
</g>
<g>
</g>
<g>
</g>
<g>
</g>
<g>
</g>
<g>
</g>
<g>
</g>
<g>
</g>
<g>
</g>
<g>
</g>
<g>
</g>
<g>
</g>
<g>
</g>
<g>
</g>
<g>
</g>
</svg>
