<?xml version="1.0" encoding="utf-8"?>
<!-- Generator: Adobe Illustrator 21.0.0, SVG Export Plug-In . SVG Version: 6.00 Build 0)  -->
<svg version="1.1" id="Layer_1" xmlns="http://www.w3.org/2000/svg" xmlns:xlink="http://www.w3.org/1999/xlink" x="0px" y="0px"
	 viewBox="0 0 512 512" style="enable-background:new 0 0 512 512;" xml:space="preserve">
<style type="text/css">
	
		.st0{fill-rule:evenodd;clip-rule:evenodd;fill:none;stroke:#FFFFFF;stroke-width:20;stroke-linecap:round;stroke-miterlimit:22.9256;}
	
		.st1{fill-rule:evenodd;clip-rule:evenodd;fill:none;stroke:#FFFFFF;stroke-width:8;stroke-linejoin:round;stroke-miterlimit:22.9256;}
</style>
<g>
	<path class="st0" d="M33.8,95.9h445.3c8.8,0,16,7.2,16,16v288.2c0,8.8-7.2,16-16,16H33.8c-8.8,0-16-7.2-16-16V111.9
		C17.8,103.1,25,95.9,33.8,95.9z"/>
	<g>
		<line class="st1" x1="16.8" y1="336.1" x2="32.8" y2="336.1"/>
		<line class="st1" x1="36.8" y1="336.1" x2="52.8" y2="336.1"/>
		<line class="st1" x1="56.8" y1="336.1" x2="72.7" y2="336.1"/>
		<line class="st1" x1="76.7" y1="336.1" x2="92.7" y2="336.1"/>
	</g>
	<g>
		<line class="st1" x1="16.8" y1="256" x2="32.8" y2="256"/>
		<line class="st1" x1="36.8" y1="256" x2="52.8" y2="256"/>
		<line class="st1" x1="56.8" y1="256" x2="72.7" y2="256"/>
		<line class="st1" x1="76.7" y1="256" x2="92.7" y2="256"/>
	</g>
	<g>
		<line class="st1" x1="17.8" y1="175.9" x2="33.8" y2="175.9"/>
		<line class="st1" x1="37.8" y1="175.9" x2="53.8" y2="175.9"/>
		<line class="st1" x1="57.8" y1="175.9" x2="73.7" y2="175.9"/>
		<line class="st1" x1="77.7" y1="175.9" x2="93.7" y2="175.9"/>
	</g>
	<g>
		<g>
			<g>
				<line class="st1" x1="419.3" y1="336.1" x2="435.3" y2="336.1"/>
				<line class="st1" x1="439.3" y1="336.1" x2="455.2" y2="336.1"/>
				<line class="st1" x1="459.2" y1="336.1" x2="475.2" y2="336.1"/>
				<line class="st1" x1="479.2" y1="336.1" x2="495.2" y2="336.1"/>
			</g>
			<g>
				<line class="st1" x1="419.3" y1="256" x2="435.3" y2="256"/>
				<line class="st1" x1="439.3" y1="256" x2="455.2" y2="256"/>
				<line class="st1" x1="459.2" y1="256" x2="475.2" y2="256"/>
				<line class="st1" x1="479.2" y1="256" x2="495.2" y2="256"/>
			</g>
			<g>
				<line class="st1" x1="419.3" y1="175.9" x2="435.3" y2="175.9"/>
				<line class="st1" x1="439.3" y1="175.9" x2="455.2" y2="175.9"/>
				<line class="st1" x1="459.2" y1="175.9" x2="475.2" y2="175.9"/>
				<line class="st1" x1="479.2" y1="175.9" x2="495.2" y2="175.9"/>
			</g>
		</g>
		<g>
			<g>
				<line class="st1" x1="419.3" y1="336.1" x2="435.3" y2="336.1"/>
				<line class="st1" x1="439.3" y1="336.1" x2="455.2" y2="336.1"/>
				<line class="st1" x1="459.2" y1="336.1" x2="475.2" y2="336.1"/>
				<line class="st1" x1="479.2" y1="336.1" x2="495.2" y2="336.1"/>
			</g>
			<g>
				<line class="st1" x1="419.3" y1="256" x2="435.3" y2="256"/>
				<line class="st1" x1="439.3" y1="256" x2="455.2" y2="256"/>
				<line class="st1" x1="459.2" y1="256" x2="475.2" y2="256"/>
				<line class="st1" x1="479.2" y1="256" x2="495.2" y2="256"/>
			</g>
			<g>
				<line class="st1" x1="419.3" y1="175.9" x2="435.3" y2="175.9"/>
				<line class="st1" x1="439.3" y1="175.9" x2="455.2" y2="175.9"/>
				<line class="st1" x1="459.2" y1="175.9" x2="475.2" y2="175.9"/>
				<line class="st1" x1="479.2" y1="175.9" x2="495.2" y2="175.9"/>
			</g>
		</g>
	</g>
	<g>
		<g>
			<line class="st1" x1="254.5" y1="171.9" x2="254.5" y2="155.9"/>
			<line class="st1" x1="254.5" y1="151.9" x2="254.5" y2="135.9"/>
			<line class="st1" x1="254.5" y1="131.9" x2="254.5" y2="115.9"/>
			<line class="st1" x1="254.5" y1="111.9" x2="254.5" y2="95.9"/>
		</g>
		<g>
			<line class="st1" x1="154.6" y1="171.9" x2="154.6" y2="155.9"/>
			<line class="st1" x1="154.6" y1="151.9" x2="154.6" y2="135.9"/>
			<line class="st1" x1="154.6" y1="131.9" x2="154.6" y2="115.9"/>
			<line class="st1" x1="154.6" y1="111.9" x2="154.6" y2="95.9"/>
		</g>
		<g>
			<line class="st1" x1="354.4" y1="171.9" x2="354.4" y2="155.9"/>
			<line class="st1" x1="354.4" y1="151.9" x2="354.4" y2="135.9"/>
			<line class="st1" x1="354.4" y1="131.9" x2="354.4" y2="115.9"/>
			<line class="st1" x1="354.4" y1="111.9" x2="354.4" y2="95.9"/>
		</g>
	</g>
	<g>
		<g>
			<line class="st1" x1="254.5" y1="416.1" x2="254.5" y2="400.1"/>
			<line class="st1" x1="254.5" y1="396.1" x2="254.5" y2="380.1"/>
			<line class="st1" x1="254.5" y1="376.1" x2="254.5" y2="360.1"/>
			<line class="st1" x1="254.5" y1="356.1" x2="254.5" y2="340.1"/>
		</g>
		<g>
			<line class="st1" x1="154.6" y1="416.1" x2="154.6" y2="400.1"/>
			<line class="st1" x1="154.6" y1="396.1" x2="154.6" y2="380.1"/>
			<line class="st1" x1="154.6" y1="376.1" x2="154.6" y2="360.1"/>
			<line class="st1" x1="154.6" y1="356.1" x2="154.6" y2="340.1"/>
		</g>
		<g>
			<line class="st1" x1="354.4" y1="416.1" x2="354.4" y2="400.1"/>
			<line class="st1" x1="354.4" y1="396.1" x2="354.4" y2="380.1"/>
			<line class="st1" x1="354.4" y1="376.1" x2="354.4" y2="360.1"/>
			<line class="st1" x1="354.4" y1="356.1" x2="354.4" y2="340.1"/>
		</g>
	</g>
</g>
</svg>
