<?xml version="1.0" encoding="iso-8859-1"?>
<!-- Generator: Adobe Illustrator 19.0.0, SVG Export Plug-In . SVG Version: 6.00 Build 0)  -->
<svg xmlns="http://www.w3.org/2000/svg" xmlns:xlink="http://www.w3.org/1999/xlink" version="1.1" id="Layer_1" x="0px" y="0px" viewBox="0 0 512.001 512.001" style="enable-background:new 0 0 512.001 512.001;" xml:space="preserve" width="512px" height="512px">
<g>
	<g>
		<path d="M244.829,203.87l-69.65-67.553c-2.137-2.073-5.07-3.113-8.038-2.835L9.262,148.052c-2.694,0.249-5.178,1.557-6.907,3.637    c-1.729,2.081-2.561,4.763-2.312,7.457l20.992,227.422c0.249,2.694,1.556,5.178,3.637,6.907c1.839,1.528,4.147,2.355,6.518,2.355    c0.312,0,0.625-0.014,0.937-0.043l163.847-15.123c3.235-0.299,6.135-2.12,7.807-4.907l39.812-66.31    c1.578-2.628,1.891-5.827,0.85-8.711c-1.04-2.883-3.322-5.146-6.214-6.162l-38.749-13.608l46.49-63.765    C248.964,213.093,248.476,207.408,244.829,203.87z M24.045,197.246l-2.753-29.818l143.052-13.204l28.311,27.458L24.045,197.246z     M219.665,309.673l-30.71,51.153L40.41,374.537l-9.975-108.071l165.512-15.277l-21.031,28.846c-1.9,2.606-2.455,5.957-1.497,9.036    c0.958,3.081,3.316,5.526,6.359,6.595L219.665,309.673z M211.957,229.226L28.56,246.153l-2.64-28.595l186.019-17.169    l12.326,11.954L211.957,229.226z" fill="#FFFFFF"/>
	</g>
</g>
<g>
	<g>
		<path d="M503.178,146.924l-224.93-30.659c-3.948-0.536-7.845,1.27-9.983,4.631c-2.138,3.361-2.123,7.659,0.037,11.005    l47.813,74.079l-63.347,54.818c-2.44,2.11-3.736,5.25-3.497,8.467c0.239,3.216,1.985,6.131,4.709,7.857l35.7,22.644    l-45.048,46.623c-2.671,2.764-3.561,6.794-2.302,10.427c1.258,3.632,4.451,6.247,8.259,6.766l218.991,29.85    c0.459,0.063,0.919,0.094,1.378,0.094c2.216,0,4.387-0.723,6.172-2.08c2.153-1.636,3.569-4.061,3.934-6.742l30.843-226.298    C512.667,152.825,508.76,147.685,503.178,146.924z M462.228,371.843l-188.943-25.754l39.757-41.147    c2.13-2.204,3.156-5.25,2.793-8.294c-0.363-3.044-2.076-5.764-4.665-7.406l-34.681-21.998l30.204-26.136l170.193,23.197    L462.228,371.843z M479.639,244.095l-152.394-20.772l8.917-7.717c3.843-3.326,4.652-8.973,1.895-13.243l-4.636-7.182    l150.097,20.46L479.639,244.095z M486.274,195.429l-167.421-22.821l-21.388-33.137l192.853,26.286L486.274,195.429z" fill="#FFFFFF"/>
	</g>
</g>
<g>
	<g>
		<path d="M456.119,280.617c-5.581-0.753-10.72,3.155-11.476,8.737l-0.414,3.057c-0.757,5.582,3.155,10.72,8.737,11.476    c0.465,0.063,0.926,0.094,1.383,0.094c5.024,0,9.401-3.714,10.093-8.831l0.414-3.057    C465.613,286.512,461.701,281.373,456.119,280.617z" fill="#FFFFFF"/>
	</g>
</g>
<g>
	<g>
		<path d="M451.832,312.236c-5.586-0.755-10.72,3.155-11.477,8.736l-3.872,28.557c-0.757,5.582,3.155,10.72,8.736,11.477    c0.465,0.063,0.927,0.094,1.383,0.094c5.024,0,9.4-3.714,10.093-8.829l3.872-28.557    C461.326,318.131,457.414,312.993,451.832,312.236z" fill="#FFFFFF"/>
	</g>
</g>
<g>
</g>
<g>
</g>
<g>
</g>
<g>
</g>
<g>
</g>
<g>
</g>
<g>
</g>
<g>
</g>
<g>
</g>
<g>
</g>
<g>
</g>
<g>
</g>
<g>
</g>
<g>
</g>
<g>
</g>
</svg>
