<?xml version="1.0" encoding="iso-8859-1"?>
<!-- Generator: Adobe Illustrator 19.0.0, SVG Export Plug-In . SVG Version: 6.00 Build 0)  -->
<svg xmlns="http://www.w3.org/2000/svg" xmlns:xlink="http://www.w3.org/1999/xlink" version="1.1" id="Layer_1" x="0px" y="0px" viewBox="0 0 512 512" style="enable-background:new 0 0 512 512;" xml:space="preserve" width="512px" height="512px">
<g>
	<g>
		<path d="M503.194,206.548c4.864,0,8.806-3.943,8.806-8.806v-27.681c0-4.863-3.941-8.806-8.806-8.806h-48.924    c-6.503,0-11.794-5.291-11.794-11.794c0-6.503,5.291-11.794,11.794-11.794c4.864,0,8.806-3.943,8.806-8.806v-27.681    c0-4.863-3.941-8.806-8.806-8.806H8.806C3.943,92.376,0,96.318,0,101.182v27.681c0,4.863,3.943,8.806,8.806,8.806    c6.503,0,11.794,5.29,11.794,11.794c0,6.503-5.29,11.794-11.794,11.794c-4.863,0-8.806,3.943-8.806,8.806v30.899    c0,4.863,3.943,8.806,8.806,8.806c6.503,0,11.794,5.29,11.794,11.794c0,6.503-5.29,11.794-11.794,11.794    c-4.863,0-8.806,3.943-8.806,8.806v30.899c0,4.863,3.943,8.806,8.806,8.806c6.503,0,11.794,5.291,11.794,11.794    c0,6.503-5.29,11.795-11.794,11.795c-4.863,0-8.806,3.943-8.806,8.806v27.681c0,4.863,3.943,8.806,8.806,8.806h48.924    c6.503,0,11.794,5.291,11.794,11.794c0,6.503-5.291,11.794-11.794,11.794c-4.863,0-8.806,3.943-8.806,8.806v27.681    c0,4.863,3.943,8.806,8.806,8.806h445.465c4.864,0,8.806-3.943,8.806-8.806v-27.681c0-4.863-3.941-8.806-8.806-8.806    c-6.503,0-11.794-5.291-11.794-11.794c0-6.503,5.29-11.794,11.794-11.794c4.864,0,8.806-3.943,8.806-8.806v-30.9    c0-4.863-3.941-8.806-8.806-8.806c-6.503,0-11.794-5.29-11.794-11.794s5.29-11.794,11.794-11.794c4.864,0,8.806-3.943,8.806-8.806    v-30.899c0-4.863-3.941-8.806-8.806-8.806c-6.503,0-11.794-5.291-11.794-11.794C491.4,211.838,496.691,206.548,503.194,206.548z     M57.729,302.233c-4.863,0-8.806,3.943-8.806,8.806v22.094H17.612v-11.416c11.926-3.751,20.6-14.911,20.6-28.059    c0-13.148-8.673-24.309-20.6-28.059v-15.981c11.926-3.75,20.6-14.91,20.6-28.059c0-13.148-8.673-24.309-20.6-28.059v-15.981    c11.926-3.75,20.6-14.91,20.6-28.059c0-13.149-8.673-24.31-20.6-28.06v-11.416h427.853v11.416    c-11.926,3.75-20.6,14.91-20.6,28.059c0,4.193,0.889,8.181,2.477,11.794h-33.791v-18.875c0-4.863-3.941-8.806-8.806-8.806H78.329    c-4.863,0-8.806,3.943-8.806,8.806v18.875H57.729c-4.863,0-8.806,3.943-8.806,8.806v27.681c0,4.863,3.943,8.806,8.806,8.806    c6.503,0,11.794,5.29,11.794,11.794s-5.291,11.794-11.794,11.794c-4.863,0-8.806,3.943-8.806,8.806v30.899    c0,4.863,3.943,8.806,8.806,8.806c6.503,0,11.794,5.29,11.794,11.794S64.233,302.233,57.729,302.233z M375.941,151.186v10.069    H87.135v-10.069H375.941z M494.389,190.283c-11.927,3.75-20.6,14.91-20.6,28.059c0,13.148,8.673,24.309,20.6,28.059v15.981    c-11.927,3.75-20.6,14.911-20.6,28.059s8.673,24.309,20.6,28.059v15.981c-11.927,3.75-20.6,14.911-20.6,28.059    s8.673,24.309,20.6,28.059v11.416H66.535v-11.416c11.927-3.751,20.6-14.911,20.6-28.059s-8.673-24.309-20.6-28.059v-15.981    c11.927-3.75,20.6-14.911,20.6-28.059s-8.673-24.309-20.6-28.059V246.4c11.927-3.75,20.6-14.91,20.6-28.059    s-8.673-24.309-20.6-28.059v-11.416h427.854V190.283z" fill="#FFFFFF"/>
	</g>
</g>
<g>
	<g>
		<path d="M433.671,203.098H127.252c-4.863,0-8.806,3.943-8.806,8.806v158.359c0,4.863,3.943,8.806,8.806,8.806H433.67    c4.864,0,8.806-3.943,8.806-8.806V211.904C442.477,207.041,438.534,203.098,433.671,203.098z M136.058,361.457V220.71h288.806    v140.747H136.058z" fill="#FFFFFF"/>
	</g>
</g>
<g>
	<g>
		<path d="M390.539,306.096H170.383c-4.863,0-8.806,3.943-8.806,8.806c0,4.863,3.943,8.806,8.806,8.806h220.156    c4.864,0,8.806-3.943,8.806-8.806C399.345,310.039,395.404,306.096,390.539,306.096z" fill="#FFFFFF"/>
	</g>
</g>
<g>
	<g>
		<path d="M390.539,258.459H170.383c-4.863,0-8.806,3.943-8.806,8.806s3.943,8.806,8.806,8.806h220.156    c4.864,0,8.806-3.943,8.806-8.806S395.404,258.459,390.539,258.459z" fill="#FFFFFF"/>
	</g>
</g>
<g>
</g>
<g>
</g>
<g>
</g>
<g>
</g>
<g>
</g>
<g>
</g>
<g>
</g>
<g>
</g>
<g>
</g>
<g>
</g>
<g>
</g>
<g>
</g>
<g>
</g>
<g>
</g>
<g>
</g>
</svg>
