<?xml version="1.0" encoding="UTF-8" standalone="no"?>
<svg
   xmlns:dc="http://purl.org/dc/elements/1.1/"
   xmlns:cc="http://creativecommons.org/ns#"
   xmlns:rdf="http://www.w3.org/1999/02/22-rdf-syntax-ns#"
   xmlns:svg="http://www.w3.org/2000/svg"
   xmlns="http://www.w3.org/2000/svg"
   width="240"
   height="35"
   viewBox="0 0 63.499999 9.2604164"
   version="1.1"
   id="svg8">
  <defs
     id="defs2">
    <clipPath
       id="clipPath3731"
       clipPathUnits="userSpaceOnUse">
      <path
         id="path3729"
         d="M 0,611.833 H 792.667 V 0 H 0 Z" />
    </clipPath>
  </defs>
  <metadata
     id="metadata5">
    <rdf:RDF>
      <cc:Work
         rdf:about="">
        <dc:format>image/svg+xml</dc:format>
        <dc:type
           rdf:resource="http://purl.org/dc/dcmitype/StillImage" />
        <dc:title></dc:title>
      </cc:Work>
    </rdf:RDF>
  </metadata>
  <g
     id="layer1"
     transform="matrix(0.4889245,0,0,0.4889245,-12.940712,-7.560144)">
    <path
       id="path4041"
       style="fill:#bc4799;fill-opacity:1;fill-rule:nonzero;stroke:none;stroke-width:0.35277778"
       d="m 56.960833,25.38868 h 3.363736 c 1.000831,0 1.76777,-0.236008 2.30117,-0.708025 0.532341,-0.472017 0.799041,-1.153936 0.799041,-2.046464 0,-0.845961 -0.2667,-1.523294 -0.799041,-2.030942 -0.5334,-0.508 -1.264356,-0.771877 -2.193925,-0.79128 h -3.470981 z m 0,1.530703 v 5.557308 H 55.088994 V 18.281266 h 5.235575 c 1.553281,0 2.770364,0.396522 3.65125,1.189567 0.880533,0.793044 1.321153,1.842558 1.321153,3.148894 0,1.378303 -0.430742,2.439106 -1.291872,3.183467 -0.861484,0.744008 -2.094795,1.116189 -3.700286,1.116189 z" />
    <path
       id="path4045"
       style="fill:#bc4799;fill-opacity:1;fill-rule:nonzero;stroke:none;stroke-width:0.35277778"
       d="m 72.205384,23.54591 c -0.27305,-0.04516 -0.568678,-0.06809 -0.887236,-0.06809 -1.182864,0 -1.985786,0.503766 -2.408061,1.5113 v 7.487355 H 67.106334 V 21.927718 h 1.755069 l 0.02928,1.218495 c 0.590903,-0.94227 1.429455,-1.413581 2.514952,-1.413581 0.351367,0 0.617362,0.04551 0.799748,0.136525 z" />
    <path
       d="m 75.642953,32.476691 h -1.8034 V 21.92793 h 1.8034 z M 73.692797,19.129697 c 0,-0.292453 0.08926,-0.539398 0.268464,-0.741186 0.178509,-0.201437 0.443442,-0.302331 0.794459,-0.302331 0.35101,0 0.617358,0.100894 0.799744,0.302331 0.18168,0.201788 0.272697,0.448733 0.272697,0.741186 0,0.292452 -0.09102,0.535869 -0.272697,0.730955 -0.182386,0.195086 -0.448734,0.292453 -0.799744,0.292453 -0.351017,0 -0.61595,-0.09737 -0.794459,-0.292453 -0.179208,-0.195086 -0.268464,-0.438503 -0.268464,-0.730955"
       style="fill:#bc4799;fill-opacity:1;fill-rule:nonzero;stroke:none;stroke-width:0.35277775"
       id="path4047" />
    <path
       id="path4051"
       style="fill:#bc4799;fill-opacity:1;fill-rule:nonzero;stroke:none;stroke-width:0.35277778"
       d="m 81.829585,30.029577 2.613025,-8.101894 h 1.842558 L 82.502332,32.476797 H 81.12791 L 77.305915,21.927683 h 1.842559 z" />
    <path
       id="path4055"
       style="fill:#bc4799;fill-opacity:1;fill-rule:nonzero;stroke:none;stroke-width:0.35277778"
       d="m 90.889165,31.102057 c 0.565855,0 1.101725,-0.146403 1.609019,-0.438856 0.506589,-0.292452 0.873831,-0.672394 1.101725,-1.140883 v -2.163939 h -1.413933 c -2.210153,0 -3.315053,0.646642 -3.315053,1.939925 0,0.565503 0.188383,1.007534 0.565856,1.326092 0.376766,0.318558 0.860777,0.477661 1.452386,0.477661 m 2.992966,1.374422 c -0.104069,-0.207433 -0.188383,-0.578203 -0.252941,-1.11125 -0.838553,0.871008 -1.839736,1.306336 -3.003198,1.306336 -1.039988,0 -1.893005,-0.293864 -2.559402,-0.882297 -0.666397,-0.58808 -0.999067,-1.333853 -0.999067,-2.237669 0,-1.098198 0.417689,-1.951214 1.252714,-2.55905 0.835025,-0.607484 2.009775,-0.911578 3.524603,-0.911578 h 1.755069 v -0.828675 c 0,-0.630414 -0.189089,-1.132417 -0.565855,-1.506361 -0.376767,-0.373592 -0.932392,-0.560564 -1.667228,-0.560564 -0.643467,0 -1.182864,0.162631 -1.618192,0.487186 -0.43568,0.325261 -0.653344,0.718608 -0.653344,1.180042 h -1.813631 c 0,-0.526697 0.186972,-1.03505 0.560917,-1.525764 0.373592,-0.491067 0.880533,-0.879122 1.520825,-1.165225 0.639939,-0.28575 1.34373,-0.428978 2.110669,-0.428978 1.215672,0 2.16782,0.304095 2.856795,0.911578 0.688975,0.607836 1.046691,1.444625 1.072444,2.510719 v 4.854928 c 0,0.968728 0.123472,1.738842 0.370769,2.310694 v 0.155928 z" />
    <path
       id="path4059"
       style="fill:#bc4799;fill-opacity:1;fill-rule:nonzero;stroke:none;stroke-width:0.35277778"
       d="m 100.44069,19.373219 v 2.554464 h 1.96956 v 1.394178 h -1.96956 v 6.550377 c 0,0.422981 0.0879,0.740128 0.26318,0.951795 0.17568,0.211314 0.47448,0.316794 0.89711,0.316794 0.20814,0 0.49389,-0.0388 0.85795,-0.116769 v 1.453797 c -0.47448,0.129469 -0.93591,0.193675 -1.3843,0.193675 -0.80609,0 -1.413928,-0.243417 -1.823151,-0.730956 -0.409575,-0.487538 -0.614186,-1.180041 -0.614186,-2.076802 v -6.541911 h -1.920875 v -1.394178 h 1.920875 v -2.554464 z" />
    <path
       id="path4063"
       style="fill:#bc4799;fill-opacity:1;fill-rule:nonzero;stroke:none;stroke-width:0.35277778"
       d="m 108.25864,23.21451 c -0.72778,0 -1.33915,0.264937 -1.83304,0.794809 -0.49424,0.529872 -0.79939,1.272116 -0.91651,2.227439 h 5.28461 v -0.136173 c -0.0522,-0.916516 -0.29916,-1.626658 -0.74119,-2.130425 -0.44203,-0.503413 -1.03999,-0.75565 -1.79387,-0.75565 m 0.22436,9.457267 c -1.43016,0 -2.59362,-0.469547 -3.49073,-1.408994 -0.89676,-0.939095 -1.34514,-2.194984 -1.34514,-3.76802 v -0.331611 c 0,-1.046339 0.19967,-1.980847 0.59937,-2.803172 0.40005,-0.821972 0.95885,-1.465439 1.6771,-1.9304 0.7179,-0.464608 1.49648,-0.696736 2.33504,-0.696736 1.37124,0 2.43734,0.451555 3.19757,1.355019 0.76095,0.903464 1.14089,2.1971 1.14089,3.880556 v 0.750711 h -7.14657 c 0.0261,1.039989 0.3302,1.879953 0.91157,2.519891 0.58173,0.640645 1.32116,0.960614 2.21827,0.960614 0.63676,0 1.17616,-0.129822 1.61854,-0.390172 0.44168,-0.259644 0.82868,-0.604661 1.15994,-1.033286 l 1.10172,0.857956 c -0.88406,1.358547 -2.21015,2.037644 -3.97757,2.037644" />
    <path
       d="m 117.87504,27.533569 h -3.45828 v -2.271536 h 3.45828 z"
       style="fill:#ffffff;fill-opacity:1;fill-rule:nonzero;stroke:none;stroke-width:0.35277775"
       id="path4065" />
    <path
       id="path4069"
       style="fill:#ffffff;fill-opacity:1;fill-rule:nonzero;stroke:none;stroke-width:0.35277778"
       d="m 123.70748,18.281125 3.64631,10.295819 3.62656,-10.295819 h 3.84175 V 32.47655 h -2.93476 v -3.880203 l 0.29245,-6.697839 -3.83187,10.578042 h -2.00801 l -3.822,-10.568517 0.29246,6.688314 v 3.880203 h -2.92488 V 18.281125 Z" />
    <path
       id="path4073"
       style="fill:#ffffff;fill-opacity:1;fill-rule:nonzero;stroke:none;stroke-width:0.35277778"
       d="m 140.86959,30.517046 c 0.41593,0 0.79939,-0.09278 1.15041,-0.277989 0.35101,-0.184856 0.61066,-0.433917 0.77999,-0.745773 v -1.813277 h -1.05304 c -1.41076,0 -2.16147,0.487539 -2.25213,1.462616 l -0.01,0.165453 c 0,0.351014 0.12347,0.640292 0.37041,0.867481 0.24695,0.227894 0.58491,0.341489 1.01424,0.341489 m 2.32974,1.95968 c -0.12982,-0.253647 -0.22401,-0.568678 -0.28222,-0.945797 -0.68262,0.760589 -1.56986,1.14053 -2.66171,1.14053 -1.03363,0 -1.89018,-0.29845 -2.56892,-0.896761 -0.67945,-0.597958 -1.01918,-1.351844 -1.01918,-2.262011 0,-1.117952 0.41452,-1.975555 1.24319,-2.573866 0.82868,-0.597959 2.026,-0.899936 3.59269,-0.906639 h 1.29681 v -0.604661 c 0,-0.487539 -0.12524,-0.877359 -0.37536,-1.169811 -0.25047,-0.292453 -0.64523,-0.438503 -1.18462,-0.438503 -0.47449,0 -0.84702,0.113594 -1.11619,0.340783 -0.26988,0.227895 -0.40499,0.540103 -0.40499,0.936272 h -2.81728 c 0,-0.611011 0.18838,-1.176161 0.56515,-1.696508 0.37712,-0.519642 0.91016,-0.927805 1.59914,-1.223786 0.68897,-0.295275 1.46226,-0.443089 2.32057,-0.443089 1.29963,0 2.33151,0.32632 3.09527,0.979664 0.76377,0.653344 1.14547,1.571272 1.14547,2.754489 v 4.572352 c 0.007,1.000831 0.1464,1.758245 0.41945,2.271537 v 0.165805 z" />
    <path
       d="M 150.76521,32.476691 H 147.9377 V 21.92793 h 2.82751 z m -2.99296,-13.278908 c 0,-0.422628 0.14111,-0.770114 0.42404,-1.043164 0.28257,-0.27305 0.66781,-0.409575 1.15499,-0.409575 0.48119,0 0.86466,0.136525 1.15076,0.409575 0.28611,0.27305 0.42898,0.620536 0.42898,1.043164 0,0.428978 -0.14464,0.779991 -0.43391,1.053041 -0.28928,0.272698 -0.67134,0.409575 -1.14583,0.409575 -0.47413,0 -0.85619,-0.136877 -1.14547,-0.409575 -0.28928,-0.27305 -0.43356,-0.624063 -0.43356,-1.053041"
       style="fill:#ffffff;fill-opacity:1;fill-rule:nonzero;stroke:none;stroke-width:0.35277775"
       id="path4075" />
    <path
       d="m 155.97892,32.476691 h -2.82751 V 17.501274 h 2.82751 z"
       style="fill:#ffffff;fill-opacity:1;fill-rule:nonzero;stroke:none;stroke-width:0.35277775"
       id="path4077" />
    <path
       id="path4081"
       style="fill:#ffffff;fill-opacity:1;fill-rule:nonzero;stroke:none;stroke-width:0.35277778"
       d="m 47.569501,29.68509 c -0.538692,-0.674511 -1.359958,-1.07315 -2.223206,-1.07315 -0.544688,0 -1.059391,0.160514 -1.498952,0.43568 h 3.52e-4 v -1.010002 c 0,-1.302103 1.059039,-2.361142 2.361495,-2.361142 1.30175,0 2.360789,1.059039 2.360789,2.361142 v 1.470025 c -0.0695,-0.0085 -0.140406,-0.01411 -0.212373,-0.01411 -0.270227,0 -0.540102,0.06597 -0.788105,0.191559 m 2.55023,1.628422 c 7.06e-4,-0.0187 0.0014,-0.03739 0.0014,-0.05609 0,-0.486127 -0.197203,-0.926747 -0.516114,-1.246011 v -1.973791 c 0,-1.872545 -1.524,-3.395839 -3.395839,-3.395839 -1.872897,0 -3.395839,1.523294 -3.395839,3.395839 v 2.133952 c 0.0011,-0.0035 0.0021,-0.0042 0.0032,-0.0063 -0.118181,0.229306 -0.207786,0.47625 -0.259644,0.737659 -0.928512,0.04939 -1.668639,0.820561 -1.668639,1.761419 0,0.972608 0.79128,1.763889 1.763889,1.763889 h 7.316611 c 0.860777,0 1.561041,-0.700264 1.561041,-1.561042 0,-0.809625 -0.61983,-1.477786 -1.410053,-1.553633" />
    <path
       id="path4085"
       style="fill:#bc4799;fill-opacity:1;fill-rule:nonzero;stroke:none;stroke-width:0.35277778"
       d="m 27.711958,30.295184 v -11.7094 c 1.2827,1.264708 4.628092,4.562828 5.97147,5.879394 z M 45.580152,17.643867 c -1.28023,1.239661 -4.851752,4.702528 -6.529916,6.38175 -1.541992,1.541992 -2.448278,1.540933 -4.043186,-0.0067 C 34.251753,23.28514 29.949981,19.044045 28.529345,17.64387 Z M 40.394319,31.232161 H 28.533578 l 6.056136,-5.912908 c 0.865716,0.7366 1.667933,1.108428 2.4638,1.108428 0.794808,0 1.58503,-0.370769 2.427464,-1.105253 l 2.433461,2.354086 c 0.04092,-0.490361 0.163689,-0.957086 0.3556,-1.387475 l -1.891595,-1.829858 c 1.905706,-1.889478 5.27932,-5.158317 6.259689,-6.107289 v 5.394678 c 0.437444,0.04339 0.855485,0.151694 1.244599,0.316089 v -5.752395 c 0,-1.053747 -0.85725,-1.910997 -1.910996,-1.910997 H 28.379061 c -1.0541,0 -1.91135,0.85725 -1.91135,1.910997 v 12.255147 c 0,1.053748 0.85725,1.91135 1.91135,1.91135 h 11.607094 c 0.0321,-0.455789 0.176036,-0.879122 0.408164,-1.2446" />
  </g>
</svg>
