<?xml version="1.0" encoding="utf-8"?>
<!-- Generator: Adobe Illustrator 21.0.2, SVG Export Plug-In . SVG Version: 6.00 Build 0)  -->
<svg version="1.1" id="Capa_1" xmlns="http://www.w3.org/2000/svg" xmlns:xlink="http://www.w3.org/1999/xlink" x="0px" y="0px"
	 viewBox="0 0 512 512" style="enable-background:new 0 0 512 512;" xml:space="preserve">
<style type="text/css">
	.st0{fill:#7A2879;}
</style>
<g>
	<path class="st0" d="M220.9,70.2h-87.1V8.3c0-4.6-3.7-8.3-8.3-8.3c-4.6,0-8.3,3.7-8.3,8.3v61.9H8.3c-4.6,0-8.3,3.7-8.3,8.3v117.2
		c0,0,0,0,0,0.1v0c0,0,0,0,0,0c0,0.3,0,0.5,0,0.8c0,0.1,0,0.2,0,0.2c0,0.2,0,0.4,0.1,0.6c0,0.1,0.1,0.3,0.1,0.4
		c0,0.1,0.1,0.3,0.1,0.4c0.1,0.2,0.1,0.4,0.2,0.5c0,0.1,0.1,0.2,0.1,0.2c0.1,0.2,0.2,0.5,0.3,0.7c0,0,0,0,0,0.1l0,0c0,0,0,0,0,0
		l28.8,53.8v148.9L1,456.1c0,0,0,0,0,0l0,0c0,0,0,0,0,0.1c-0.1,0.2-0.2,0.5-0.3,0.7c0,0.1-0.1,0.2-0.1,0.2c-0.1,0.2-0.1,0.3-0.2,0.5
		c0,0.1-0.1,0.3-0.1,0.4c0,0.1-0.1,0.2-0.1,0.4c0,0.2-0.1,0.4-0.1,0.6c0,0.1,0,0.2,0,0.2c0,0.3,0,0.5,0,0.8c0,0,0,0,0,0v0
		c0,0,0,0,0,0.1v43.7c0,4.6,3.7,8.3,8.3,8.3h117.3h95.4c16.6,0,30.1-13.5,30.1-30.1V100.3C251,83.7,237.5,70.2,220.9,70.2z
		 M22.1,204h14c4.6,0,8.3-3.7,8.3-8.3s-3.7-8.3-8.3-8.3H16.5V86.7h100.7v100.7H65.9c-4.6,0-8.3,3.7-8.3,8.3s3.7,8.3,8.3,8.3h54.7
		l21,39.1H43L22.1,204z M120.6,451.8H22.1l21-39.1h98.5L120.6,451.8z M147.1,259.6v136.5H46.3V259.6H147.1z M16.5,468.3h100.7v27.2
		H16.5V468.3z M234.5,481.9c0,7.5-6.1,13.6-13.6,13.6h-87.1v-33.4l28.8-53.8c0,0,0,0,0,0l0,0c0,0,0,0,0,0c0.1-0.3,0.3-0.5,0.4-0.8
		c0-0.1,0.1-0.1,0.1-0.2c0.1-0.2,0.2-0.5,0.2-0.7c0-0.1,0-0.2,0.1-0.3c0.1-0.2,0.1-0.5,0.1-0.7c0-0.1,0-0.2,0-0.2
		c0-0.3,0.1-0.6,0.1-0.9v-153c0-0.3,0-0.6-0.1-0.9c0-0.1,0-0.2,0-0.2c0-0.2-0.1-0.5-0.1-0.7c0-0.1,0-0.2-0.1-0.3
		c-0.1-0.2-0.1-0.5-0.2-0.7c0-0.1-0.1-0.1-0.1-0.2c-0.1-0.3-0.2-0.6-0.4-0.8c0,0,0,0,0,0l0,0c0,0,0,0,0,0l-28.8-53.8V86.7h87.1
		c7.5,0,13.6,6.1,13.6,13.6L234.5,481.9L234.5,481.9z"/>
	<path class="st0" d="M82,355H70.8c-4.6,0-8.3,3.7-8.3,8.3c0,4.6,3.7,8.3,8.3,8.3H82c4.6,0,8.3-3.7,8.3-8.3
		C90.2,358.7,86.5,355,82,355z"/>
	<path class="st0" d="M122.6,355h-11.1c-4.6,0-8.3,3.7-8.3,8.3c0,4.6,3.7,8.3,8.3,8.3h11.1c4.6,0,8.3-3.7,8.3-8.3
		C130.8,358.7,127.1,355,122.6,355z"/>
	<path class="st0" d="M70.8,336.1h51.7c4.6,0,8.3-3.7,8.3-8.3c0-4.6-3.7-8.3-8.3-8.3H70.8c-4.6,0-8.3,3.7-8.3,8.3
		C62.6,332.4,66.3,336.1,70.8,336.1z"/>
	<path class="st0" d="M70.8,300.7h51.7c4.6,0,8.3-3.7,8.3-8.3c0-4.6-3.7-8.3-8.3-8.3H70.8c-4.6,0-8.3,3.7-8.3,8.3
		C62.6,297.1,66.3,300.7,70.8,300.7z"/>
	<path class="st0" d="M66.9,166.2c16.1,0,29.1-13.1,29.1-29.1c0-4.6-3.7-8.3-8.3-8.3s-8.3,3.7-8.3,8.3c0,7-5.7,12.6-12.6,12.6
		s-12.6-5.7-12.6-12.6s5.7-12.6,12.6-12.6c4.6,0,8.3-3.7,8.3-8.3s-3.7-8.3-8.3-8.3c-16.1,0-29.1,13.1-29.1,29.1
		S50.8,166.2,66.9,166.2z"/>
</g>
</svg>
